<svg width="1920" height="903" viewBox="0 0 1920 903" fill="none" xmlns="http://www.w3.org/2000/svg">
	<path fill-rule="evenodd" clip-rule="evenodd"
		d="M1497.92 -661.679C1639.09 -693.618 1812.73 -670.851 1909.99 -563.623C2006.24 -457.497 1946.83 -290.009 1964.03 -147.749C1977 -40.5489 2024.36 61.6213 1998.29 166.406C1971 276.109 1898.79 365.101 1817.01 443.13C1723.81 532.064 1626.64 648.42 1497.92 643.871C1369.49 639.331 1297.82 497.991 1194.8 421.137C1093.61 345.644 941.219 317.486 900.272 198.027C859.277 78.4243 939.083 -46.4601 995.795 -159.456C1044.78 -257.062 1124.96 -326.253 1202.17 -403.474C1297.02 -498.346 1367.1 -632.079 1497.92 -661.679Z"
		fill="url(#paint0_linear)" />
	<path
		d="M1082.26 263.54C1082.26 263.54 1226.67 126.095 1292.76 177.514C1358.85 228.934 1304.61 284.063 1333.33 285.118C1362.05 286.174 1419.77 230.074 1445.15 290.417C1470.53 350.759 1366.57 423.501 1385.11 426.593C1403.65 429.685 1434.86 418.778 1434.86 441.455C1434.86 464.131 1346.37 554.016 1286.59 547.822C1226.81 541.627 1313.12 480.219 1278.14 485.805C1243.16 491.392 1183.4 577.737 1136 525.241C1088.6 472.745 1177.76 375.899 1138.22 389.545C1073.14 411.998 996.46 352.273 1082.26 263.54Z"
		fill="#D6ECE1" />
	<path
		d="M1265.49 266.056C1275.08 259.723 1270.53 244.222 1261.25 238.742C1251.97 233.262 1256.54 231.14 1256.97 218.656C1257.68 197.558 1245.69 196.737 1245.69 196.737C1245.69 196.737 1234.41 196.044 1234.41 218.656C1234.41 231.151 1239.41 233.262 1230.13 238.742C1220.85 244.222 1216.31 259.723 1225.89 266.056C1237.44 273.689 1213.01 277.506 1217.16 298.935C1219.98 313.477 1234.84 313.2 1245.69 313.477C1256.54 313.2 1271.4 313.477 1274.22 298.935C1278.38 277.506 1253.94 273.689 1265.49 266.056Z"
		fill="#70CACD" />
	<path
		d="M1245.37 308.989C1245.62 308.051 1246.74 241.546 1245.37 229.179C1244.87 224.712 1243.25 316.899 1245.37 308.989Z"
		fill="#008EA7" />
	<path
		d="M1232.88 245.128C1232.88 245.128 1243.47 262.154 1245.17 261.749C1246.87 261.354 1258.2 245.64 1257.04 244.776C1256.65 244.488 1244.99 259.958 1244.99 259.958C1244.99 259.958 1232.15 242.047 1232.88 245.128Z"
		fill="#008EA7" />
	<path
		d="M1232.88 260.949C1232.88 260.949 1243.47 277.975 1245.17 277.57C1246.87 277.176 1258.2 261.461 1257.04 260.597C1256.65 260.309 1244.99 275.779 1244.99 275.779C1244.99 275.779 1232.15 257.868 1232.88 260.949Z"
		fill="#008EA7" />
	<path
		d="M1232.88 280.95C1232.88 280.95 1243.47 297.975 1245.17 297.57C1246.87 297.176 1258.2 281.461 1257.04 280.598C1256.65 280.31 1244.99 295.779 1244.99 295.779C1244.99 295.779 1232.15 277.879 1232.88 280.95Z"
		fill="#008EA7" />
	<path
		d="M1320.72 324.011V298.53H1173.58V324.011C1144.54 324.011 1120.91 349.203 1120.91 380.163C1120.91 411.123 1144.54 436.316 1173.58 436.316C1176.15 436.316 1178.68 436.113 1181.16 435.73C1191.59 457.862 1211.53 474.003 1235.27 478.065V541.148H1214.72C1204.09 541.148 1195.47 550.338 1195.47 561.671H1235.26V562.15H1258.79V561.671H1298.58C1298.58 550.338 1289.96 541.148 1279.33 541.148H1258.78V478.065C1282.53 474.003 1302.48 457.841 1312.9 435.698C1315.45 436.103 1318.06 436.316 1320.71 436.316C1349.75 436.316 1373.38 411.123 1373.38 380.163C1373.39 349.203 1349.76 324.011 1320.72 324.011ZM1173.58 419.258C1153.36 419.258 1136.91 401.72 1136.91 380.163C1136.91 358.606 1153.36 341.069 1173.58 341.069V394.311C1173.43 396.358 1173.33 398.415 1173.33 400.494C1173.33 406.944 1174.07 413.202 1175.45 419.194C1174.83 419.237 1174.2 419.258 1173.58 419.258ZM1320.72 419.258C1320.01 419.258 1319.31 419.226 1318.61 419.183C1319.98 413.192 1320.72 406.944 1320.72 400.494V341.069C1340.94 341.069 1357.39 358.606 1357.39 380.163C1357.39 401.72 1340.94 419.258 1320.72 419.258Z"
		fill="#FFD67E" />
	<path
		d="M1196.85 348.499C1196.85 330.354 1201.29 313.307 1209.06 298.53H1173.57V324.011C1144.53 324.011 1120.9 349.203 1120.9 380.163C1120.9 411.123 1144.53 436.316 1173.57 436.316C1176.14 436.316 1178.67 436.113 1181.15 435.73C1191.58 457.862 1211.52 474.003 1235.26 478.065V541.148H1214.71C1204.08 541.148 1195.46 550.338 1195.46 561.671H1235.25V562.15H1258.78V561.671H1298.57C1298.57 550.338 1289.95 541.148 1279.32 541.148H1258.77V478.065C1276.98 474.952 1292.94 464.717 1304.1 450.144C1300.4 450.602 1296.65 450.847 1292.83 450.847C1239.84 450.847 1196.85 405.025 1196.85 348.499ZM1173.58 419.258C1153.36 419.258 1136.91 401.72 1136.91 380.163C1136.91 358.606 1153.36 341.069 1173.58 341.069V394.311C1173.43 396.358 1173.33 398.415 1173.33 400.494C1173.33 406.944 1174.07 413.202 1175.45 419.194C1174.83 419.237 1174.2 419.258 1173.58 419.258Z"
		fill="#FAA505" />
	<path
		d="M1163.61 317.155L1134.7 358.83C1129.06 366.964 1134.5 378.479 1143.99 378.479H1201.81C1211.3 378.479 1216.75 366.964 1211.1 358.83L1182.19 317.155C1177.58 310.492 1168.23 310.492 1163.61 317.155Z"
		fill="#FFFAEF" />
	<path d="M1180.93 257.836H1164.88V335.61H1180.93V257.836Z" fill="#FFFAEF" />
	<path
		d="M1180.17 255.757H1165.65C1162.96 255.757 1160.76 258.103 1160.76 260.971C1160.76 263.839 1162.96 266.184 1165.65 266.184H1180.17C1182.86 266.184 1185.06 263.839 1185.06 260.971C1185.05 258.103 1182.86 255.757 1180.17 255.757Z"
		fill="#FFFAEF" />
	<path
		d="M1201.45 358.148L1189.41 340.792H1156.41L1144.37 358.148C1140.15 364.225 1144.22 372.828 1151.31 372.828H1194.5C1201.59 372.828 1205.66 364.225 1201.45 358.148Z"
		fill="#7A76FF" />
	<path
		d="M1072.81 442.723C1082.4 436.391 1077.85 420.889 1068.57 415.409C1059.29 409.93 1063.86 407.808 1064.29 395.324C1065 374.225 1053.01 373.404 1053.01 373.404C1053.01 373.404 1041.73 372.711 1041.73 395.324C1041.73 407.819 1046.73 409.93 1037.45 415.409C1028.17 420.889 1023.63 436.391 1033.21 442.723C1044.76 450.357 1020.33 454.174 1024.48 475.603C1027.3 490.145 1042.16 489.867 1053.01 490.145C1063.86 489.867 1078.72 490.145 1081.54 475.603C1085.69 454.174 1061.26 450.357 1072.81 442.723Z"
		fill="#70CACD" />
	<path
		d="M1052.69 485.656C1052.94 484.718 1054.06 418.213 1052.69 405.846C1052.19 401.379 1050.57 493.567 1052.69 485.656Z"
		fill="#008EA7" />
	<path
		d="M1040.2 421.795C1040.2 421.795 1050.79 438.821 1052.49 438.416C1054.19 438.011 1065.52 422.307 1064.36 421.443C1063.97 421.156 1052.31 436.625 1052.31 436.625C1052.31 436.625 1039.47 418.714 1040.2 421.795Z"
		fill="#008EA7" />
	<path
		d="M1040.2 437.617C1040.2 437.617 1050.79 454.642 1052.49 454.237C1054.19 453.832 1065.52 438.128 1064.36 437.265C1063.97 436.977 1052.31 452.446 1052.31 452.446C1052.31 452.446 1039.47 434.546 1040.2 437.617Z"
		fill="#008EA7" />
	<path
		d="M1040.2 457.628C1040.2 457.628 1050.79 474.654 1052.49 474.249C1054.19 473.854 1065.52 458.14 1064.36 457.276C1063.97 456.978 1052.31 472.458 1052.31 472.458C1052.31 472.458 1039.47 454.547 1040.2 457.628Z"
		fill="#008EA7" />
	<path d="M1215.36 379.054H1065.75V562.129H1215.36V379.054Z" fill="#FFFAEF" />
	<path d="M1215.36 376.698H1065.75V405.196H1215.36V376.698Z" fill="#F05757" />
	<path d="M1215.36 405.505H1065.75V417.659H1215.36V405.505Z" fill="#D6ECE1" />
	<path
		d="M1195.89 394.588C1192.72 394.588 1190.12 391.816 1190.12 388.436V371.517C1190.12 368.137 1192.72 365.365 1195.89 365.365C1199.06 365.365 1201.66 368.137 1201.66 371.517V388.436C1201.66 391.816 1199.07 394.588 1195.89 394.588Z"
		fill="#272443" />
	<path
		d="M1085.21 394.588C1082.04 394.588 1079.44 391.816 1079.44 388.436V371.517C1079.44 368.137 1082.04 365.365 1085.21 365.365C1088.38 365.365 1090.98 368.137 1090.98 371.517V388.436C1090.98 391.816 1088.39 394.588 1085.21 394.588Z"
		fill="#272443" />
	<path
		d="M1081.95 513.191V499.958L1108.76 472.122C1114.16 466.57 1116.86 461.855 1116.86 457.976C1116.86 455.466 1116.1 453.451 1114.58 451.93C1113.06 450.332 1110.97 449.534 1108.3 449.534C1102.98 449.534 1099.06 452.424 1096.55 458.204L1081.15 449.192C1083.59 443.488 1087.24 439.152 1092.1 436.186C1096.97 433.22 1102.3 431.737 1108.08 431.737C1115.53 431.737 1121.88 434.057 1127.13 438.696C1132.45 443.259 1135.11 449.42 1135.11 457.177C1135.11 465.619 1130.97 473.985 1122.68 482.275L1109.45 495.622H1136.25V513.191H1081.95ZM1171.11 461.398C1178.95 461.398 1185.45 463.756 1190.62 468.471C1195.87 473.111 1198.49 479.651 1198.49 488.093C1198.49 496.459 1195.68 503 1190.05 507.715C1184.42 512.43 1177.54 514.788 1169.4 514.788C1162.78 514.788 1156.97 513.381 1151.95 510.567C1146.93 507.677 1143.24 503.38 1140.88 497.676L1156.62 488.549C1158.6 494.177 1162.86 496.991 1169.4 496.991C1172.98 496.991 1175.68 496.155 1177.5 494.482C1179.33 492.808 1180.24 490.679 1180.24 488.093C1180.24 485.507 1179.36 483.378 1177.61 481.705C1175.87 480.031 1173.32 479.195 1169.97 479.195H1144.99L1148.3 433.334H1194.5V450.446H1165.41L1164.61 461.398H1171.11Z"
		fill="#272443" />
	<path d="M1379.94 562.141L1379.94 512.363L1220.27 512.363L1220.27 562.141L1379.94 562.141Z" fill="#70CACD" />
	<path d="M1370.93 533.189L1370.93 512.367L1368.7 512.367L1368.7 533.189L1370.93 533.189Z" fill="#008EA7" />
	<path d="M1354.14 533.186L1354.14 512.364L1351.91 512.364L1351.91 533.186L1354.14 533.186Z" fill="#008EA7" />
	<path d="M1376.53 522.578L1376.53 512.364L1374.3 512.364L1374.3 522.578L1376.53 522.578Z" fill="#008EA7" />
	<path d="M1365.6 522.577L1365.6 512.364L1363.37 512.364L1363.37 522.577L1365.6 522.577Z" fill="#008EA7" />
	<path d="M1359.93 522.575L1359.93 512.361L1357.7 512.361L1357.7 522.575L1359.93 522.575Z" fill="#008EA7" />
	<path d="M1336.73 533.188L1336.73 512.367L1334.5 512.367L1334.5 533.188L1336.73 533.188Z" fill="#008EA7" />
	<path d="M1348.19 522.58L1348.19 512.366L1345.96 512.366L1345.96 522.58L1348.19 522.58Z" fill="#008EA7" />
	<path d="M1342.53 522.577L1342.53 512.363L1340.3 512.363L1340.3 522.577L1342.53 522.577Z" fill="#008EA7" />
	<path d="M1319.01 533.182L1319.01 512.361L1316.78 512.361L1316.78 533.182L1319.01 533.182Z" fill="#008EA7" />
	<path d="M1330.47 522.574L1330.47 512.36L1328.24 512.36L1328.24 522.574L1330.47 522.574Z" fill="#008EA7" />
	<path d="M1324.8 522.581L1324.8 512.368L1322.57 512.368L1322.57 522.581L1324.8 522.581Z" fill="#008EA7" />
	<path d="M1301.61 533.184L1301.61 512.363L1299.38 512.363L1299.38 533.184L1301.61 533.184Z" fill="#008EA7" />
	<path d="M1313.07 522.576L1313.07 512.363L1310.84 512.363L1310.84 522.576L1313.07 522.576Z" fill="#008EA7" />
	<path d="M1307.4 522.573L1307.4 512.36L1305.17 512.36L1305.17 522.573L1307.4 522.573Z" fill="#008EA7" />
	<path d="M1283.22 533.187L1283.22 512.365L1280.99 512.365L1280.99 533.187L1283.22 533.187Z" fill="#008EA7" />
	<path d="M1294.68 522.578L1294.68 512.365L1292.45 512.365L1292.45 522.578L1294.68 522.578Z" fill="#008EA7" />
	<path d="M1289.02 522.576L1289.02 512.362L1286.79 512.362L1286.79 522.576L1289.02 522.576Z" fill="#008EA7" />
	<path d="M1265.82 533.189L1265.82 512.367L1263.59 512.367L1263.59 533.189L1265.82 533.189Z" fill="#008EA7" />
	<path d="M1277.28 522.581L1277.28 512.367L1275.05 512.367L1275.05 522.581L1277.28 522.581Z" fill="#008EA7" />
	<path d="M1271.61 522.578L1271.61 512.364L1269.38 512.364L1269.38 522.578L1271.61 522.578Z" fill="#008EA7" />
	<path d="M1247.93 533.182L1247.93 512.36L1245.7 512.36L1245.7 533.182L1247.93 533.182Z" fill="#008EA7" />
	<path d="M1259.39 522.583L1259.39 512.37L1257.16 512.37L1257.16 522.583L1259.39 522.583Z" fill="#008EA7" />
	<path d="M1253.72 522.581L1253.72 512.367L1251.49 512.367L1251.49 522.581L1253.72 522.581Z" fill="#008EA7" />
	<path d="M1230.53 533.184L1230.53 512.362L1228.3 512.362L1228.3 533.184L1230.53 533.184Z" fill="#008EA7" />
	<path d="M1241.99 522.575L1241.99 512.362L1239.76 512.362L1239.76 522.575L1241.99 522.575Z" fill="#008EA7" />
	<path d="M1236.32 522.583L1236.32 512.369L1234.09 512.369L1234.09 522.583L1236.32 522.583Z" fill="#008EA7" />
	<path
		d="M1431.71 432.297C1441.3 425.964 1436.75 410.463 1427.47 404.983C1418.19 399.503 1422.76 397.381 1423.19 384.897C1423.9 363.798 1411.91 362.977 1411.91 362.977C1411.91 362.977 1400.63 362.284 1400.63 384.897C1400.63 397.392 1405.63 399.503 1396.35 404.983C1387.07 410.463 1382.53 425.964 1392.11 432.297C1403.66 439.93 1379.23 443.747 1383.38 465.176C1386.2 479.718 1401.06 479.441 1411.91 479.718C1422.76 479.441 1437.62 479.718 1440.44 465.176C1444.6 443.747 1420.16 439.93 1431.71 432.297Z"
		fill="#70CACD" />
	<path
		d="M1411.59 475.23C1411.84 474.291 1412.96 407.787 1411.59 395.42C1411.1 390.953 1409.47 483.14 1411.59 475.23Z"
		fill="#008EA7" />
	<path
		d="M1399.1 411.369C1399.1 411.369 1409.69 428.395 1411.39 427.989C1413.09 427.595 1424.42 411.88 1423.26 411.017C1422.87 410.729 1411.21 426.198 1411.21 426.198C1411.21 426.198 1398.38 408.298 1399.1 411.369Z"
		fill="#008EA7" />
	<path
		d="M1399.1 427.19C1399.1 427.19 1409.69 444.216 1411.39 443.811C1413.09 443.416 1424.42 427.702 1423.26 426.838C1422.87 426.55 1411.21 442.02 1411.21 442.02C1411.21 442.02 1398.38 424.119 1399.1 427.19Z"
		fill="#008EA7" />
	<path
		d="M1399.1 447.201C1399.1 447.201 1409.69 464.227 1411.39 463.822C1413.09 463.427 1424.42 447.713 1423.26 446.849C1422.87 446.561 1411.21 462.031 1411.21 462.031C1411.21 462.031 1398.38 444.131 1399.1 447.201Z"
		fill="#008EA7" />
	<path
		d="M1354.63 446.156H1338.93C1336.24 446.156 1334.04 448.502 1334.04 451.37C1334.04 453.587 1335.36 455.485 1337.19 456.231V526.755C1337.19 532.395 1341.48 536.969 1346.77 536.969C1352.06 536.969 1356.35 532.395 1356.35 526.755V456.231C1358.19 455.485 1359.5 453.587 1359.5 451.37C1359.51 448.502 1357.31 446.156 1354.63 446.156Z"
		fill="#FFFAEF" />
	<path
		d="M1346.78 533.493C1342.87 533.493 1339.67 530.082 1339.67 525.913V492.01C1339.67 487.842 1342.87 484.43 1346.78 484.43C1350.69 484.43 1353.89 487.842 1353.89 492.01V525.913C1353.89 530.082 1350.69 533.493 1346.78 533.493Z"
		fill="#F05757" />
	<path d="M1353.88 465.879H1339.66V491.562H1353.88V465.879Z" fill="#F05757" />
	<path
		d="M1383.49 446.156H1367.79C1365.1 446.156 1362.9 448.502 1362.9 451.37C1362.9 453.587 1364.22 455.485 1366.05 456.231V526.755C1366.05 532.395 1370.34 536.969 1375.63 536.969C1380.92 536.969 1385.21 532.395 1385.21 526.755V456.231C1387.05 455.485 1388.36 453.587 1388.36 451.37C1388.38 448.502 1386.18 446.156 1383.49 446.156Z"
		fill="#FFFAEF" />
	<path
		d="M1375.64 533.493C1371.73 533.493 1368.53 530.081 1368.53 525.913V514.164C1368.53 509.996 1371.73 506.584 1375.64 506.584C1379.55 506.584 1382.75 509.996 1382.75 514.164V525.913C1382.75 530.081 1379.55 533.493 1375.64 533.493Z"
		fill="#70CACD" />
	<path d="M1382.75 497.863H1368.53V523.546H1382.75V497.863Z" fill="#70CACD" />
	<path
		d="M1412.65 446.156H1396.95C1394.26 446.156 1392.06 448.502 1392.06 451.37C1392.06 453.587 1393.38 455.485 1395.21 456.231V526.755C1395.21 532.395 1399.5 536.969 1404.79 536.969C1410.08 536.969 1414.37 532.395 1414.37 526.755V456.231C1416.21 455.485 1417.52 453.587 1417.52 451.37C1417.54 448.502 1415.34 446.156 1412.65 446.156Z"
		fill="#FFFAEF" />
	<path
		d="M1404.8 533.493C1400.89 533.493 1397.69 530.081 1397.69 525.913V514.164C1397.69 509.996 1400.89 506.584 1404.8 506.584C1408.71 506.584 1411.91 509.996 1411.91 514.164V525.913C1411.92 530.081 1408.72 533.493 1404.8 533.493Z"
		fill="#FFD67E" />
	<path d="M1411.91 469.846H1397.69V523.546H1411.91V469.846Z" fill="#FFD67E" />
	<path d="M1328.48 451.562H1309.98V561.372H1328.48V451.562Z" fill="#7A76FF" />
	<path d="M1443.1 451.562H1424.6V561.372H1443.1V451.562Z" fill="#7A76FF" />
	<path d="M1439.8 495.656L1439.8 475.933L1318.55 475.933L1318.55 495.656L1439.8 495.656Z" fill="#7A76FF" />
	<path
		d="M1442.68 550.594H1425.02C1422.11 550.594 1419.76 555.764 1419.76 562.14H1447.94C1447.94 555.764 1445.58 550.594 1442.68 550.594Z"
		fill="#7A76FF" />
	<path
		d="M1328.06 550.594H1310.4C1307.49 550.594 1305.14 555.764 1305.14 562.14H1333.32C1333.32 555.764 1330.97 550.594 1328.06 550.594Z"
		fill="#7A76FF" />
	<path
		d="M1174.06 520.912H1042.13C1032.12 520.912 1024 512.256 1024 501.584C1024 490.912 1032.12 482.255 1042.13 482.255H1174.06V520.912Z"
		fill="#7A76FF" />
	<path d="M1174.01 488.801H1037.24V514.366H1174.01V488.801Z" fill="#FFFAEF" />
	<path d="M1174.01 489.036H1037.24V503.162H1174.01V489.036Z" fill="#D6ECE1" />
	<path
		d="M1226.75 488.748C1226.75 488.748 1226.29 486.669 1224.78 487.607C1223.27 488.545 1224.66 491.221 1226.21 491.861C1227.75 492.49 1226.75 488.748 1226.75 488.748Z"
		fill="#E57373" />
	<path
		d="M1237.38 488.428C1237.38 488.428 1237.84 486.349 1239.35 487.287C1240.87 488.225 1239.47 490.901 1237.92 491.541C1236.39 492.17 1237.38 488.428 1237.38 488.428Z"
		fill="#E57373" />
	<path
		d="M1237.83 482.628C1238.04 483.428 1237.41 495.539 1232.66 496.797C1227.91 498.044 1225.92 488.599 1226.25 483.129C1226.58 477.671 1236.05 475.965 1237.83 482.628Z"
		fill="#E57373" />
	<path
		d="M1246.96 566.649L1251.86 568.131C1251.73 569.006 1249.81 578.206 1249.25 578.217C1248.69 578.217 1248.9 570.807 1248.9 570.807C1248.9 570.807 1246.78 570.487 1246.51 570.306C1246.27 570.146 1246.96 566.649 1246.96 566.649Z"
		fill="#272443" />
	<path
		d="M1211.36 567.918L1206.54 569.698C1206.71 570.562 1209.12 579.635 1209.68 579.613C1210.24 579.592 1209.63 572.204 1209.63 572.204C1209.63 572.204 1211.73 571.756 1211.99 571.553C1212.24 571.362 1211.36 567.918 1211.36 567.918Z"
		fill="#272443" />
	<path
		d="M1226.97 549.346C1226.97 549.346 1252.35 537.299 1264.5 547.384C1280.32 560.53 1211.36 572.438 1211.36 572.438L1209.51 568.099C1209.51 568.099 1256.3 548.919 1248.96 551.958C1241.62 554.996 1218.42 560.199 1226.97 549.346Z"
		fill="#027878" />
	<path
		d="M1233.78 547.011C1233.78 547.011 1205.4 537.928 1193.19 547.918C1180.97 557.907 1246.64 573.888 1246.64 573.888L1249.16 566.916C1249.16 566.916 1203.15 548.781 1210.43 551.958C1222.01 556.99 1242.34 557.864 1233.78 547.011Z"
		fill="#027878" />
	<path
		d="M1222.01 512.693C1222.01 512.693 1200.59 524.985 1204.46 534.324C1208.33 543.663 1217.97 548.994 1219.19 550.945C1220.41 552.896 1221.04 555.924 1221.04 555.924C1221.04 555.924 1220.08 554.858 1216.78 553.77C1213.48 552.683 1197.58 543.61 1197.58 531.915C1197.58 520.219 1215.36 505.091 1218.57 503.236C1221.79 501.36 1222.01 512.693 1222.01 512.693Z"
		fill="#E57373" />
	<path
		d="M1243 512.299C1243 512.299 1261.61 527.032 1257.75 536.361C1253.88 545.7 1246.08 548.984 1244.86 550.935C1243.64 552.886 1243.01 555.914 1243.01 555.914C1243.01 555.914 1243.97 554.848 1247.27 553.76C1250.57 552.673 1265.14 543.952 1265.14 532.256C1265.14 520.561 1248.7 505.081 1245.48 503.226C1242.25 501.36 1243 512.299 1243 512.299Z"
		fill="#E57373" />
	<path
		d="M1214.99 551.553H1246.19C1246.19 551.553 1248.07 504.132 1245.63 502.703C1237.62 498.044 1218.61 500.571 1217.65 502.703C1216.68 504.835 1214.99 551.553 1214.99 551.553Z"
		fill="#7A76FF" />
	<path
		d="M1214.93 536.937C1214.93 536.937 1213.77 559.869 1214.93 560.327C1216.09 560.786 1244.94 560.754 1246 560.327C1247.06 559.901 1246.76 536.937 1246.76 536.937C1246.76 536.937 1223.6 535.647 1214.93 536.937Z"
		fill="#D6ECE1" />
	<path
		d="M1214.93 558.685C1214.93 558.685 1213.77 561.383 1214.93 561.436C1216.09 561.489 1244.94 561.489 1246 561.436C1247.06 561.383 1246.76 558.685 1246.76 558.685C1246.76 558.685 1223.6 558.536 1214.93 558.685Z"
		fill="#9BD5CA" />
	<path
		d="M1234.88 491.104C1234.88 491.104 1236.37 500.112 1235.81 501.093C1235.25 502.074 1233.75 504.132 1232.36 504.132C1230.97 504.132 1229.41 501.093 1229.31 500.603C1229.21 500.112 1229.31 489.696 1229.31 489.696C1229.31 489.696 1233.3 487.639 1234.88 491.104Z"
		fill="#E57373" />
	<path
		d="M1227.44 479.76C1227.44 479.76 1228.38 475.368 1230.93 475.805C1233.48 476.242 1237.31 475.496 1238.53 476.924C1239.75 478.353 1240.29 481.477 1237.64 482.063C1234.99 482.639 1228.81 479.334 1228.04 481.967C1226.03 488.801 1228.8 492.095 1228.8 492.095C1230.39 492.532 1234.91 492.17 1235.93 491.541C1237.86 490.347 1235.92 480.901 1236.83 481.008C1237.75 481.114 1238.46 481.573 1238.36 483.95C1238.26 486.328 1237.74 497.213 1235.81 498.044C1234.5 498.609 1229.71 498.385 1228.94 497.65C1227.47 496.232 1224.61 485.464 1225.43 482.863C1226.25 480.251 1226.26 479.867 1227.44 479.76Z"
		fill="#272443" />
	<path
		d="M1221.11 514.526C1221.11 514.526 1213.58 521.307 1212.2 522.565C1210.82 523.823 1204.45 516.723 1204.45 515.443C1204.45 514.164 1216.65 503.332 1217.64 502.703C1218.64 502.074 1221.86 508.812 1221.11 514.526Z"
		fill="#7A76FF" />
	<path
		d="M1242.16 514.526C1242.16 514.526 1249.69 521.307 1251.07 522.565C1252.45 523.823 1258.82 516.723 1258.82 515.443C1258.82 514.164 1246.62 503.332 1245.63 502.703C1244.63 502.074 1241.41 508.812 1242.16 514.526Z"
		fill="#7A76FF" />
	<path
		d="M1111.06 288.999C1111.06 288.999 1090.74 299.436 1074.31 292.197C1057.98 285.001 1056.06 285.075 1053.56 286.237C1051.06 287.4 1057.27 279.937 1069.81 286.237C1073.65 288.167 1093.9 288.199 1109.62 276.621C1109.61 276.621 1114.74 285.811 1111.06 288.999Z"
		fill="#E57373" />
	<path
		d="M1148.14 229.019C1148.14 229.019 1150.91 227.121 1152.9 227.548C1154.89 227.974 1155.22 225.575 1155.22 225.575C1155.22 225.575 1155.65 228.187 1152.9 229.019C1150.14 229.84 1147.89 229.339 1148.14 235.32C1148.39 241.301 1160.67 276.483 1134.4 284.233C1134.4 284.233 1129.39 274.564 1130.14 272.186C1130.89 269.819 1142.42 263.593 1142.66 253.241C1142.89 242.91 1143.38 230.49 1148.14 229.019Z"
		fill="#E57373" />
	<path
		d="M1103.86 315.609C1103.86 315.609 1098.54 329.746 1084.48 331.431C1070.42 333.115 1059.53 317.166 1059.53 317.166L1054.36 320.641C1054.36 320.641 1061.28 339.693 1079.77 343.958C1098.26 348.222 1111.24 333.339 1111.24 333.339C1111.24 333.339 1115.14 335.578 1113.64 352.604C1111.76 373.98 1109.89 386.304 1109.89 386.304H1116.07C1116.07 386.304 1124.94 363.66 1126.42 347.444C1128.15 328.552 1125.14 318.904 1125.14 318.904L1103.86 315.609Z"
		fill="#272443" />
	<path
		d="M1059.4 318.616L1056.29 314.767C1055.65 315.226 1049.09 320.588 1049.3 321.1C1049.52 321.612 1055.32 318.499 1055.32 318.499C1055.32 318.499 1056.41 320.29 1056.66 320.46C1056.89 320.62 1059.4 318.616 1059.4 318.616Z"
		fill="#272443" />
	<path
		d="M1111.29 385.376L1111.69 390.441C1112.46 390.472 1120.73 390.227 1120.83 389.684C1120.93 389.14 1114.52 388.02 1114.52 388.02C1114.52 388.02 1114.62 385.888 1114.51 385.59C1114.42 385.323 1111.29 385.376 1111.29 385.376Z"
		fill="#272443" />
	<path
		d="M1100.76 321.164C1100.76 321.164 1108.87 298.892 1109.01 281.451C1109.12 268.657 1133.38 271.173 1134.21 276.866C1136.07 289.553 1127.3 331.249 1127.3 331.249L1100.76 321.164Z"
		fill="#FFD67E" />
	<path
		d="M1125.88 272.549C1125.88 272.549 1135.64 266.504 1136.11 266.205C1136.58 265.896 1146.58 276.632 1146.58 276.632C1146.58 276.632 1137.51 286.6 1132.66 287.048C1127.81 287.496 1123.46 272.922 1125.88 272.549Z"
		fill="#FFD67E" />
	<path
		d="M1094.44 282.719C1094.44 282.719 1095.28 293.903 1096.11 294.489C1096.95 295.076 1111.64 291.504 1112.83 290.107C1114.02 288.711 1115.66 273.551 1114.88 273.945C1114.1 274.34 1095.64 282.08 1094.44 282.719Z"
		fill="#FFD67E" />
	<path
		d="M1121.5 260.864C1121.5 260.864 1121.4 257.815 1120.07 258.113C1118.74 258.401 1117.78 261.397 1118.49 262.495C1119.21 263.593 1121.52 263.401 1121.5 260.864Z"
		fill="#E57373" />
	<path
		d="M1130.35 257.335C1130.35 257.335 1133.1 265.757 1128.34 267.175C1123.58 268.593 1124.45 263.22 1124.64 264.233C1124.83 265.245 1126.04 273.604 1126.04 273.604C1126.04 273.604 1123.63 276.877 1119.09 274.041C1118.37 273.593 1121.03 260.544 1121.58 253.913C1121.81 251.034 1128.63 253.923 1130.35 257.335Z"
		fill="#E57373" />
	<path
		d="M1122.03 251.322C1122.03 251.322 1123.1 247.377 1125.38 248.305C1127.66 249.232 1127.35 250.565 1129 249.819C1130.65 249.072 1132.34 251.834 1131.47 253.593C1130.32 255.906 1130.34 256.61 1127.19 255.853C1124.04 255.096 1122.39 253.923 1121.68 255.267C1120.97 256.61 1122.23 260.043 1121.29 260.469C1120.35 260.885 1120.42 258.209 1119.72 259.211C1119.01 260.213 1117.91 262.793 1119.8 262.463C1121.69 262.143 1120.29 264.83 1119.57 264.744C1118.85 264.659 1115.57 261.791 1115.94 257.953C1116.18 255.522 1118.57 256.781 1117.91 255.021C1117.25 253.252 1118.76 249.478 1122.03 251.322Z"
		fill="#272443" />
	<path
		d="M1174.4 559.453H1042.47C1032.46 559.453 1024.34 550.796 1024.34 540.124C1024.34 529.452 1032.46 520.795 1042.47 520.795H1174.4V559.453Z"
		fill="#FFD67E" />
	<path d="M1174.06 520.913H1041.91C1032.21 520.913 1024.35 529.292 1024.35 539.634H1174.06V520.913Z"
		fill="#FAA505" />
	<path d="M1059.93 520.806H1045.7V559.708H1059.93V520.806Z" fill="#7A76FF" />
	<path d="M1165.11 520.806H1150.88V559.708H1165.11V520.806Z" fill="#7A76FF" />
	<path d="M1138.34 527.693H1070.37V549.783H1138.34V527.693Z" fill="#7A76FF" />
	<path
		d="M1366.89 361.25L1353.11 351.474C1349.18 348.681 1348.1 342.966 1350.72 338.777L1367.1 312.539C1369.72 308.349 1375.08 307.198 1379.01 309.991L1392.79 319.768C1396.72 322.561 1397.8 328.275 1395.18 332.465L1378.8 358.702C1376.18 362.892 1370.82 364.033 1366.89 361.25Z"
		fill="#70CACD" />
	<path
		d="M1311.89 456.114L1293.15 442.82C1290.58 440.997 1289.88 437.265 1291.59 434.525L1311.27 403C1312.98 400.26 1316.48 399.514 1319.05 401.337L1337.79 414.631C1340.36 416.455 1341.06 420.186 1339.35 422.926L1319.67 454.451C1317.96 457.191 1314.46 457.937 1311.89 456.114Z"
		fill="#F05757" />
	<path d="M1354.73 508.876H1327.67V561.266H1354.73V508.876Z" fill="#FFFAEF" />
	<path d="M1354.73 513.589H1327.67V532.928H1354.73V513.589Z" fill="#272443" />
	<path
		d="M1369.02 544.475H1313.38C1304.23 544.475 1296.81 552.385 1296.81 562.14H1385.59C1385.59 552.385 1378.17 544.475 1369.02 544.475Z"
		fill="#272443" />
	<path
		d="M1337.65 522.981C1313.92 522.981 1292.59 508.908 1281.98 486.264C1280.01 482.053 1281.61 476.925 1285.56 474.825C1289.51 472.714 1294.32 474.43 1296.29 478.641C1304.17 495.465 1320.01 505.923 1337.64 505.923C1363.11 505.923 1383.83 483.833 1383.83 456.679C1383.83 429.525 1363.11 407.435 1337.64 407.435C1333.22 407.435 1329.64 403.618 1329.64 398.906C1329.64 394.194 1333.22 390.377 1337.64 390.377C1371.93 390.377 1399.83 420.122 1399.83 456.679C1399.84 493.236 1371.94 522.981 1337.65 522.981Z"
		fill="#FFFAEF" />
	<path d="M1335.42 472.746H1249.77V486.776H1335.42V472.746Z" fill="#272443" />
	<path
		d="M1322.5 449.057L1294.21 428.981C1291.86 427.308 1291.21 423.896 1292.78 421.38L1354.36 322.742C1355.93 320.237 1359.13 319.544 1361.49 321.218L1389.78 341.293C1392.13 342.967 1392.78 346.378 1391.21 348.894L1329.63 447.532C1328.06 450.037 1324.85 450.72 1322.5 449.057Z"
		fill="#272443" />
	<path
		d="M1353.65 415.164C1361.65 415.164 1368.13 408.253 1368.13 399.727C1368.13 391.201 1361.65 384.29 1353.65 384.29C1345.65 384.29 1339.17 391.201 1339.17 399.727C1339.17 408.253 1345.65 415.164 1353.65 415.164Z"
		fill="#70CACD" />
	<path
		d="M1353.65 406.881C1357.65 406.881 1360.89 403.425 1360.89 399.162C1360.89 394.899 1357.65 391.443 1353.65 391.443C1349.65 391.443 1346.41 394.899 1346.41 399.162C1346.41 403.425 1349.65 406.881 1353.65 406.881Z"
		fill="#272443" />
	<path
		d="M1190.12 243.081C1194.7 243.081 1198.41 239.124 1198.41 234.243C1198.41 229.362 1194.7 225.405 1190.12 225.405C1185.54 225.405 1181.83 229.362 1181.83 234.243C1181.83 239.124 1185.54 243.081 1190.12 243.081Z"
		fill="#7A76FF" />
	<path
		d="M1201.54 222.622C1207.31 222.622 1211.98 217.639 1211.98 211.492C1211.98 205.345 1207.31 200.362 1201.54 200.362C1195.77 200.362 1191.1 205.345 1191.1 211.492C1191.1 217.639 1195.77 222.622 1201.54 222.622Z"
		fill="#7A76FF" />
	<path
		d="M1427.98 397.445C1433.75 397.445 1438.42 392.462 1438.42 386.315C1438.42 380.168 1433.75 375.185 1427.98 375.185C1422.21 375.185 1417.54 380.168 1417.54 386.315C1417.54 392.462 1422.21 397.445 1427.98 397.445Z"
		fill="#7A76FF" />
	<path
		d="M1359.12 441.465C1363.91 441.465 1367.79 437.327 1367.79 432.222C1367.79 427.117 1363.91 422.979 1359.12 422.979C1354.33 422.979 1350.45 427.117 1350.45 432.222C1350.45 437.327 1354.33 441.465 1359.12 441.465Z"
		fill="#F05757" />
	<path
		d="M1389.41 404.513C1394.2 404.513 1398.08 400.375 1398.08 395.27C1398.08 390.165 1394.2 386.027 1389.41 386.027C1384.62 386.027 1380.74 390.165 1380.74 395.27C1380.74 400.375 1384.62 404.513 1389.41 404.513Z"
		fill="#FFD67E" />
	<path
		d="M1139.14 198.091C1152.22 198.091 1162.82 186.788 1162.82 172.845C1162.82 158.902 1152.22 147.599 1139.14 147.599C1126.06 147.599 1115.46 158.902 1115.46 172.845C1115.46 186.788 1126.06 198.091 1139.14 198.091Z"
		fill="#FFE6B7" />
	<path
		d="M1145.29 209.807L1139.14 172.855L1115.83 177.269C1115.83 177.269 1117.73 189.487 1127.32 195.639C1134.5 200.244 1136.38 211.502 1136.38 211.502L1145.29 209.807Z"
		fill="#FFE6B7" />
	<path
		d="M1145.14 209.829L1138.99 172.877L1162.3 168.463C1162.3 168.463 1164.46 180.628 1157.44 189.924C1152.18 196.886 1154.06 208.134 1154.06 208.134L1145.14 209.829Z"
		fill="#FFE6B7" />
	<path
		d="M1138.56 211.62C1138.29 211.673 1138.03 211.481 1137.98 211.194L1133.61 184.946C1133.57 184.69 1133.7 184.434 1133.93 184.349C1134.16 184.263 1134.41 184.359 1134.53 184.583C1136.02 187.387 1137.8 189.807 1138.35 189.786C1138.34 189.775 1138.47 189.637 1138.57 189.05C1138.47 188.89 1138.38 188.709 1138.3 188.517C1137.65 187.035 1137.3 184.114 1138.13 183.57C1138.36 183.421 1138.63 183.442 1138.85 183.613C1139.48 184.135 1139.78 186.929 1139.61 188.752C1139.96 189.199 1140.35 189.317 1140.83 189.146C1141.22 189.008 1141.51 188.709 1141.69 188.283C1141.01 187.6 1140.56 186.651 1140.34 185.799C1140.08 184.796 1140.05 183.549 1140.73 183.069C1141 182.877 1141.32 182.877 1141.61 183.069C1142.43 183.602 1143.07 185.799 1142.89 187.515C1142.88 187.643 1142.86 187.76 1142.84 187.877C1143.1 188.027 1143.38 188.123 1143.69 188.144C1143.99 188.165 1144.23 188.027 1144.41 187.76C1143.65 186.481 1142.98 184.722 1143.04 183.634C1143.08 182.845 1143.48 182.547 1143.72 182.44C1144.12 182.259 1144.55 182.376 1144.89 182.749C1145.67 183.613 1146.09 186.044 1145.56 187.664C1145.74 187.931 1145.91 188.133 1146.03 188.24C1146.38 187.515 1146.75 184.668 1146.9 182.216C1146.92 181.95 1147.12 181.737 1147.37 181.715C1147.62 181.705 1147.85 181.886 1147.89 182.152L1151.98 206.727C1152.03 207.014 1151.85 207.292 1151.58 207.345C1151.31 207.398 1151.05 207.206 1151 206.918L1147.53 186.076C1147.31 187.568 1146.99 188.869 1146.53 189.231C1146.41 189.327 1146.1 189.509 1145.66 189.253C1145.46 189.135 1145.24 188.922 1145.01 188.634C1144.65 189.029 1144.18 189.221 1143.63 189.199C1143.22 189.178 1142.84 189.061 1142.5 188.89C1142.2 189.498 1141.73 189.935 1141.14 190.148C1140.49 190.383 1139.88 190.308 1139.36 189.935C1139.1 190.628 1138.71 190.809 1138.41 190.831C1137.44 190.905 1136.1 189.178 1135.03 187.483L1138.94 210.97C1139.01 211.29 1138.83 211.567 1138.56 211.62ZM1141.22 184.125C1141.15 184.391 1141.13 184.978 1141.38 185.777C1141.5 186.182 1141.69 186.587 1141.93 186.961C1141.94 185.724 1141.52 184.53 1141.22 184.125ZM1144.1 183.442C1144.09 183.464 1144.01 183.656 1144.08 184.157C1144.18 184.828 1144.46 185.617 1144.8 186.321C1144.87 184.892 1144.38 183.538 1144.1 183.442Z"
		fill="#FFFAEF" />
	<path
		d="M1157.01 170.809C1156.96 170.819 1156.9 170.83 1156.85 170.83C1155.76 170.926 1154.76 169.913 1154.63 168.58C1153.56 157.642 1146.29 156.778 1145.98 156.746C1144.88 156.64 1144.02 155.467 1144.06 154.124C1144.1 152.791 1145.02 151.789 1146.13 151.906C1149.93 152.29 1157.43 156.203 1158.6 168.229C1158.72 169.519 1158.02 170.627 1157.01 170.809Z"
		fill="#FFFAEF" />
	<path d="M1154.01 205.146L1135.68 208.616L1138.39 224.887L1156.72 221.417L1154.01 205.146Z" fill="#272443" />
	<path d="M1152.75 214.325L1139.43 216.847L1141.34 228.351L1154.67 225.83L1152.75 214.325Z" fill="#272443" />
	<path
		d="M1140.54 155.147C1141.75 155.147 1142.73 154.102 1142.73 152.812C1142.73 151.523 1141.75 150.478 1140.54 150.478C1139.33 150.478 1138.35 151.523 1138.35 152.812C1138.35 154.102 1139.33 155.147 1140.54 155.147Z"
		fill="#FFFAEF" />
	<path
		d="M1092.98 432.35C1092.98 432.35 1101.6 433.65 1107.3 441.518L1102.02 446.913C1102.02 446.913 1093.28 443.64 1093.28 441.22C1093.29 440.282 1092.98 432.35 1092.98 432.35Z"
		fill="#7A76FF" />
	<path
		d="M1095.32 425.313C1095.52 424.94 1095.86 423.575 1097.93 424.386C1100 425.207 1100.14 421.891 1100.56 422.221C1100.98 422.541 1101.09 424.236 1100.2 424.972C1099.31 425.708 1096.08 425.814 1096.41 427.627C1096.74 429.439 1112.55 441.081 1111.22 444.29C1109.89 447.51 1106.73 448.043 1104.06 445.836C1101.36 443.629 1092.64 430.335 1095.32 425.313Z"
		fill="#E57373" />
	<path
		d="M1086.59 419.087C1086.59 419.087 1086.49 416.038 1085.16 416.336C1083.83 416.624 1082.87 419.62 1083.58 420.718C1084.3 421.816 1086.61 421.635 1086.59 419.087Z"
		fill="#E57373" />
	<path
		d="M1123.73 501.637L1124.3 506.68C1125.07 506.68 1133.33 506.126 1133.41 505.582C1133.49 505.038 1127.05 504.164 1127.05 504.164C1127.05 504.164 1127.08 502.021 1126.96 501.733C1126.86 501.467 1123.73 501.637 1123.73 501.637Z"
		fill="#272443" />
	<path
		d="M1111.26 510.219L1110.01 515.123C1110.73 515.433 1118.57 518.226 1118.84 517.757C1119.11 517.277 1113.44 513.897 1113.44 513.897C1113.44 513.897 1114.22 511.925 1114.22 511.616C1114.22 511.317 1111.26 510.219 1111.26 510.219Z"
		fill="#272443" />
	<path
		d="M1087.58 431.817C1087.58 431.817 1081.49 431.412 1078.44 433.842C1075.39 436.273 1076.35 483.161 1076.35 483.161L1095.96 478.289C1095.96 478.289 1097.29 435.058 1094.82 433.235C1092.33 431.412 1087.58 431.817 1087.58 431.817Z"
		fill="#7A76FF" />
	<path
		d="M1076.35 476.86C1076.35 476.86 1108.52 449.056 1119.37 461.231C1130.22 473.406 1127.36 503.439 1127.36 503.439H1122.79C1122.79 503.439 1121.08 469.344 1113.65 467.521C1106.23 465.698 1098.48 475.506 1098.48 475.506C1098.48 475.506 1109.85 473.001 1116.13 479.291C1120.52 483.683 1114.8 513.183 1114.8 513.183H1110.23C1110.23 513.183 1113.86 482.958 1107.48 483.15C1101.1 483.353 1076.35 483.15 1076.35 483.15V476.86Z"
		fill="#F05757" />
	<path d="M1059.4 478.012L1121.28 429.631L1139.35 424.236L1127.17 439.45L1064.35 488.15L1059.4 478.012Z"
		fill="#F9B57C" />
	<path
		d="M1121.28 429.631L1118.85 434.781L1123.73 435.154L1122.97 439.141L1127.17 439.45L1064.42 489.036L1059.4 478.012L1121.28 429.631Z"
		fill="#FFD67E" />
	<path d="M1129.38 427.211L1132.94 432.243L1139.35 424.236L1129.38 427.211Z" fill="#272443" />
	<path
		d="M1071.55 450.655C1071.55 450.655 1070.18 467.319 1073.8 467.457C1077.42 467.596 1089.84 460.378 1091.05 460.133C1093.07 459.728 1095.14 461.327 1095.35 461.146C1095.56 460.964 1095.1 458.15 1090.76 457.468C1087.19 456.903 1077.81 460.964 1077.1 459.333C1076.39 457.702 1079.33 433.842 1079.33 433.842C1079.33 433.842 1071.3 436.678 1071.55 450.655Z"
		fill="#E57373" />
	<path
		d="M1069.4 448.246C1069.4 448.246 1077.05 451.924 1078.12 450.655C1079.19 449.386 1082.75 432.115 1082.75 432.115C1082.75 432.115 1072.61 432.243 1069.4 448.246Z"
		fill="#7A76FF" />
	<path
		d="M1094.81 412.061C1094.81 412.061 1098.18 423.981 1093.43 425.398C1088.68 426.816 1089.54 421.443 1089.73 422.456C1089.92 423.469 1091.13 431.827 1091.13 431.827C1091.13 431.827 1088.72 435.1 1084.18 432.264C1083.46 431.817 1086.12 418.767 1086.67 412.136C1086.9 409.257 1093.1 408.65 1094.81 412.061Z"
		fill="#E57373" />
	<path
		d="M1070.9 423.256C1073.65 418.554 1078.46 420.761 1078.56 416.305C1078.66 411.848 1083.4 405.11 1091.9 407.712C1095.97 408.959 1095.81 411.784 1092.03 411.688C1088.25 411.592 1088.12 414.727 1087.81 416.315C1087.5 417.904 1086.52 419.684 1086.26 418.842C1085.27 415.633 1084.05 417.275 1084.05 417.275C1084.05 417.275 1082.6 419.801 1084.05 420.526C1085.5 421.251 1086.07 420.377 1086.26 421.433C1086.44 422.488 1087.49 428.853 1083.35 429.034C1079.21 429.215 1080.62 431.891 1076.08 432.894C1071.53 433.906 1068.4 427.542 1070.9 423.256Z"
		fill="#272443" />
	<path
		d="M1345.41 294.02L1345.89 299.074C1346.66 299.084 1354.92 298.7 1355.02 298.157C1355.12 297.613 1348.68 296.611 1348.68 296.611C1348.68 296.611 1348.75 294.479 1348.64 294.18C1348.54 293.913 1345.41 294.02 1345.41 294.02Z"
		fill="#272443" />
	<path
		d="M1328.58 336.004L1327.62 340.983C1328.35 341.25 1336.34 343.521 1336.59 343.03C1336.84 342.54 1330.98 339.523 1330.98 339.523C1330.98 339.523 1331.65 337.508 1331.62 337.188C1331.6 336.9 1328.58 336.004 1328.58 336.004Z"
		fill="#272443" />
	<path
		d="M1313.84 273.497C1313.84 273.497 1326.13 247.996 1340.26 249.776C1354.39 251.557 1350.21 294.447 1350.21 294.447H1344.67C1344.67 294.447 1343.47 262.975 1338.64 263.049C1333.81 263.124 1317.67 287.197 1317.67 287.197C1317.67 287.197 1338.7 285.289 1341.52 300.566C1344.95 319.138 1332.95 338.307 1332.95 338.307L1326.17 338.03C1326.17 338.03 1339.1 305.609 1331.81 300.865C1320.59 293.562 1298.98 306.686 1290.41 289.468L1313.84 273.497Z"
		fill="#007F86" />
	<path
		d="M1298.09 239.467C1298.09 239.467 1313.41 245.575 1321.24 242.079C1329.07 238.582 1337.9 221.3 1342.9 221.097C1347.9 220.895 1348.09 218.997 1348.09 218.997C1348.09 218.997 1347.7 223.763 1344.45 223.944C1341.2 224.125 1337.33 243.955 1324.81 249.254C1312.3 254.552 1299.26 250.288 1299.26 250.288C1299.26 250.288 1296.35 241.673 1298.09 239.467Z"
		fill="#E57373" />
	<path
		d="M1304.89 238.763C1304.89 238.763 1278.4 228.4 1290.43 289.468C1290.43 289.468 1317.95 280.097 1313.84 273.497C1310.98 268.902 1309.89 271.983 1309.32 264.563C1308.75 257.143 1324.42 256.237 1304.89 238.763Z"
		fill="#7A76FF" />
	<path
		d="M1293.44 215.117C1293.57 214.711 1298.14 207.323 1305.48 212.163C1308.57 214.21 1308.62 218.091 1312.42 219.093C1316.23 220.095 1321.76 216.193 1323.73 222.91C1325.7 229.627 1323.45 231.46 1326.86 232.207C1330.27 232.963 1332.86 232.505 1332.03 237.676C1330.84 245.107 1320.16 245.32 1318.85 241.098C1315.54 230.415 1309.9 243.06 1307.04 233.561C1305.6 228.763 1286.57 236.141 1293.44 215.117Z"
		fill="#272443" />
	<path
		d="M1302.47 225.575C1302.47 225.575 1303.9 222.825 1305.23 223.112C1306.56 223.4 1306.19 226.108 1305.48 227.206C1304.76 228.304 1302.45 228.113 1302.47 225.575Z"
		fill="#E57373" />
	<path
		d="M1292.83 221.14C1292.83 221.14 1290.87 230.469 1295.63 231.887C1300.39 233.305 1299.52 227.931 1299.33 228.944C1299.14 229.957 1297.93 238.315 1297.93 238.315C1297.93 238.315 1300.34 241.588 1304.88 238.753C1305.6 238.305 1302.94 225.255 1302.39 218.624C1302.16 215.746 1294.47 215.191 1292.83 221.14Z"
		fill="#E57373" />
	<path
		d="M1300.92 249.691C1300.92 249.691 1315.49 257.623 1323.64 255.107C1331.79 252.591 1342.42 236.492 1347.4 236.908C1352.38 237.324 1352.78 235.447 1352.78 235.447C1352.78 235.447 1351.88 240.128 1348.63 239.925C1345.38 239.722 1339.41 258.934 1326.4 262.676C1313.4 266.418 1300.9 260.586 1300.9 260.586C1300.9 260.586 1298.95 251.674 1300.92 249.691Z"
		fill="#E57373" />
	<path
		d="M1304.89 238.763C1304.89 238.763 1311.59 242.964 1312.62 243.028C1313.65 243.102 1312.62 250.459 1312.62 250.459C1312.62 250.459 1303.28 245.522 1304.89 238.763Z"
		fill="#7A76FF" />
	<path
		d="M1298.92 246.909C1298.92 246.909 1307.79 250.576 1308.36 251.909C1308.94 253.241 1307.37 264.489 1305 263.785C1302.63 263.082 1294.63 261.653 1294.47 256.152C1294.31 250.64 1295.96 245.619 1298.92 246.909Z"
		fill="#7A76FF" />
	<path
		d="M1348.09 238.102C1360.48 238.102 1370.52 227.396 1370.52 214.189C1370.52 200.982 1360.48 190.276 1348.09 190.276C1335.7 190.276 1325.66 200.982 1325.66 214.189C1325.66 227.396 1335.7 238.102 1348.09 238.102Z"
		fill="#F05757" />
	<path d="M1341.19 214.178C1341.2 214.53 1341.21 214.893 1341.21 215.244H1347.59V214.178H1341.19Z" fill="#FFFAEF" />
	<path d="M1348.59 214.178V215.244H1354.97C1354.97 214.893 1354.98 214.53 1354.99 214.178H1348.59Z" fill="#FFFAEF" />
	<path
		d="M1370.49 215.244C1370.5 214.893 1370.51 214.541 1370.51 214.189V214.178H1355.98C1355.97 214.53 1355.96 214.893 1355.96 215.244H1370.49Z"
		fill="#FFFAEF" />
	<path
		d="M1325.66 214.178V214.189C1325.66 214.541 1325.67 214.893 1325.68 215.244H1340.21C1340.21 214.893 1340.2 214.53 1340.19 214.178H1325.66Z"
		fill="#FFFAEF" />
	<path
		d="M1348.59 190.287C1348.42 190.287 1348.26 190.276 1348.09 190.276C1347.92 190.276 1347.76 190.287 1347.59 190.287V214.168V215.234V238.081C1347.76 238.081 1347.92 238.091 1348.09 238.091C1348.26 238.091 1348.42 238.081 1348.59 238.081V215.234V214.168V190.287Z"
		fill="#FFFAEF" />
	<path
		d="M1355.96 215.511C1355.96 215.415 1355.96 215.33 1355.96 215.234C1355.96 214.882 1355.97 214.519 1355.98 214.168C1356.24 206.641 1358.69 199.988 1362.35 195.734C1362.1 195.51 1361.84 195.297 1361.58 195.084C1357.77 199.54 1355.24 206.406 1354.98 214.168C1354.97 214.519 1354.96 214.882 1354.96 215.234C1354.96 215.33 1354.96 215.415 1354.96 215.511C1354.96 222.888 1357.01 229.541 1360.29 234.243C1360.56 234.051 1360.83 233.859 1361.1 233.656C1357.94 229.136 1355.96 222.686 1355.96 215.511Z"
		fill="#FFFAEF" />
	<path
		d="M1334.59 195.095C1334.33 195.308 1334.07 195.521 1333.82 195.745C1337.49 200.01 1339.93 206.651 1340.19 214.178C1340.2 214.53 1340.21 214.893 1340.21 215.244C1340.21 215.34 1340.21 215.426 1340.21 215.522C1340.21 222.686 1338.23 229.147 1335.07 233.667C1335.34 233.87 1335.61 234.062 1335.88 234.253C1339.16 229.552 1341.21 222.899 1341.21 215.522C1341.21 215.426 1341.21 215.34 1341.21 215.244C1341.21 214.893 1341.2 214.53 1341.19 214.178C1340.93 206.417 1338.4 199.551 1334.59 195.095Z"
		fill="#FFFAEF" />
	<path
		d="M1133.24 137.183C1132.5 137.322 1131.99 138.089 1132.13 138.878L1132.74 142.556C1132.87 143.345 1133.59 143.889 1134.33 143.74C1135.07 143.59 1135.58 142.834 1135.44 142.045L1134.83 138.366C1134.71 137.578 1133.99 137.044 1133.24 137.183Z"
		fill="#FFE6B7" />
	<path
		d="M1143.59 136.48C1142.84 136.362 1142.14 136.917 1142.03 137.716L1141.52 141.405C1141.41 142.205 1141.93 142.951 1142.68 143.068C1143.43 143.185 1144.13 142.631 1144.24 141.831L1144.75 138.143C1144.86 137.354 1144.34 136.607 1143.59 136.48Z"
		fill="#FFE6B7" />
	<path
		d="M1153.92 138.548C1153.28 138.111 1152.43 138.303 1152.02 138.985L1150.12 142.119C1149.71 142.802 1149.89 143.708 1150.53 144.145C1151.17 144.582 1152.02 144.39 1152.43 143.708L1154.33 140.574C1154.74 139.891 1154.55 138.985 1153.92 138.548Z"
		fill="#FFE6B7" />
	<path
		d="M1160.96 144.486C1160.4 143.953 1159.52 144.006 1159.02 144.603L1156.69 147.386C1156.19 147.983 1156.24 148.921 1156.8 149.454C1157.36 149.987 1158.24 149.934 1158.74 149.337L1161.07 146.554C1161.57 145.947 1161.53 145.019 1160.96 144.486Z"
		fill="#FFE6B7" />
	<path
		d="M1167.68 153.196C1167.38 152.46 1166.57 152.109 1165.87 152.429L1162.65 153.9C1161.96 154.22 1161.63 155.083 1161.93 155.829C1162.23 156.565 1163.04 156.917 1163.74 156.597L1166.96 155.126C1167.66 154.795 1167.98 153.932 1167.68 153.196Z"
		fill="#FFE6B7" />
	<path
		d="M1172.25 161.341C1172.15 160.542 1171.46 159.966 1170.71 160.073L1167.24 160.542C1166.49 160.648 1165.95 161.384 1166.05 162.184C1166.15 162.983 1166.84 163.559 1167.59 163.452L1171.06 162.983C1171.81 162.877 1172.34 162.141 1172.25 161.341Z"
		fill="#FFE6B7" />
	<path
		d="M1173.8 170.883C1173.79 170.073 1173.16 169.433 1172.4 169.444L1168.9 169.519C1168.14 169.529 1167.54 170.201 1167.55 171.011C1167.56 171.821 1168.19 172.461 1168.95 172.45L1172.45 172.376C1173.21 172.365 1173.82 171.693 1173.8 170.883Z"
		fill="#FFE6B7" />
	<path
		d="M1173.23 179.988C1173.41 179.199 1172.95 178.41 1172.21 178.218L1168.81 177.344C1168.07 177.152 1167.33 177.642 1167.15 178.431C1166.97 179.22 1167.43 180.009 1168.17 180.201L1171.57 181.075C1172.31 181.257 1173.05 180.777 1173.23 179.988Z"
		fill="#FFE6B7" />
	<path
		d="M1171.16 189.199C1171.53 188.495 1171.29 187.6 1170.63 187.205L1167.57 185.393C1166.91 184.999 1166.07 185.254 1165.7 185.958C1165.33 186.662 1165.57 187.557 1166.23 187.952L1169.29 189.764C1169.95 190.159 1170.8 189.903 1171.16 189.199Z"
		fill="#FFE6B7" />
	<path
		d="M1165.48 195.5C1166.1 195.042 1166.26 194.125 1165.83 193.464L1163.85 190.394C1163.42 189.733 1162.56 189.562 1161.94 190.02C1161.32 190.479 1161.16 191.396 1161.59 192.057L1163.57 195.127C1164 195.788 1164.86 195.959 1165.48 195.5Z"
		fill="#FFE6B7" />
	<path
		d="M1124.48 140.105C1125.14 139.721 1125.98 139.987 1126.34 140.691L1128.01 143.975C1128.37 144.678 1128.12 145.574 1127.46 145.958C1126.8 146.341 1125.96 146.075 1125.6 145.371L1123.93 142.088C1123.57 141.384 1123.82 140.488 1124.48 140.105Z"
		fill="#FFE6B7" />
	<path
		d="M1115.45 145.83C1115.91 145.19 1116.77 145.062 1117.38 145.542L1120.17 147.791C1120.77 148.282 1120.89 149.199 1120.44 149.849C1119.98 150.489 1119.12 150.616 1118.51 150.137L1115.72 147.887C1115.12 147.397 1115 146.469 1115.45 145.83Z"
		fill="#FFE6B7" />
	<path
		d="M1110.75 153.985C1111.11 153.271 1111.94 153.004 1112.61 153.377L1115.7 155.136C1116.37 155.52 1116.62 156.405 1116.27 157.119C1115.91 157.834 1115.08 158.1 1114.41 157.727L1111.32 155.968C1110.65 155.584 1110.4 154.699 1110.75 153.985Z"
		fill="#FFE6B7" />
	<path
		d="M1107.25 164.625C1107.29 163.815 1107.94 163.197 1108.7 163.239L1112.19 163.442C1112.95 163.485 1113.53 164.178 1113.49 164.988C1113.45 165.798 1112.8 166.416 1112.04 166.374L1108.55 166.171C1107.8 166.129 1107.21 165.436 1107.25 164.625Z"
		fill="#FFE6B7" />
	<path
		d="M1105.6 173.954C1105.43 173.165 1105.9 172.376 1106.63 172.195L1110.04 171.363C1110.78 171.182 1111.52 171.683 1111.69 172.461C1111.86 173.24 1111.39 174.039 1110.66 174.221L1107.25 175.052C1106.51 175.233 1105.77 174.743 1105.6 173.954Z"
		fill="#FFE6B7" />
	<path
		d="M1107.22 183.485C1106.97 182.728 1107.36 181.885 1108.07 181.619L1111.38 180.404C1112.09 180.137 1112.88 180.553 1113.13 181.31C1113.38 182.067 1112.99 182.909 1112.28 183.176L1108.97 184.391C1108.25 184.657 1107.47 184.252 1107.22 183.485Z"
		fill="#FFE6B7" />
	<path
		d="M1110.7 191.822C1110.28 191.15 1110.45 190.233 1111.08 189.786L1113.99 187.717C1114.62 187.27 1115.48 187.451 1115.9 188.123C1116.32 188.794 1116.15 189.711 1115.52 190.159L1112.61 192.227C1111.97 192.675 1111.11 192.494 1110.7 191.822Z"
		fill="#FFE6B7" />
	<path
		d="M1115.61 199.711C1115.04 199.189 1114.97 198.25 1115.47 197.643L1117.75 194.818C1118.24 194.21 1119.12 194.135 1119.69 194.668C1120.26 195.191 1120.33 196.129 1119.83 196.737L1117.55 199.562C1117.06 200.169 1116.18 200.233 1115.61 199.711Z"
		fill="#FFE6B7" />
	<path
		d="M1122.98 203.549C1122.25 203.347 1121.8 202.547 1121.99 201.769L1122.86 198.155C1123.05 197.376 1123.8 196.897 1124.53 197.099C1125.26 197.302 1125.71 198.101 1125.52 198.88L1124.65 202.494C1124.47 203.272 1123.71 203.741 1122.98 203.549Z"
		fill="#FFE6B7" />
	<path
		d="M1267.87 467.873L1267.83 472.948C1267.06 473.044 1258.8 473.47 1258.66 472.937C1258.52 472.404 1264.83 470.773 1264.83 470.773C1264.83 470.773 1264.58 468.651 1264.66 468.353C1264.74 468.076 1267.87 467.873 1267.87 467.873Z"
		fill="#272443" />
	<path
		d="M1279.64 467.884L1279.45 472.959C1278.68 473.023 1270.41 473.182 1270.28 472.639C1270.15 472.095 1276.51 470.677 1276.51 470.677C1276.51 470.677 1276.32 468.545 1276.41 468.246C1276.51 467.98 1279.64 467.884 1279.64 467.884Z"
		fill="#272443" />
	<path
		d="M1285.25 405.281C1285.25 405.281 1291.15 360.195 1285.26 353.787C1276.05 343.766 1259.97 351.271 1259.32 352.423C1256.68 357.092 1256.44 404.13 1256.44 404.13L1285.25 405.281Z"
		fill="#7DD0E6" />
	<path
		d="M1256.44 404.13C1256.44 404.13 1242.67 422.99 1244.96 432.489C1247.24 441.988 1262.96 469.163 1262.96 469.163H1269.63C1269.63 469.163 1255.37 435.548 1256.45 432.073C1257.53 428.597 1270.86 414.588 1270.86 414.588C1270.86 414.588 1271.63 451.892 1275.72 469.163H1280.37C1280.37 469.163 1285.31 427.457 1285.27 403.352L1256.44 404.13Z"
		fill="#272443" />
	<path
		d="M1279.63 349.896L1278.75 432.137H1286.32C1286.32 432.137 1288.92 358.723 1287.88 354.704C1286.84 350.685 1279.63 349.896 1279.63 349.896Z"
		fill="#FBE4D3" />
	<path
		d="M1245.62 422.126L1250.07 425.74C1250.07 425.74 1263.32 405.697 1262.95 403.351C1262.58 401.006 1264.75 349.896 1264.75 349.896C1264.75 349.896 1259.95 350.12 1258.98 354.011C1256.1 365.621 1256.44 401.55 1256.44 401.55C1256.44 401.55 1249.51 413.224 1245.62 422.126Z"
		fill="#FBE4D3" />
	<path
		d="M1273.17 335.546C1273.17 335.546 1273.27 332.497 1274.6 332.795C1275.93 333.083 1276.89 336.079 1276.18 337.177C1275.46 338.275 1273.15 338.094 1273.17 335.546Z"
		fill="#E57373" />
	<path
		d="M1264.32 332.028C1264.32 332.028 1261.57 340.45 1266.33 341.868C1271.09 343.286 1270.22 337.913 1270.03 338.926C1269.84 339.939 1268.94 349.662 1268.94 349.662C1268.94 349.662 1271.03 351.581 1275.58 348.745C1275.58 348.745 1273.64 335.248 1273.09 328.616C1272.86 325.717 1266.04 328.616 1264.32 332.028Z"
		fill="#E57373" />
	<path
		d="M1272.64 326.015C1272.64 326.015 1271.57 322.07 1269.29 322.998C1267.01 323.925 1267.32 325.258 1265.67 324.512C1264.02 323.765 1262.33 326.527 1263.2 328.286C1264.35 330.599 1264.33 331.303 1267.48 330.546C1270.63 329.789 1272.28 328.616 1272.99 329.959C1273.7 331.303 1272.44 334.736 1273.38 335.162C1274.32 335.589 1274.25 332.902 1274.95 333.904C1275.66 334.906 1276.76 337.486 1274.87 337.156C1272.98 336.836 1274.38 339.523 1275.1 339.437C1275.82 339.352 1279.1 336.484 1278.73 332.646C1278.49 330.215 1276.1 331.473 1276.76 329.714C1277.42 327.944 1275.91 324.17 1272.64 326.015Z"
		fill="#272443" />
	<path
		d="M1288.12 405.281C1288.12 405.281 1284.01 402.168 1289.39 396.038C1293.89 390.91 1304.93 378.266 1301.12 373.649C1297.31 369.033 1288.12 365.44 1288.12 365.44L1286.23 352.337C1286.23 352.337 1306.52 360.728 1310.64 372.722C1314.54 384.055 1292.25 397.584 1290.37 399.289C1287.86 401.56 1288.12 405.281 1288.12 405.281Z"
		fill="#E57373" />
	<path
		d="M1259.33 352.423C1259.33 352.423 1237.9 359.651 1236.9 375.643C1235.9 391.635 1256.52 397.605 1255.19 400.302C1254.11 402.509 1250.65 403.224 1251.65 403.074C1252.65 402.925 1258.13 405.175 1256.52 397.605C1254.9 390.036 1239.49 384.439 1246.4 374.577C1250.09 369.31 1257.55 366.496 1257.55 366.496C1257.55 366.496 1258.34 355.909 1259.33 352.423Z"
		fill="#E57373" />
	<path
		d="M1286.98 366.485L1296.9 370.312C1296.9 370.312 1302.96 362.498 1302.56 362.167C1302.17 361.837 1292.28 352.668 1281.71 350.301C1281.71 350.291 1284.48 364.225 1286.98 366.485Z"
		fill="#FBE4D3" />
	<path
		d="M1260.64 366.485C1260.64 366.485 1253.31 368.798 1249.97 372.178C1249.97 372.178 1242.23 363.511 1242.42 363.297C1242.61 363.084 1249.51 354.683 1262.77 350.301L1260.64 366.485Z"
		fill="#FBE4D3" />
	<path
		d="M1263.19 338.819C1263.19 338.819 1264.68 337.507 1266.43 338.819C1268.18 340.13 1273.03 338.371 1272.83 334.661L1274.26 333.787C1274.26 333.787 1273.05 343.19 1268.18 343.851C1263.31 344.512 1262.44 339.245 1263.19 338.819Z"
		fill="#272443" />
	<path fill-rule="evenodd" clip-rule="evenodd"
		d="M190.494 715.581C137.016 746.549 71.7042 723.957 9.94273 726.055C-39.7082 727.742 -89.6302 745.861 -135.447 726.656C-182.317 707.01 -215.113 665.31 -240.291 621.165C-265.817 576.41 -276.639 526.851 -278.766 475.373C-281.291 414.286 -295.355 342.913 -253.638 298.217C-211.917 253.514 -138.967 270.756 -78.6152 260.922C-20.3964 251.435 41.838 212.29 92.9455 241.743C144.099 271.222 128.231 351.844 162.537 399.894C204.832 459.133 306.885 477.878 313.306 550.383C319.51 620.446 251.362 680.333 190.494 715.581Z"
		fill="url(#paint1_linear)" />
	<defs>
		<linearGradient id="paint0_linear" x1="1816" y1="-235" x2="1190" y2="455" gradientUnits="userSpaceOnUse">
			<stop stop-color="#7A76FF" />
			<stop offset="0.494792" stop-color="#A976FF" />
			<stop offset="1" stop-color="#E476FF" />
		</linearGradient>
		<linearGradient id="paint1_linear" x1="-54.6041" y1="694.84" x2="-86.2938" y2="257.333"
			gradientUnits="userSpaceOnUse">
			<stop stop-color="#7A76FF" />
			<stop offset="0.494792" stop-color="#A976FF" />
			<stop offset="1" stop-color="#E476FF" />
		</linearGradient>
	</defs>
</svg>