<svg width="203" height="48" viewBox="0 0 203 48" fill="none" xmlns="http://www.w3.org/2000/svg">
	<path
		d="M200 2H2.68454C1.92548 2 1.44317 2.81248 1.80665 3.47885L12.7388 23.5211C12.9016 23.8196 12.9016 24.1804 12.7388 24.4789L1.80665 44.5211C1.44317 45.1875 1.92548 46 2.68453 46H200C200.552 46 201 45.5523 201 45V3C201 2.44772 200.552 2 200 2Z"
		stroke="black" stroke-width="2.5" />
	<path
		d="M46.209 31C46.089 31 45.987 30.958 45.903 30.874C45.819 30.79 45.777 30.688 45.777 30.568V18.85C45.777 18.718 45.813 18.61 45.885 18.526C45.969 18.442 46.077 18.4 46.209 18.4H55.641C55.773 18.4 55.881 18.442 55.965 18.526C56.049 18.61 56.091 18.718 56.091 18.85V30.568C56.091 30.7 56.049 30.808 55.965 30.892C55.881 30.964 55.773 31 55.641 31H54.021C53.901 31 53.799 30.958 53.715 30.874C53.631 30.79 53.589 30.688 53.589 30.568V20.65H48.279V30.568C48.279 30.688 48.237 30.79 48.153 30.874C48.081 30.958 47.979 31 47.847 31H46.209ZM62.8223 31C62.7023 31 62.6003 30.958 62.5163 30.874C62.4323 30.79 62.3903 30.688 62.3903 30.568V18.85C62.3903 18.718 62.4263 18.61 62.4983 18.526C62.5823 18.442 62.6903 18.4 62.8223 18.4H70.7423C70.8743 18.4 70.9823 18.442 71.0663 18.526C71.1503 18.61 71.1923 18.718 71.1923 18.85V20.038C71.1923 20.17 71.1503 20.278 71.0663 20.362C70.9823 20.434 70.8743 20.47 70.7423 20.47H64.8203V23.656H70.3463C70.4783 23.656 70.5863 23.698 70.6703 23.782C70.7543 23.854 70.7963 23.956 70.7963 24.088V25.204C70.7963 25.336 70.7543 25.444 70.6703 25.528C70.5863 25.6 70.4783 25.636 70.3463 25.636H64.8203V28.93H70.8863C71.0183 28.93 71.1263 28.972 71.2103 29.056C71.2943 29.14 71.3363 29.248 71.3363 29.38V30.568C71.3363 30.7 71.2943 30.808 71.2103 30.892C71.1263 30.964 71.0183 31 70.8863 31H62.8223ZM77.5196 31C77.3996 31 77.2976 30.958 77.2136 30.874C77.1296 30.79 77.0876 30.688 77.0876 30.568V18.85C77.0876 18.718 77.1236 18.61 77.1956 18.526C77.2796 18.442 77.3876 18.4 77.5196 18.4H82.3436C83.7836 18.4 84.9176 18.742 85.7456 19.426C86.5736 20.098 86.9876 21.088 86.9876 22.396C86.9876 23.704 86.5736 24.694 85.7456 25.366C84.9296 26.026 83.7956 26.356 82.3436 26.356H79.6616V30.568C79.6616 30.688 79.6196 30.79 79.5356 30.874C79.4636 30.958 79.3616 31 79.2296 31H77.5196ZM82.2536 24.358C82.9496 24.358 83.4836 24.196 83.8556 23.872C84.2276 23.536 84.4136 23.044 84.4136 22.396C84.4136 21.772 84.2336 21.286 83.8736 20.938C83.5136 20.578 82.9736 20.398 82.2536 20.398H79.6256V24.358H82.2536ZM92.8848 31C92.7648 31 92.6628 30.958 92.5788 30.874C92.4948 30.79 92.4528 30.688 92.4528 30.568V18.85C92.4528 18.718 92.4888 18.61 92.5608 18.526C92.6448 18.442 92.7528 18.4 92.8848 18.4H100.805C100.937 18.4 101.045 18.442 101.129 18.526C101.213 18.61 101.255 18.718 101.255 18.85V20.038C101.255 20.17 101.213 20.278 101.129 20.362C101.045 20.434 100.937 20.47 100.805 20.47H94.8828V23.656H100.409C100.541 23.656 100.649 23.698 100.733 23.782C100.817 23.854 100.859 23.956 100.859 24.088V25.204C100.859 25.336 100.817 25.444 100.733 25.528C100.649 25.6 100.541 25.636 100.409 25.636H94.8828V28.93H100.949C101.081 28.93 101.189 28.972 101.273 29.056C101.357 29.14 101.399 29.248 101.399 29.38V30.568C101.399 30.7 101.357 30.808 101.273 30.892C101.189 30.964 101.081 31 100.949 31H92.8848ZM107.6 31C107.468 31 107.36 30.964 107.276 30.892C107.192 30.808 107.15 30.7 107.15 30.568V18.85C107.15 18.718 107.192 18.61 107.276 18.526C107.36 18.442 107.468 18.4 107.6 18.4H109.022C109.274 18.4 109.454 18.514 109.562 18.742L113.036 25.222L116.546 18.742C116.666 18.514 116.846 18.4 117.086 18.4H118.49C118.622 18.4 118.73 18.442 118.814 18.526C118.898 18.61 118.94 18.718 118.94 18.85V30.568C118.94 30.7 118.898 30.808 118.814 30.892C118.73 30.964 118.622 31 118.49 31H116.978C116.858 31 116.756 30.958 116.672 30.874C116.588 30.79 116.546 30.688 116.546 30.568V22.774L114.026 27.58C113.87 27.844 113.666 27.976 113.414 27.976H112.676C112.424 27.976 112.22 27.844 112.064 27.58L109.544 22.774V30.568C109.544 30.688 109.502 30.79 109.418 30.874C109.346 30.958 109.244 31 109.112 31H107.6ZM125.672 31C125.552 31 125.45 30.958 125.366 30.874C125.282 30.79 125.24 30.688 125.24 30.568V18.85C125.24 18.718 125.276 18.61 125.348 18.526C125.432 18.442 125.54 18.4 125.672 18.4H133.592C133.724 18.4 133.832 18.442 133.916 18.526C134 18.61 134.042 18.718 134.042 18.85V20.038C134.042 20.17 134 20.278 133.916 20.362C133.832 20.434 133.724 20.47 133.592 20.47H127.67V23.656H133.196C133.328 23.656 133.436 23.698 133.52 23.782C133.604 23.854 133.646 23.956 133.646 24.088V25.204C133.646 25.336 133.604 25.444 133.52 25.528C133.436 25.6 133.328 25.636 133.196 25.636H127.67V28.93H133.736C133.868 28.93 133.976 28.972 134.06 29.056C134.144 29.14 134.186 29.248 134.186 29.38V30.568C134.186 30.7 134.144 30.808 134.06 30.892C133.976 30.964 133.868 31 133.736 31H125.672ZM140.369 31C140.249 31 140.147 30.958 140.063 30.874C139.979 30.79 139.937 30.688 139.937 30.568V18.85C139.937 18.718 139.973 18.61 140.045 18.526C140.129 18.442 140.237 18.4 140.369 18.4H142.007C142.139 18.4 142.241 18.442 142.313 18.526C142.397 18.61 142.439 18.718 142.439 18.85V23.494H147.749V18.85C147.749 18.718 147.785 18.61 147.857 18.526C147.941 18.442 148.049 18.4 148.181 18.4H149.801C149.933 18.4 150.041 18.442 150.125 18.526C150.209 18.61 150.251 18.718 150.251 18.85V30.568C150.251 30.7 150.209 30.808 150.125 30.892C150.041 30.964 149.933 31 149.801 31H148.181C148.061 31 147.959 30.958 147.875 30.874C147.791 30.79 147.749 30.688 147.749 30.568V25.744H142.439V30.568C142.439 30.688 142.397 30.79 142.313 30.874C142.241 30.958 142.139 31 142.007 31H140.369ZM155.776 31C155.68 31 155.59 30.964 155.506 30.892C155.434 30.82 155.398 30.73 155.398 30.622L155.434 30.46L159.772 18.85C159.856 18.55 160.066 18.4 160.402 18.4H162.364C162.676 18.4 162.886 18.55 162.994 18.85L167.332 30.46C167.344 30.496 167.35 30.55 167.35 30.622C167.35 30.73 167.314 30.82 167.242 30.892C167.17 30.964 167.086 31 166.99 31H165.424C165.268 31 165.148 30.964 165.064 30.892C164.98 30.82 164.926 30.742 164.902 30.658L164.056 28.462H158.71L157.864 30.658C157.768 30.886 157.594 31 157.342 31H155.776ZM163.426 26.392L161.374 20.83L159.34 26.392H163.426Z"
		fill="black" />
</svg>