<svg width="23" height="23" viewBox="0 0 23 23" fill="none" xmlns="http://www.w3.org/2000/svg">
	<path fill-rule="evenodd" clip-rule="evenodd"
		d="M12.1931 0.25H10.8037C10.0212 0.25 9.27094 0.555494 8.71895 1.0989C8.2297 1.58054 7.93042 2.21556 7.87272 2.89128L7.86315 3.10953C7.85247 3.82021 7.27834 4.37464 6.57364 4.37457C6.41382 4.3729 6.24784 4.33643 6.09504 4.26771L5.94514 4.18943C4.5605 3.41144 2.76019 3.88798 1.94783 5.26936L1.21738 6.44533C0.440679 7.76555 0.823758 9.42411 2.07755 10.2783L2.25192 10.3879C2.68168 10.6319 2.92735 11.0488 2.92735 11.5C2.92735 11.9149 2.71928 12.3029 2.37226 12.5382L2.25379 12.6109C0.954828 13.3464 0.443019 14.9697 1.09596 16.32L1.19139 16.4997L1.90839 17.7127C2.28107 18.3718 2.9197 18.8684 3.67501 19.0787C4.34447 19.2651 5.05893 19.2136 5.69232 18.9345L5.89261 18.8365C6.2297 18.6455 6.57795 18.5998 6.9048 18.6855C7.23165 18.7712 7.51002 18.9812 7.67804 19.269C7.77067 19.4221 7.82505 19.58 7.84446 19.7436L7.85401 19.9098C7.85236 21.4554 9.17372 22.75 10.8037 22.75H12.1935C13.7325 22.75 15.01 21.5916 15.1349 20.0966L15.144 19.9035C15.1431 19.5301 15.278 19.2089 15.5193 18.9725C15.7607 18.7361 16.0884 18.6039 16.4297 18.6055C16.5866 18.6099 16.759 18.6483 16.9187 18.7183L17.0718 18.7956C18.3637 19.5262 20.0565 19.1509 20.9284 17.9225L21.0403 17.7516L21.7824 16.5405C22.1819 15.8687 22.2901 15.0794 22.0884 14.3384C21.9096 13.6815 21.4998 13.1084 20.9324 12.7196L20.7446 12.6017C20.4181 12.4168 20.203 12.1421 20.1153 11.8199C20.0275 11.4977 20.0746 11.1545 20.2459 10.8664C20.3408 10.7041 20.467 10.5691 20.6183 10.4658L20.9077 10.2876C22.0799 9.50792 22.5188 7.97334 21.9019 6.68322L21.8378 6.55759C21.824 6.52482 21.808 6.49287 21.7898 6.46196L21.1 5.28919C20.3325 3.98408 18.6729 3.4776 17.2892 4.11494L17.1049 4.20819C16.7742 4.39774 16.4251 4.44565 16.0964 4.36203C15.7677 4.27841 15.4864 4.07013 15.3146 3.78311C15.2265 3.63756 15.1721 3.47964 15.1527 3.31602L15.1431 3.14987C15.1673 2.44339 14.8665 1.68641 14.3106 1.12605C13.7546 0.565692 12.9908 0.249679 12.1931 0.25ZM10.8037 1.87871H12.1934C12.5421 1.87857 12.8757 2.01658 13.1186 2.26131C13.3614 2.50604 13.4927 2.83664 13.4827 3.1778L13.4975 3.46136C13.5478 3.89482 13.6776 4.27192 13.8828 4.61068C14.2757 5.26711 14.9226 5.74615 15.6786 5.93847C16.4346 6.13078 17.2376 6.02059 17.9106 5.63217L18.0267 5.57424L18.1515 5.52524C18.7009 5.3446 19.3485 5.57323 19.6596 6.10235L20.3175 7.22192L20.3318 7.25346L20.4113 7.40369C20.6775 7.96192 20.4551 8.66805 19.879 8.99815L19.6982 9.10974C19.3147 9.37075 19.0205 9.68555 18.8065 10.0517C18.4154 10.7092 18.3073 11.4985 18.509 12.2396C18.6924 12.9133 19.1181 13.4966 19.7038 13.8845L20.0101 14.0742C20.2262 14.2232 20.4044 14.4724 20.4821 14.758C20.5698 15.0802 20.5228 15.4234 20.3514 15.7116L19.6265 16.8952L19.545 17.02C19.2095 17.4915 18.5478 17.6666 17.9898 17.4267L17.6344 17.2488C17.2379 17.074 16.85 16.9875 16.456 16.9771C15.6528 16.9732 14.8989 17.277 14.3438 17.8208C13.7888 18.3646 13.4786 19.1033 13.4824 19.8723L13.476 19.995C13.4236 20.6151 12.8654 21.1213 12.1934 21.1213H10.8037C10.1393 21.1213 9.59228 20.6288 9.5223 19.9961L9.49963 19.5983C9.44936 19.1648 9.3195 18.7877 9.11429 18.449C8.73281 17.7954 8.08968 17.3101 7.33454 17.1121C6.5794 16.9141 5.77482 17.0199 5.09964 17.4059L4.97733 17.4645C4.73389 17.5709 4.42184 17.5935 4.12947 17.512C3.7996 17.4202 3.52069 17.2033 3.35445 16.9095L2.64655 15.713L2.58323 15.5931C2.31507 15.037 2.53772 14.3308 3.11468 14.0038L3.28996 13.8958C4.11338 13.3383 4.58973 12.4501 4.58973 11.5C4.58973 10.5358 4.0997 9.63999 3.29194 9.10488L2.99864 8.9229C2.48038 8.56899 2.31298 7.84425 2.64769 7.27513L3.37814 6.09915C3.74301 5.47917 4.52927 5.27105 5.14588 5.61721L5.36229 5.72904C5.76649 5.91204 6.16286 5.99914 6.56491 6.00323C8.12465 6.00343 9.40006 4.82973 9.51645 3.33419L9.53156 2.99119C9.55439 2.73333 9.68453 2.45721 9.89724 2.2478C10.1372 2.01154 10.4634 1.87871 10.8037 1.87871ZM11.5036 7.8233C9.43107 7.8233 7.75092 9.46941 7.75092 11.5C7.75092 13.5306 9.43107 15.1767 11.5036 15.1767C13.5762 15.1767 15.2564 13.5306 15.2564 11.5C15.2564 9.46941 13.5762 7.8233 11.5036 7.8233ZM11.5036 9.45201C12.6581 9.45201 13.594 10.3689 13.594 11.5C13.594 12.6311 12.6581 13.548 11.5036 13.548C10.3492 13.548 9.41328 12.6311 9.41328 11.5C9.41328 10.3689 10.3492 9.45201 11.5036 9.45201Z"
		fill="white" />
</svg>