<svg width="22" height="24" viewBox="0 0 22 24" fill="none" xmlns="http://www.w3.org/2000/svg">
	<path fill-rule="evenodd" clip-rule="evenodd"
		d="M16.1551 1.03684C16.1016 0.639547 15.7636 0.333334 15.3547 0.333334C14.9087 0.333334 14.5471 0.697753 14.5471 1.14729V2.04719H7.46281V1.14729L7.45544 1.03684C7.40196 0.639547 7.06403 0.333334 6.65513 0.333334C6.20905 0.333334 5.84744 0.697753 5.84744 1.14729V2.0674C2.53763 2.29536 0.5 4.43992 0.5 7.90009V17.7214C0.5 21.4351 2.78473 23.6667 6.44563 23.6667H15.5543C19.2195 23.6667 21.4999 21.4725 21.4999 17.8035V7.90009C21.5105 4.43869 19.4794 2.29473 16.1624 2.06731V1.14729L16.1551 1.03684ZM14.5471 3.6751V4.71868L14.5544 4.82913C14.6079 5.22642 14.9458 5.53263 15.3547 5.53263C15.8008 5.53263 16.1624 5.16821 16.1624 4.71868V3.69916C18.5757 3.89995 19.8923 5.3532 19.8846 7.89759V8.36896H2.1154V7.90009C2.1154 5.35731 3.43913 3.90099 5.84744 3.69932V4.71868L5.85481 4.82913C5.90829 5.22642 6.24622 5.53263 6.65513 5.53263C7.1012 5.53263 7.46281 5.16821 7.46281 4.71868V3.6751H14.5471ZM2.1154 9.99686V17.7214C2.1154 20.5244 3.66579 22.0388 6.44565 22.0388H15.5543C18.3437 22.0388 19.8846 20.5561 19.8846 17.8035L19.8846 9.99686H2.1154ZM16.6014 13.4214C16.6014 12.9718 16.2398 12.6074 15.7937 12.6074L15.6741 12.6148C15.2799 12.6687 14.976 13.0093 14.976 13.4214C14.976 13.8709 15.3377 14.2353 15.7937 14.2353L15.9033 14.2279C16.2975 14.174 16.6014 13.8334 16.6014 13.4214ZM11.0149 12.6074C11.461 12.6074 11.8226 12.9718 11.8226 13.4214C11.8226 13.8334 11.5188 14.174 11.1245 14.2279L11.0149 14.2353C10.5589 14.2353 10.1973 13.8709 10.1973 13.4214C10.1973 13.0093 10.5011 12.6687 10.8953 12.6148L11.0149 12.6074ZM7.03379 13.4214C7.03379 12.9718 6.67218 12.6074 6.22611 12.6074L6.10653 12.6148C5.7123 12.6687 5.40844 13.0093 5.40844 13.4214C5.40844 13.8709 5.77005 14.2353 6.21613 14.2353L6.3357 14.2279C6.72994 14.174 7.03379 13.8334 7.03379 13.4214ZM15.7937 16.8254C16.2398 16.8254 16.6014 17.1898 16.6014 17.6393C16.6014 18.0514 16.2975 18.3919 15.9033 18.4458L15.7937 18.4533C15.3377 18.4533 14.976 18.0888 14.976 17.6393C14.976 17.2272 15.2799 16.8867 15.6741 16.8328L15.7937 16.8254ZM11.8226 17.6393C11.8226 17.1898 11.461 16.8254 11.0149 16.8254L10.8953 16.8328C10.5011 16.8867 10.1973 17.2272 10.1973 17.6393C10.1973 18.0888 10.5589 18.4533 11.0149 18.4533L11.1245 18.4458C11.5188 18.3919 11.8226 18.0514 11.8226 17.6393ZM6.22611 16.8254C6.67218 16.8254 7.03379 17.1898 7.03379 17.6393C7.03379 18.0514 6.72994 18.3919 6.3357 18.4458L6.21613 18.4533C5.77005 18.4533 5.40844 18.0888 5.40844 17.6393C5.40844 17.2272 5.7123 16.8867 6.10653 16.8328L6.22611 16.8254Z"
		fill="white" />
</svg>