<svg width="161" height="106" viewBox="0 0 161 106" fill="none" xmlns="http://www.w3.org/2000/svg">
	<path
		d="M29.1735 89.4792C32.0717 87.4571 33.0467 84.9649 33.3752 81.4471C33.7038 77.9292 32.4163 74.2911 29.9455 71.7642C27.886 69.6594 25.0493 68.2757 23.5161 65.7595C21.8813 63.0804 21.9374 59.4263 19.667 57.2573C18.107 55.7668 15.8259 55.3688 13.9294 54.3377C12.3828 53.4963 11.1087 52.2409 9.69295 51.1938C8.27725 50.1467 6.59711 49.2786 4.84218 49.4095C2.19509 49.6072 0.132971 52.2089 0.00742805 54.8613C-0.118115 57.5137 1.36169 60.0513 3.38641 61.7688C4.85553 63.0163 6.66389 63.9698 7.6255 65.6366C9.43385 68.7699 7.54536 73.1238 9.4846 76.1769C10.9003 78.4073 14.1137 79.4731 14.5598 82.0775C14.7227 83.0364 14.4529 84.0114 14.4609 84.9836C14.485 88.0207 17.3244 90.4701 20.3134 91.0097C23.305 91.552 26.3555 90.6144 29.1735 89.4792Z"
		fill="#F5F5F5" />
	<path
		d="M10.5824 60.0886C10.5744 60.0966 10.6839 60.2195 10.9003 60.4438C11.1461 60.6923 11.4639 61.0128 11.8619 61.4108C12.2866 61.8221 12.7995 62.3323 13.3551 62.96C13.9187 63.5824 14.5891 64.2636 15.2489 65.0916C15.5881 65.4976 15.9407 65.9223 16.3094 66.3657C16.6753 66.8091 17.0199 67.3006 17.3992 67.7948C18.1685 68.7698 18.8923 69.8836 19.6776 71.0375C21.1815 73.3881 22.6907 76.0646 24.0236 78.9975C25.3298 81.9438 26.3314 84.85 27.09 87.5345C27.4319 88.8861 27.7845 90.1682 28.0036 91.3889C28.1211 91.9979 28.26 92.5829 28.3481 93.1519C28.4336 93.7208 28.5164 94.2684 28.5966 94.7919C28.7782 95.8337 28.8396 96.7873 28.9331 97.6233C29.032 98.4567 29.0747 99.1779 29.1014 99.7709C29.1361 100.332 29.1628 100.783 29.1869 101.131C29.2109 101.44 29.2296 101.606 29.2403 101.606C29.2537 101.606 29.259 101.443 29.259 101.131C29.2537 100.781 29.2483 100.329 29.243 99.7656C29.2403 99.1726 29.2189 98.446 29.1361 97.6073C29.0613 96.7686 29.0186 95.807 28.853 94.7599C28.7809 94.2337 28.7061 93.6834 28.6286 93.1091C28.5458 92.5348 28.4149 91.9472 28.3027 91.3328C28.0944 90.1014 27.7525 88.8113 27.4186 87.449C26.6707 84.7431 25.6743 81.8156 24.3601 78.8506C23.0166 75.899 21.4887 73.2119 19.9635 70.8559C19.1675 69.6993 18.4302 68.5881 17.6449 67.6158C17.2603 67.1243 16.9077 66.6355 16.5337 66.1921C16.1571 65.7541 15.7965 65.332 15.4492 64.9287C14.7761 64.1086 14.087 63.4382 13.5073 62.8265C12.933 62.2095 12.4068 61.7126 11.9634 61.3146C11.5467 60.9353 11.2128 60.6308 10.9537 60.3958C10.716 60.1847 10.5905 60.0806 10.5824 60.0886Z"
		fill="#FFE6B7" />
	<path
		d="M159.079 37.5096C159.079 37.5096 156.53 35.8241 153.424 41.9196C150.317 48.0151 149.139 51.5303 149.139 51.5303C149.139 51.5303 148.319 52.8071 147.441 51.9737C146.564 51.1403 145.362 48.771 143.872 49.1984C142.325 49.6418 141.815 51.3674 142.112 53.9023C142.405 56.4372 142.849 62.0172 142.886 62.522C142.924 63.0162 142.641 63.7481 141.951 63.2753C141.262 62.8025 137.301 58.3898 135.319 60.3958C133.337 62.4018 135.319 69.3308 135.522 70.092C135.725 70.8533 135.575 71.1792 135.212 71.3688C134.852 71.5585 133.658 69.9478 132.48 68.7404C131.302 67.5304 129.723 66.3364 128.676 67.5892C127.629 68.8419 127.295 74.0426 132.244 82.4861L134.793 86.2497L139.352 85.9959C149.075 84.8607 153.023 81.4604 153.395 79.871C153.766 78.2817 151.861 77.7421 150.186 77.5285C148.512 77.3148 146.511 77.3335 146.442 76.9301C146.375 76.5268 146.543 76.2116 147.275 75.9151C148.004 75.6186 154.73 73.0276 155.139 70.2389C155.547 67.4503 149.639 66.9428 148.846 66.6783C148.052 66.4139 148.466 65.7461 148.883 65.479C149.308 65.2065 154.03 62.1988 156.231 60.906C158.432 59.6132 159.503 58.1681 158.926 56.6669C158.368 55.2192 155.756 55.6866 154.559 55.4889C153.365 55.2913 153.889 53.8676 153.889 53.8676C153.889 53.8676 155.986 50.8118 158.98 44.6602C161.974 38.5086 159.017 37.4802 159.017 37.4802"
		fill="#FFE6B7" />
	<path
		d="M156.287 42.9639C156.287 42.9639 156.271 43.0093 156.231 43.0948C156.188 43.1856 156.13 43.3138 156.052 43.4767C155.889 43.816 155.657 44.3075 155.355 44.9378C154.749 46.204 153.857 48.0337 152.748 50.2854C150.531 54.7943 147.416 60.9967 143.952 67.8348C140.488 74.6756 137.36 80.8699 135.119 85.3681C134.002 87.6145 133.099 89.4336 132.472 90.697C132.162 91.322 131.919 91.8082 131.75 92.1448C131.667 92.305 131.606 92.4306 131.561 92.5187C131.518 92.6042 131.491 92.6443 131.491 92.6443C131.491 92.6443 131.507 92.5989 131.547 92.5134C131.59 92.4226 131.649 92.297 131.726 92.1314C131.889 91.7922 132.122 91.3007 132.423 90.673C133.03 89.4068 133.922 87.5798 135.03 85.3254C137.248 80.8165 140.365 74.6141 143.826 67.7733C147.288 60.9352 150.419 54.7409 152.657 50.2427C153.774 47.9963 154.677 46.1772 155.304 44.9138C155.614 44.2888 155.857 43.8026 156.026 43.466C156.108 43.3058 156.17 43.1802 156.215 43.0921C156.263 43.0039 156.287 42.9639 156.287 42.9639Z"
		fill="#FFE6B7" />
	<path
		d="M145.421 52.5749C145.429 52.5722 145.472 52.6817 145.536 52.882C145.603 53.0824 145.688 53.3762 145.793 53.7395C145.998 54.466 146.257 55.4784 146.522 56.5976C146.778 57.7034 147.013 58.7051 147.19 59.4691C147.272 59.8136 147.342 60.1048 147.398 60.3372C147.449 60.5429 147.47 60.6577 147.462 60.6604C147.454 60.6631 147.411 60.5535 147.344 60.3532C147.28 60.1529 147.192 59.859 147.093 59.4958C146.896 58.7666 146.65 57.7515 146.383 56.6323C146.118 55.5291 145.878 54.5301 145.694 53.7662C145.608 53.4216 145.539 53.1331 145.48 52.8981C145.435 52.6924 145.411 52.5775 145.421 52.5749Z"
		fill="#FFE6B7" />
	<path
		d="M147.881 60.7432C147.871 60.7058 149.93 60.0807 152.484 59.3462C155.037 58.6116 157.115 58.048 157.126 58.0854C157.137 58.1228 155.077 58.7478 152.524 59.4824C149.97 60.2169 147.892 60.7806 147.881 60.7432Z"
		fill="#FFE6B7" />
	<path
		d="M142.088 71.0055C142.088 70.9948 142.208 70.9895 142.424 70.9895C142.67 70.9895 142.974 70.9922 143.338 70.9922C144.107 70.9948 145.17 70.9922 146.345 70.9468C147.518 70.904 148.581 70.8292 149.348 70.7678C149.708 70.7384 150.013 70.7144 150.256 70.6957C150.47 70.6796 150.59 70.677 150.593 70.685C150.593 70.6957 150.478 70.717 150.264 70.7491C150.05 70.7812 149.74 70.8239 149.358 70.8666C148.592 70.9521 147.529 71.0456 146.353 71.0883C145.178 71.1337 144.11 71.1204 143.34 71.0937C142.956 71.0777 142.643 71.0616 142.43 71.0456C142.208 71.0296 142.088 71.0162 142.088 71.0055Z"
		fill="#FFE6B7" />
	<path
		d="M138.238 64.1088C138.246 64.1034 138.311 64.1943 138.417 64.3625C138.538 64.5575 138.685 64.7979 138.858 65.0811C139.224 65.6928 139.721 66.5395 140.263 67.4824C140.805 68.4253 141.289 69.2801 141.633 69.9051C141.791 70.1963 141.925 70.4447 142.034 70.6477C142.125 70.824 142.173 70.9255 142.165 70.9282C142.157 70.9335 142.093 70.8427 141.986 70.6744C141.866 70.4794 141.719 70.239 141.545 69.9559C141.179 69.3442 140.683 68.4975 140.14 67.5545C139.598 66.6116 139.115 65.7569 138.773 65.1318C138.615 64.8407 138.482 64.5923 138.372 64.3892C138.276 64.213 138.23 64.1141 138.238 64.1088Z"
		fill="#FFE6B7" />
	<path
		d="M131.975 72.5201C131.983 72.5148 132.063 72.6323 132.199 72.8487C132.346 73.0891 132.538 73.3989 132.765 73.7702C133.238 74.5502 133.885 75.632 134.59 76.834C135.295 78.0333 135.928 79.1258 136.379 79.9192C136.593 80.2985 136.769 80.6163 136.908 80.8621C137.031 81.0864 137.093 81.212 137.085 81.2173C137.077 81.2227 136.996 81.1051 136.86 80.8888C136.713 80.6484 136.521 80.3412 136.294 79.9699C135.821 79.1899 135.175 78.1081 134.47 76.9061C133.764 75.7068 133.131 74.6143 132.68 73.821C132.466 73.4417 132.29 73.1238 132.151 72.8781C132.028 72.651 131.967 72.5255 131.975 72.5201Z"
		fill="#FFE6B7" />
	<path
		d="M137.021 80.9715C137.021 80.9608 137.173 80.9501 137.445 80.9421C137.744 80.9314 138.132 80.9207 138.602 80.9047C139.579 80.8726 140.926 80.8219 142.414 80.7231C143.901 80.6269 145.245 80.504 146.217 80.4105C146.685 80.3651 147.072 80.3277 147.368 80.2984C147.641 80.2743 147.791 80.2636 147.793 80.2743C147.793 80.285 147.646 80.3117 147.376 80.3544C147.107 80.3972 146.714 80.4506 146.228 80.512C145.258 80.6322 143.912 80.7711 142.422 80.8673C140.931 80.9661 139.579 81.0009 138.602 81.0089C138.113 81.0115 137.718 81.0089 137.443 81.0009C137.173 80.9902 137.021 80.9822 137.021 80.9715Z"
		fill="#FFE6B7" />
	<path
		d="M104.163 6.8423H122.5C123.299 6.8423 123.945 7.48871 123.945 8.28738V20.4384C123.945 21.237 123.299 21.8834 122.5 21.8834H112.844L108.252 26.4751V21.8834H104.163C103.57 21.8834 103.092 21.4026 103.092 20.8123V7.91342C103.092 7.32043 103.57 6.8423 104.163 6.8423Z"
		fill="#FFE6B7" />
	<path
		d="M110.248 14.6178C110.248 15.2135 109.764 15.697 109.169 15.697C108.573 15.697 108.089 15.2135 108.089 14.6178C108.089 14.0222 108.573 13.5387 109.169 13.5387C109.764 13.5387 110.248 14.0222 110.248 14.6178Z"
		fill="#FAFAFA" />
	<path
		d="M114.516 14.6178C114.516 15.2135 114.033 15.697 113.437 15.697C112.841 15.697 112.358 15.2135 112.358 14.6178C112.358 14.0222 112.841 13.5387 113.437 13.5387C114.033 13.5387 114.516 14.0222 114.516 14.6178Z"
		fill="#FAFAFA" />
	<path
		d="M118.782 14.6178C118.782 15.2135 118.298 15.697 117.703 15.697C117.107 15.697 116.624 15.2135 116.624 14.6178C116.624 14.0222 117.107 13.5387 117.703 13.5387C118.298 13.5387 118.782 14.0222 118.782 14.6178Z"
		fill="#FAFAFA" />
	<path
		d="M129.152 98.5879C124.563 94.1271 124.483 87.2222 125.672 81.2202C125.869 80.2185 125.933 79.1394 126.556 78.3327C127.178 77.526 128.396 77.104 129.23 77.6756C129.921 78.1484 130.106 79.0726 130.405 79.8606C130.806 80.9103 131.505 81.8372 132.4 82.5023C132.988 82.9404 133.749 83.2716 134.438 83.0259C135.387 82.6893 135.683 81.5033 135.841 80.5016C136.135 78.6319 136.426 76.7621 136.719 74.8923C136.877 73.8906 137.04 72.8649 137.507 71.9647C137.975 71.0645 138.806 70.2926 139.802 70.1804C140.798 70.0682 141.888 70.8108 141.928 71.8231C141.944 72.2452 141.792 72.6539 141.755 73.0759C141.715 73.4953 141.835 73.9894 142.209 74.1684C142.591 74.35 143.037 74.131 143.384 73.8879C144.583 73.0438 145.497 71.8552 146.365 70.6665C147.233 69.4779 148.085 68.2545 149.204 67.3036C150.324 66.3527 151.763 65.6902 153.211 65.8425C154.659 65.9947 156.045 67.1299 156.176 68.5991C156.31 70.0709 155.252 71.369 154.167 72.368C152.559 73.8479 150.743 75.0926 148.788 76.0489C148.435 76.2225 148.053 76.4068 147.871 76.7594C147.546 77.3924 148.069 78.1591 148.694 78.4849C149.399 78.8562 150.225 78.9096 150.989 79.1287C151.755 79.3477 152.546 79.8312 152.72 80.6165C152.963 81.7063 151.932 82.6412 150.975 83.2075C149.057 84.3401 146.95 85.1387 144.77 85.5581C143.99 85.7077 143.176 85.8172 142.497 86.2392C141.819 86.6613 141.314 87.5027 141.557 88.2666C141.8 89.0306 142.687 89.4072 143.483 89.3912C144.279 89.3751 145.037 89.068 145.817 88.9104C147.278 88.6139 149.041 88.9985 149.731 90.3341C150.182 91.2102 150.056 92.308 149.61 93.1922C149.164 94.0763 148.44 94.7842 147.687 95.4199C145.059 97.6503 141.893 99.2744 138.517 99.8593C135.146 100.447 132.136 100.265 129.152 98.5879Z"
		fill="#7A76FF" />
	<path
		d="M128.343 103.049C128.952 100.693 129.935 97.9552 131.327 95.057C132.71 92.1562 134.492 89.1031 136.466 85.9725C136.963 85.1925 137.451 84.4206 137.935 83.6593C138.418 82.9007 138.899 82.1501 139.415 81.4449C140.438 80.0266 141.53 78.7444 142.607 77.5558C143.681 76.3671 144.744 75.28 145.745 74.2703C146.75 73.2633 147.703 72.339 148.609 71.5377C150.414 69.9243 152.022 68.7971 153.158 68.0679C153.724 67.702 154.173 67.4322 154.48 67.2532C154.627 67.1677 154.744 67.101 154.83 67.0529C154.91 67.0075 154.95 66.9861 154.953 66.9914C154.955 66.9941 154.915 67.0208 154.841 67.0716C154.755 67.125 154.643 67.1971 154.499 67.2879C154.199 67.4776 153.756 67.7554 153.195 68.132C152.073 68.8773 150.484 70.0178 148.694 71.6392C147.797 72.4459 146.851 73.3728 145.852 74.3825C144.856 75.3975 143.798 76.4873 142.73 77.6733C141.661 78.8593 140.577 80.1414 139.559 81.5518C139.049 82.2543 138.573 82.9995 138.087 83.7608C137.604 84.5221 137.115 85.2914 136.618 86.0713C134.647 89.1992 132.865 92.2443 131.476 95.1318C130.082 98.0166 129.088 100.739 128.466 103.081"
		fill="#263238" />
	<path
		d="M139.468 81.4446C139.455 81.4446 139.447 81.287 139.439 81.0012C139.431 80.7154 139.433 80.3014 139.444 79.7912C139.465 78.7708 139.543 77.3604 139.634 75.8085C139.725 74.2539 139.781 72.8489 139.786 71.8312C139.789 71.321 139.789 70.9097 139.786 70.6238C139.783 70.338 139.789 70.1804 139.802 70.1804C139.815 70.1804 139.834 70.3354 139.861 70.6212C139.887 70.9043 139.909 71.3183 139.922 71.8285C139.952 72.8489 139.914 74.2619 139.823 75.8165C139.73 77.3498 139.644 78.7334 139.58 79.7938C139.554 80.272 139.532 80.6753 139.514 80.9985C139.495 81.287 139.481 81.4446 139.468 81.4446Z"
		fill="#263238" />
	<path
		d="M152.744 81.1375C152.741 81.1509 152.554 81.1429 152.22 81.1161C151.884 81.0921 151.4 81.0547 150.799 81.0253C149.597 80.9612 147.936 80.9292 146.101 80.9746C144.265 81.0227 142.607 81.1375 141.407 81.255C140.809 81.3085 140.323 81.3672 139.989 81.4046C139.655 81.4447 139.468 81.458 139.465 81.4474C139.463 81.434 139.647 81.3939 139.978 81.3325C140.31 81.2737 140.793 81.1963 141.391 81.1242C142.588 80.9719 144.252 80.8357 146.093 80.7876C147.933 80.7422 149.6 80.7956 150.802 80.8944C151.403 80.9398 151.889 80.9986 152.223 81.044C152.562 81.0894 152.744 81.1242 152.744 81.1375Z"
		fill="#263238" />
	<path
		d="M131.524 94.8456C131.519 94.8482 131.497 94.7895 131.463 94.6746C131.423 94.5384 131.377 94.3728 131.318 94.1724C131.196 93.737 131.033 93.0986 130.843 92.3107C130.461 90.7347 130.004 88.539 129.531 86.1083C129.059 83.6776 128.623 81.4819 128.273 79.8979C128.102 79.1286 127.961 78.4956 127.857 78.0254C127.811 77.8224 127.777 77.6542 127.747 77.5153C127.723 77.3977 127.715 77.3363 127.72 77.3336C127.726 77.3336 127.747 77.3924 127.782 77.5046C127.822 77.6408 127.867 77.8064 127.926 78.0067C128.049 78.4421 128.212 79.0805 128.402 79.8685C128.784 81.4445 129.24 83.6402 129.713 86.0709C130.186 88.4989 130.621 90.6973 130.971 92.2786C131.142 93.0479 131.284 93.6809 131.388 94.1511C131.433 94.3541 131.468 94.525 131.497 94.6613C131.521 94.7815 131.529 94.8429 131.524 94.8456Z"
		fill="#263238" />
	<path
		d="M149.541 92.1185C149.541 92.1239 149.48 92.1399 149.359 92.1613C149.218 92.1853 149.044 92.212 148.836 92.2467C148.352 92.3215 147.701 92.4204 146.905 92.5432C145.275 92.7943 143.029 93.1629 140.547 93.577C138.063 93.991 135.811 94.3409 134.177 94.5573C133.359 94.6668 132.697 94.7469 132.237 94.7923C132.026 94.8137 131.85 94.8297 131.708 94.8431C131.588 94.8538 131.524 94.8538 131.521 94.8484C131.521 94.8431 131.583 94.8271 131.703 94.8057C131.845 94.7816 132.018 94.7549 132.227 94.7202C132.71 94.6454 133.362 94.5466 134.155 94.4237C135.785 94.1753 138.031 93.804 140.515 93.39C142.997 92.976 145.248 92.626 146.886 92.4097C147.703 92.3002 148.366 92.22 148.825 92.1746C149.036 92.1533 149.212 92.1372 149.354 92.1239C149.477 92.1132 149.541 92.1132 149.541 92.1185Z"
		fill="#263238" />
	<path
		d="M5.90078 77.5154C7.34586 77.1281 8.9245 77.4941 10.196 78.2794C11.4674 79.0674 12.4611 80.2427 13.2544 81.5115C14.7876 83.9662 15.3139 87.2544 15.3673 90.1499C12.1566 90.003 9.42668 87.4627 8.12316 86.0871C6.06372 83.9101 3.65703 78.7308 5.90078 77.5154Z"
		fill="#7A76FF" />
	<path
		d="M20.5251 92.1132C19.2109 91.0821 18.6313 89.2657 18.9171 87.6176C19.2029 85.9722 20.274 84.5191 21.6577 83.5816C22.2987 83.1488 23.0894 82.8069 23.8293 83.0286C24.5211 83.237 24.9993 83.9128 25.1355 84.6233C25.2717 85.3338 25.1168 86.0684 24.8764 86.7495C24.051 89.0868 22.825 91.197 20.5251 92.1132Z"
		fill="#7A76FF" />
	<path
		d="M23.442 101.272C23.4206 101.283 23.3085 101.099 23.1215 100.754C22.9345 100.412 22.6754 99.9102 22.3736 99.2798C21.7779 98.0244 20.9766 96.2374 20.5946 94.1139C20.2153 91.9876 20.4931 89.9843 21.0273 88.6781C21.2891 88.021 21.5802 87.5242 21.8126 87.209C22.045 86.8911 22.1973 86.7362 22.2133 86.7469C22.2694 86.7843 21.6978 87.4547 21.2437 88.7582C20.7789 90.0484 20.5465 91.9876 20.9151 94.0604C21.2864 96.1332 22.0423 97.9122 22.5846 99.189C23.1348 100.463 23.4847 101.251 23.442 101.272Z"
		fill="#263238" />
	<path
		d="M8.08031 81.3005C8.09633 81.2872 8.34475 81.5436 8.77747 82.0217C9.2102 82.4999 9.82456 83.2024 10.5751 84.0785C12.0763 85.8308 14.1091 88.2829 16.286 91.0475C18.463 93.8121 20.3729 96.3657 21.7245 98.2328C22.4002 99.1677 22.9398 99.929 23.3031 100.461C23.6664 100.992 23.8587 101.294 23.8427 101.307C23.824 101.321 23.5969 101.046 23.2016 100.535C22.7742 99.9798 22.2159 99.2479 21.5428 98.3691C20.1458 96.5367 18.2092 94.0098 16.0349 91.2478C13.8606 88.4859 11.8573 86.0124 10.4042 84.2254C9.70703 83.3626 9.12739 82.6495 8.68666 82.1045C8.27797 81.5997 8.06428 81.3139 8.08031 81.3005Z"
		fill="#263238" />
	<path
		d="M18.3561 95.682C15.6049 93.481 11.7531 92.733 8.37946 93.7481C7.51935 94.0072 6.56843 94.5307 6.48296 95.4229C6.39748 96.3177 7.23621 97.0175 8.04022 97.4155C11.3898 99.0796 15.7384 98.4439 18.4737 95.8957"
		fill="#7A76FF" />
	<path
		d="M10.5138 95.3827C10.5084 95.3613 10.7061 95.3026 11.072 95.2144C11.2537 95.1663 11.4781 95.1183 11.7452 95.0889C12.0096 95.0568 12.3115 95.0007 12.648 94.9981C13.3185 94.95 14.1251 94.982 15.0066 95.1022C15.8854 95.2411 16.8417 95.4762 17.8033 95.8475C18.7596 96.2321 19.617 96.7156 20.3542 97.2178C21.0808 97.736 21.6898 98.2622 22.1466 98.7563C22.3896 98.9887 22.5713 99.2345 22.7422 99.4402C22.9158 99.6432 23.0467 99.8328 23.1482 99.9904C23.3539 100.303 23.4581 100.482 23.4421 100.495C23.3913 100.533 22.9319 99.8408 21.9863 98.9193C21.5188 98.4545 20.9072 97.9577 20.1886 97.4662C19.4594 96.9907 18.6207 96.5286 17.6884 96.152C16.7509 95.7887 15.8213 95.551 14.9666 95.3987C14.1064 95.2678 13.3211 95.2118 12.6614 95.2305C11.3338 95.2545 10.5271 95.4441 10.5138 95.3827Z"
		fill="#263238" />
	<path
		d="M85.6695 8.64803L83.4284 10.5205L82.3386 10.0343L82.1142 9.11014C82.1142 9.11014 84.5209 7.33383 84.4301 7.24034C84.2111 7.01063 83.9066 6.90378 83.6021 6.86104C83.0278 6.77824 82.4455 6.95186 81.978 7.29644L81.5586 7.61163C80.7733 8.19394 80.3673 9.1689 80.5356 10.1332C80.5436 10.1866 80.5516 10.216 80.5516 10.216L73.9085 15.7345C72.8775 15.39 71.7342 15.8815 71.2828 16.8938C70.802 17.973 71.2881 19.2364 72.3673 19.7172C73.4464 20.198 74.7099 19.7119 75.1907 18.6327C75.3857 18.1973 75.4177 17.7325 75.3216 17.2998L81.8899 11.7839C82.1436 12.027 82.4909 12.1152 82.8354 12.1285C83.5006 12.1526 84.1416 11.8721 84.6171 11.4073L85.1727 10.8651C86.1236 9.88209 85.6695 8.64803 85.6695 8.64803ZM72.8374 18.6568C72.3432 18.4377 72.1215 17.8581 72.3406 17.3639C72.5596 16.8698 73.1392 16.6481 73.6334 16.8671C74.1276 17.0861 74.3493 17.6658 74.1302 18.1599C73.9112 18.6568 73.3316 18.8785 72.8374 18.6568Z"
		fill="#7A76FF" />
	<path
		d="M95.7264 21.3893C95.4513 21.4133 93.0874 21.611 88.5705 21.9876L88.5972 21.9743C87.3177 23.4941 85.4078 25.0621 82.8489 25.9756C81.5748 26.4244 80.1537 26.7155 78.6472 26.7422C77.1434 26.7529 75.5621 26.5472 74.0101 26.0077C72.4609 25.4761 70.9463 24.6267 69.6188 23.4728C68.2912 22.3215 67.148 20.8631 66.3386 19.1856C65.5266 17.5108 65.0538 15.617 65.0111 13.6697C64.9897 13.4266 65.0031 13.1836 65.0191 12.9378C65.0325 12.6921 65.0431 12.449 65.0565 12.2033C65.0565 11.9575 65.1179 11.7144 65.1473 11.4714C65.1847 11.2283 65.2221 10.9826 65.2595 10.7368C65.3102 10.4937 65.3797 10.256 65.4385 10.0129C65.5052 9.77253 65.5533 9.52679 65.6361 9.29173C65.7216 9.05667 65.8071 8.82161 65.8952 8.58388L66.0261 8.22862C66.0689 8.11109 66.133 7.9989 66.1837 7.88671C66.9877 6.11041 68.171 4.54513 69.5867 3.30305C71.0024 2.06097 72.6532 1.14477 74.3761 0.605205C76.099 0.0602936 77.8913 -0.0999741 79.5928 0.0576227C81.297 0.215219 82.9157 0.696023 84.3447 1.41723C87.2109 2.86231 89.3157 5.19154 90.4296 7.62227C90.5765 7.92411 90.7261 8.2206 90.8249 8.53045C90.9344 8.83764 91.0493 9.1368 91.1508 9.43597C91.2977 10.0503 91.49 10.638 91.5515 11.231C91.5915 11.5248 91.6476 11.8133 91.6743 12.0991C91.6877 12.3849 91.701 12.668 91.7144 12.9432C91.7224 13.0821 91.7277 13.2183 91.7331 13.3545C91.7304 13.4907 91.7224 13.6243 91.7171 13.7579C91.7037 14.0223 91.6904 14.2841 91.6797 14.5378L91.6743 14.5138C94.2146 18.8197 95.5795 21.1355 95.7264 21.3893C95.5742 21.1382 94.1879 18.8357 91.6102 14.5565L91.6049 14.5458V14.5325C91.6156 14.2787 91.6262 14.0196 91.6396 13.7552C91.6449 13.6243 91.653 13.4907 91.6556 13.3545C91.6476 13.221 91.6423 13.0847 91.6343 12.9458C91.6209 12.6707 91.6049 12.3929 91.5915 12.1071C91.5648 11.824 91.5087 11.5381 91.4686 11.247C91.4072 10.6593 91.2122 10.077 91.0653 9.46535C90.9638 9.16886 90.8489 8.86969 90.7394 8.56518C90.6406 8.25533 90.491 7.96417 90.3441 7.66501C89.2302 5.25565 87.1387 2.95046 84.2967 1.52407C82.8783 0.813553 81.2756 0.338092 79.5874 0.185838C77.902 0.0309122 76.1283 0.191179 74.4241 0.730748C72.72 1.26765 71.0852 2.17316 69.6856 3.40455C68.2832 4.63327 67.1159 6.18253 66.3173 7.94013C66.2665 8.05499 66.2024 8.16184 66.1597 8.27937L66.0315 8.62929C65.946 8.86167 65.8605 9.09674 65.775 9.32912C65.6922 9.56151 65.6468 9.80726 65.58 10.045C65.5213 10.2854 65.4518 10.5204 65.4011 10.7608C65.3637 11.0039 65.3263 11.247 65.2889 11.4874C65.2595 11.7305 65.1981 11.9682 65.1981 12.2139C65.1847 12.457 65.174 12.7001 65.1607 12.9405C65.1473 13.1836 65.1313 13.424 65.1527 13.6644C65.1954 15.5929 65.6602 17.4681 66.4642 19.1242C67.2655 20.7856 68.3927 22.228 69.7069 23.3713C71.0211 24.5172 72.517 25.3586 74.0529 25.8875C75.5888 26.4217 77.1567 26.63 78.6472 26.6247C80.1404 26.6033 81.5507 26.3175 82.8168 25.8768C85.3571 24.9766 87.2616 23.4274 88.5411 21.9235L88.5518 21.9102H88.5678C93.0847 21.5816 95.4513 21.408 95.7264 21.3893Z"
		fill="#263238" />
	<path
		d="M130.503 104.315H29.2966C27.1464 104.315 25.4048 102.573 25.4048 100.423V36.1314C25.4048 33.9811 27.1464 32.2396 29.2966 32.2396H130.503C132.653 32.2396 134.395 33.9811 134.395 36.1314V100.423C134.395 102.573 132.653 104.315 130.503 104.315Z"
		fill="#455A64" />
	<path
		d="M134.328 105.29H25.7547C23.129 105.29 21.0001 103.161 21.0001 100.535V98.9833H139.083V100.535C139.083 103.161 136.954 105.29 134.328 105.29Z"
		fill="#455A64" />
	<path d="M131.318 35.1028H28.4846V95.9672H131.318V35.1028Z" fill="#F5F5F5" />
	<path
		d="M69.3075 98.9831C69.3048 98.9831 69.3449 98.9805 69.4224 98.9805C69.5052 98.9805 69.62 98.9778 69.7669 98.9778C70.0795 98.9751 70.5309 98.9725 71.1105 98.9698C72.2912 98.9644 73.99 98.9591 76.0922 98.9484C80.3339 98.9404 86.2024 98.9271 92.752 98.9137H92.8749L92.8135 99.0205C92.6051 99.3785 92.3781 99.7658 92.151 100.153C91.9133 100.559 91.6782 100.965 91.4512 101.35L91.4298 101.384H91.3898C82.3293 101.368 74.591 101.352 70.7713 101.347H70.7526L70.7446 101.331C70.2744 100.567 69.9139 99.9795 69.6654 99.5761C69.5479 99.3838 69.4571 99.2369 69.393 99.1301C69.3369 99.0312 69.3075 98.9831 69.3075 98.9831C69.3075 98.9831 69.3449 99.0366 69.409 99.1381C69.4785 99.2422 69.5719 99.3918 69.6975 99.5841C69.9512 99.9768 70.3199 100.551 70.798 101.299L70.7713 101.283C74.591 101.275 82.3293 101.262 91.3898 101.246L91.3283 101.28C91.5554 100.893 91.7904 100.49 92.0282 100.084C92.2552 99.6963 92.4796 99.309 92.6906 98.9511L92.752 99.0579C86.2291 99.0446 80.3847 99.0312 76.159 99.0232C74.0461 99.0152 72.3392 99.0072 71.1533 99.0018C70.5656 98.9992 70.1088 98.9965 69.7883 98.9938C69.6361 98.9912 69.5185 98.9912 69.4304 98.9912C69.3529 98.9858 69.3075 98.9831 69.3075 98.9831Z"
		fill="#263238" />
	<path fill-rule="evenodd" clip-rule="evenodd"
		d="M66.1129 46.4263C66.3025 46.1725 66.5215 45.9481 66.7673 45.7585L66.6124 44.9064L67.9292 44.3455L68.4367 45.048C68.7439 45.0026 69.0565 44.9999 69.3716 45.0373L69.8631 44.3241L71.1934 44.8583L71.0571 45.7131C71.3109 45.9027 71.5353 46.1218 71.7249 46.3675L72.577 46.2126L73.1379 47.5294L72.4354 48.037C72.4808 48.3441 72.4835 48.6567 72.4461 48.9719L73.1593 49.4633L72.6251 50.7936L71.7703 50.6573C71.5807 50.9111 71.3616 51.1355 71.1159 51.3251L71.2708 52.1772L69.9539 52.7382L69.4464 52.0357C69.1419 52.0811 68.8267 52.0837 68.5115 52.0463L68.0201 52.7595L66.6898 52.2253L66.8261 51.3705C66.5723 51.1809 66.3479 50.9619 66.1583 50.7161L65.3062 50.871L64.7452 49.5542L65.4478 49.0467C65.4023 48.7421 65.3997 48.427 65.4371 48.1118L64.7239 47.6203L65.2581 46.29L66.1129 46.4263ZM67.5392 47.9061C67.2241 48.6941 67.6034 49.5889 68.3913 49.9041C69.1793 50.2193 70.0742 49.8373 70.3893 49.052C70.7045 48.264 70.3226 47.3692 69.5373 47.054C68.7493 46.7388 67.8544 47.1208 67.5392 47.9061Z"
		fill="#FFE6B7" />
	<path fill-rule="evenodd" clip-rule="evenodd"
		d="M60.7733 74.0507C61.3209 73.3161 61.9593 72.6697 62.6672 72.1168L62.2157 69.6486L66.0328 68.0192L67.5019 70.052C68.3887 69.9238 69.2969 69.9104 70.2078 70.0226L71.6342 67.9605L75.4859 69.5071L75.0879 71.9832C75.8225 72.5308 76.4689 73.1719 77.0218 73.877L79.49 73.4256L81.1193 77.2427L79.0866 78.7118C79.2148 79.5986 79.2282 80.5068 79.116 81.4176L81.1781 82.844L79.6315 86.6958L77.1554 86.2978C76.6078 87.0324 75.9667 87.6788 75.2616 88.2317L75.713 90.6998L71.8959 92.3292L70.4268 90.2965C69.54 90.4247 68.6318 90.4381 67.721 90.3259L66.2946 92.388L62.4428 90.8414L62.8408 88.3653C62.1062 87.8177 61.4598 87.1793 60.9069 86.4714L58.4388 86.9228L56.8094 83.1058L58.8421 81.6367C58.7139 80.7499 58.7005 79.8417 58.8127 78.9308L56.7506 77.5044L58.2972 73.6527L60.7733 74.0507ZM64.9029 78.3405C63.9867 80.6216 65.0926 83.2153 67.3737 84.1315C69.6548 85.0477 72.2485 83.9419 73.1647 81.6607C74.0809 79.3796 72.9751 76.7859 70.6939 75.8697C68.4128 74.9508 65.8191 76.0593 64.9029 78.3405Z"
		fill="#F5F5F5" />
	<path
		d="M43.7689 81.5649C43.7689 81.5649 43.8197 81.3486 44.0414 81.02C44.2604 80.6995 44.6931 80.2641 45.3876 80.0637C45.7295 79.9676 46.1302 79.9275 46.5442 80.013C46.9556 80.0985 47.3856 80.2801 47.7355 80.6033C47.9145 80.7582 48.0721 80.9479 48.203 81.1589C48.3366 81.3699 48.4381 81.605 48.5022 81.8561C48.6384 82.3556 48.6037 82.9165 48.4033 83.4294C48.195 83.9369 47.8317 84.3669 47.3856 84.6341C47.1666 84.773 46.9289 84.8718 46.6885 84.9305C46.4481 84.9947 46.2023 85.0214 45.9646 85.008C45.4865 84.9973 45.0511 84.8317 44.6958 84.6073C44.3379 84.3803 44.0761 84.0758 43.8945 83.7686C43.5312 83.1436 43.5205 82.5292 43.5846 82.1472C43.6567 81.7572 43.7689 81.5649 43.7689 81.5649C43.7849 81.5703 43.6915 81.7706 43.6434 82.1552C43.5953 82.5319 43.6247 83.1249 43.9853 83.7179C44.1642 84.009 44.4207 84.2975 44.7626 84.5085C45.1045 84.7169 45.5212 84.8691 45.9726 84.8771C46.197 84.8878 46.4294 84.8584 46.6564 84.7997C46.8835 84.7409 47.1078 84.6474 47.3162 84.5165C47.7355 84.2628 48.0774 83.8568 48.2751 83.3759C48.4648 82.8925 48.4995 82.3636 48.3713 81.8908C48.3125 81.6531 48.2163 81.4287 48.0935 81.2284C47.9706 81.028 47.8237 80.8464 47.6527 80.6995C47.3215 80.3923 46.9155 80.2133 46.5229 80.1279C46.1302 80.0424 45.7456 80.0744 45.4143 80.1599C44.7465 80.3389 44.3138 80.7476 44.0868 81.0521C43.8571 81.3646 43.7849 81.5729 43.7689 81.5649Z"
		fill="#263238" />
	<path
		d="M41.485 79.1929C41.485 79.1956 41.4556 79.1929 41.3995 79.1849C41.3354 79.1769 41.2499 79.1635 41.1404 79.1475C40.9027 79.1128 40.5581 79.062 40.1147 78.9952L40.1388 78.9819C39.9224 79.5295 39.6393 80.248 39.2947 81.1161L39.2813 81.0734C39.6286 81.3111 40.0132 81.5756 40.4246 81.8587L40.4459 81.872L40.4433 81.8961C40.3872 82.3582 40.3872 82.8604 40.4646 83.3812L40.47 83.4079L40.4459 83.424C40.096 83.6777 39.7167 83.9529 39.3241 84.2414L39.3401 84.1799C39.6259 84.845 39.9277 85.5502 40.2456 86.2901L40.1842 86.2581C40.6062 86.1806 41.071 86.0951 41.5491 86.007L41.5838 86.0016L41.6052 86.0283C41.8883 86.3916 42.2489 86.7549 42.6656 87.0621L42.695 87.0834L42.6897 87.1208C42.6229 87.5455 42.5481 88.013 42.4707 88.4911L42.4333 88.4217C43.1037 88.6888 43.8249 88.9799 44.5648 89.2764L44.4874 89.3005C44.7331 88.9452 45.0029 88.5552 45.2753 88.1572L45.2994 88.1225L45.3394 88.1278C45.7989 88.1839 46.3117 88.1839 46.8193 88.1091L46.8593 88.1038L46.8834 88.1385C47.1371 88.4911 47.4176 88.8758 47.6981 89.2631L47.6152 89.239C48.283 88.9532 49.0016 88.646 49.7254 88.3362L49.6827 88.4137C49.6026 87.9836 49.5198 87.5162 49.4343 87.0487L49.4263 87.006L49.461 86.9793C49.8323 86.6908 50.1902 86.3302 50.4947 85.9242L50.5214 85.8894L50.5642 85.8974C51.0236 85.9722 51.4804 86.0444 51.9345 86.1165L51.857 86.1592C52.1455 85.438 52.4313 84.7302 52.7144 84.0277L52.7385 84.1105C52.3538 83.846 51.9745 83.5816 51.5979 83.3198L51.5632 83.2958L51.5685 83.253C51.63 82.7562 51.622 82.2567 51.5525 81.7759L51.5472 81.7358L51.5819 81.7118C51.9612 81.4367 52.3378 81.1669 52.7064 80.8998L52.6851 80.9799C52.3779 80.2587 52.0787 79.5535 51.7849 78.867L51.857 78.9044C51.3949 78.9872 50.9381 79.07 50.4921 79.1528L50.4547 79.1609L50.4306 79.1315C50.1208 78.7335 49.7628 78.3836 49.3755 78.0951L49.3461 78.0737L49.3515 78.0363C49.4289 77.5662 49.5011 77.1121 49.5732 76.666L49.6106 76.7301C48.8627 76.4283 48.1548 76.1425 47.4817 75.87L47.5458 75.8513C47.268 76.252 47.0062 76.6286 46.7551 76.9892L46.7364 77.0133L46.7071 77.0106C46.1809 76.9438 45.6867 76.9572 45.2219 77.0213L45.1952 77.0239L45.1792 77.0026C44.8854 76.5939 44.6209 76.2253 44.3698 75.8754L44.4206 75.8887C43.6005 76.2333 42.9034 76.5298 42.305 76.7809L42.3237 76.7461C42.4199 77.2911 42.4974 77.7398 42.5641 78.1138L42.5668 78.1271L42.5561 78.1351C42.1581 78.4423 41.899 78.7201 41.7361 78.9044C41.6586 78.9952 41.5999 79.0647 41.5571 79.1181C41.5037 79.1715 41.485 79.1929 41.485 79.1929C41.485 79.1902 41.501 79.1635 41.5358 79.1154C41.5732 79.0647 41.6266 78.9899 41.7067 78.8964C41.867 78.7068 42.1181 78.4236 42.5161 78.1058L42.508 78.1271C42.4386 77.7558 42.3531 77.3071 42.2489 76.7622L42.2436 76.7381L42.2676 76.7275C42.8633 76.471 43.5578 76.1692 44.3752 75.8166L44.4046 75.8032L44.4232 75.8299C44.677 76.1772 44.9441 76.5431 45.2406 76.9518L45.1952 76.9331C45.6653 76.8637 46.1702 76.8477 46.7044 76.9118L46.6563 76.9331C46.9074 76.5699 47.1665 76.1932 47.4416 75.7899L47.4657 75.7552L47.5057 75.7712C48.1789 76.041 48.8867 76.3241 49.6373 76.6233L49.68 76.642L49.672 76.6874C49.6026 77.1335 49.5278 77.5876 49.453 78.0577L49.429 77.9989C49.8269 78.2954 50.1929 78.648 50.5108 79.0567L50.4493 79.0326C50.8954 78.9498 51.3522 78.867 51.8143 78.7816L51.865 78.7709L51.8864 78.8189C52.1802 79.5054 52.4821 80.2079 52.7892 80.9291L52.8106 80.9772L52.7679 81.0093C52.3993 81.2764 52.0253 81.5488 51.6433 81.824L51.67 81.7599C51.7421 82.254 51.7502 82.7669 51.6887 83.2744L51.6593 83.2103C52.036 83.4694 52.4153 83.7338 52.7999 83.9983L52.8453 84.0303L52.824 84.0811C52.5435 84.7809 52.2577 85.4914 51.9692 86.2126L51.9478 86.2661L51.8917 86.2581C51.4403 86.1859 50.9809 86.1111 50.5214 86.039L50.5882 86.0123C50.2784 86.429 49.9098 86.7976 49.5278 87.0941L49.5545 87.0247C49.64 87.4921 49.7254 87.9596 49.8029 88.3896L49.8136 88.4457L49.7628 88.4671C49.0363 88.7769 48.3204 89.0814 47.65 89.3672L47.5992 89.3886L47.5672 89.3432C47.2867 88.9559 47.0089 88.5713 46.7551 88.2187L46.8193 88.2454C46.2984 88.3202 45.7748 88.3202 45.3047 88.2614L45.3688 88.232C45.0964 88.6273 44.8239 89.0173 44.5782 89.3726L44.5488 89.4153L44.5007 89.3966C43.7608 89.0975 43.0396 88.809 42.3718 88.5392L42.3237 88.5205L42.3318 88.4697C42.4092 87.9943 42.484 87.5242 42.5535 87.0995L42.5775 87.1582C42.1528 86.8404 41.7868 86.4691 41.4984 86.0978L41.5545 86.1192C41.0763 86.2046 40.6115 86.2901 40.1895 86.3649L40.1468 86.3729L40.1307 86.3328C39.8155 85.5903 39.5164 84.8851 39.2332 84.22L39.2172 84.1826L39.2493 84.1585C39.6446 83.8754 40.0239 83.6003 40.3765 83.3492L40.3578 83.3946C40.283 82.8657 40.2857 82.3555 40.3471 81.8854L40.3658 81.9255C39.9571 81.6397 39.5725 81.3726 39.2279 81.1321L39.2039 81.1161L39.2145 81.0894C39.5671 80.224 39.861 79.5081 40.0827 78.9632L40.0907 78.9472L40.1094 78.9498C40.5501 79.0246 40.8893 79.0834 41.1244 79.1235C41.2366 79.1448 41.3221 79.1582 41.3862 79.1715C41.453 79.1849 41.485 79.1902 41.485 79.1929Z"
		fill="#263238" />
	<path fill-rule="evenodd" clip-rule="evenodd"
		d="M36.2683 51.0043C36.7037 49.8183 37.294 48.7098 38.0099 47.7054L36.4446 44.6203L40.8493 40.9662L43.5926 43.0737C44.7144 42.5555 45.9111 42.1815 47.1558 41.9705L48.2296 38.685L53.9272 39.2166L54.3759 42.6436C55.5619 43.079 56.6704 43.6694 57.6748 44.3852L60.7599 42.8199L64.414 47.2246L62.3065 49.9679C62.8247 51.0898 63.1987 52.2864 63.4097 53.5312L66.6978 54.605L66.1663 60.3025L62.7392 60.7512C62.3038 61.9372 61.7135 63.0457 60.9977 64.0501L62.5629 67.1353L58.1582 70.7894L55.415 68.6818C54.2931 69.2 53.0964 69.574 51.8517 69.785L50.7779 73.0732L45.0804 72.5416L44.6316 69.1146C43.4456 68.6792 42.3371 68.0888 41.3328 67.373L38.2476 68.9383L34.5935 64.5336L36.701 61.7903C36.1828 60.6684 35.8089 59.4718 35.5979 58.227L32.3097 57.1532L32.8412 51.4557L36.2683 51.0043ZM43.4136 55.0484C43.0984 58.4247 45.5799 61.4164 48.9562 61.7315C52.3325 62.0467 55.3242 59.5653 55.6394 56.1889C55.9546 52.8126 53.4731 49.821 50.0968 49.5058C46.7204 49.1906 43.7288 51.6747 43.4136 55.0484Z"
		fill="#FFE6B7" />
	<path
		d="M134.395 98.983C134.395 99.0204 109.994 99.0498 79.9039 99.0498C49.8003 99.0498 25.4075 99.0204 25.4075 98.983C25.4075 98.9456 49.8029 98.9162 79.9039 98.9162C109.994 98.9189 134.395 98.9483 134.395 98.983Z"
		fill="#263238" />
	<path
		d="M68.8991 17.0943C67.2189 17.8315 66.2413 19.6426 65.8727 21.4429C65.5067 23.2406 65.6269 25.0997 65.4667 26.9294C65.3064 28.7591 64.8069 30.669 63.4713 31.9298C62.2266 33.1051 60.3968 33.5832 59.3364 34.9241C58.5511 35.9204 58.3187 37.3281 58.7461 38.5248C59.1735 39.7215 60.2446 40.6644 61.484 40.9368C60.6453 42.2644 61.0646 44.1181 62.1384 45.264C63.2095 46.41 64.7855 46.9575 66.3374 47.1926C69.0673 47.6093 71.9789 47.1499 74.2841 45.63C76.5893 44.1101 78.2026 41.471 78.1973 38.7118"
		fill="#263238" />
	<path
		d="M61.6202 44.2275C61.6202 44.2275 61.4679 44.0378 61.3237 43.6318C61.1794 43.2284 61.0779 42.59 61.2168 41.8288C61.2863 41.4495 61.4118 41.0435 61.6015 40.6321C61.7992 40.2234 62.0583 39.8121 62.3734 39.4141C62.9985 38.6101 63.8399 37.8702 64.684 37.0768C65.5281 36.2782 66.3027 35.4848 66.9304 34.6995C67.5661 33.9222 68.0443 33.1449 68.3675 32.4611C68.6907 31.7746 68.8643 31.1816 68.9498 30.7649C69.0005 30.5593 69.0139 30.3937 69.0379 30.2841C69.0566 30.1746 69.07 30.1159 69.0753 30.1159C69.0807 30.1159 69.0753 30.1746 69.0646 30.2868C69.0486 30.399 69.0433 30.5646 69.0005 30.7756C68.9284 31.1977 68.7681 31.8013 68.4503 32.5012C68.1324 33.1983 67.6596 33.989 67.0239 34.777C66.3962 35.573 65.6189 36.3743 64.7721 37.1757C63.9227 37.9743 63.0866 38.7062 62.4669 39.4942C62.1544 39.8842 61.8953 40.2875 61.6976 40.6855C61.5053 41.0862 61.3798 41.4815 61.305 41.8528C61.1581 42.5954 61.2436 43.2204 61.3691 43.6238C61.5 44.0218 61.6335 44.2221 61.6202 44.2275Z"
		fill="#455A64" />
	<path
		d="M88.9913 23.1284C88.9913 25.5966 90.1292 27.859 91.155 28.6924C92.6027 29.8704 94.7289 30.4393 96.1313 30.8293C98.172 31.4009 99.8815 33.1852 100.138 35.2901C100.392 37.3923 99.0188 39.6414 96.9647 40.1703C98.2548 41.4871 97.8702 43.7522 96.8097 45.2588C94.7984 48.1142 90.7837 49.212 87.4528 48.1569C84.1219 47.1018 81.5709 44.1502 80.5773 40.8006"
		fill="#263238" />
	<path
		d="M94.0664 47.4409C94.0584 47.4195 94.3923 47.4195 94.8517 47.0963C95.0761 46.936 95.3192 46.6876 95.5088 46.343C95.7038 46.0038 95.8454 45.5657 95.8614 45.0716C95.8748 44.5801 95.7278 44.0405 95.4474 43.533C95.1669 43.0228 94.7529 42.5447 94.248 42.1253C93.2357 41.2732 91.8627 40.7417 90.5325 39.975C89.87 39.5851 89.2557 39.1363 88.7669 38.5887C88.5238 38.3163 88.3128 38.0225 88.1498 37.7099C87.9869 37.3974 87.8747 37.0662 87.8053 36.7376C87.6637 36.0779 87.677 35.4368 87.7198 34.8491C87.7652 34.2588 87.84 33.7139 87.8907 33.2171C88.0003 32.2234 87.9869 31.4087 87.8533 30.8665C87.8159 30.7329 87.7839 30.6154 87.7572 30.5086C87.7278 30.4071 87.6851 30.3243 87.661 30.2548C87.6076 30.1186 87.5809 30.0438 87.5836 30.0438C87.5889 30.0411 87.621 30.1106 87.6851 30.2441C87.7144 30.3109 87.7599 30.3937 87.7946 30.4952C87.8266 30.6021 87.864 30.7196 87.9041 30.8531C88.0564 31.4007 88.0831 32.2261 87.9842 33.2251C87.9388 33.7246 87.8694 34.2695 87.8293 34.8545C87.7919 35.4395 87.7839 36.0699 87.9255 36.7109C88.0617 37.3493 88.3796 37.977 88.8657 38.5006C89.3412 39.0321 89.9475 39.4755 90.6019 39.8575C91.9161 40.6161 93.3025 41.153 94.3308 42.0265C94.8437 42.4565 95.2657 42.948 95.5489 43.4742C95.832 44.0004 95.9763 44.556 95.9576 45.0689C95.9362 45.5791 95.7813 46.0278 95.5756 46.3724C95.3726 46.7223 95.1188 46.9707 94.8838 47.131C94.6514 47.2966 94.4323 47.3554 94.2934 47.4008C94.1439 47.4355 94.0664 47.4462 94.0664 47.4409Z"
		fill="#455A64" />
	<path
		d="M98.8745 39.206C98.8504 39.198 99.0882 39.003 99.1229 38.5196C99.1336 38.2845 99.0882 37.988 98.9333 37.6862C98.781 37.387 98.5353 37.0718 98.1773 36.8501C97.814 36.6284 97.36 36.4895 96.8658 36.4067C96.369 36.3212 95.8267 36.2892 95.2578 36.201C94.1199 36.0247 92.9072 35.576 91.804 34.8334C90.7035 34.0882 89.8327 33.1265 89.2504 32.1329C88.6628 31.1392 88.3556 30.1322 88.2033 29.2801C88.0511 28.4227 88.0591 27.7148 88.0938 27.2314C88.1125 26.9883 88.1339 26.804 88.1579 26.6784C88.1766 26.5529 88.19 26.4861 88.1953 26.4888C88.2113 26.4915 88.1659 26.7559 88.1445 27.2367C88.1258 27.7175 88.1312 28.42 88.2941 29.2641C88.4571 30.1055 88.7723 31.0965 89.3546 32.0714C89.9315 33.0464 90.7916 33.9893 91.8761 34.7239C92.9633 35.4531 94.1573 35.8992 95.2765 36.0808C95.8374 36.1716 96.3796 36.2064 96.8845 36.2999C97.3867 36.388 97.8541 36.5349 98.2281 36.7726C98.6047 37.0104 98.8504 37.3416 99.0027 37.6568C99.1576 37.972 99.1977 38.2818 99.179 38.5249C99.1576 38.7707 99.0695 38.9469 99.0027 39.0565C98.968 39.1099 98.9332 39.1446 98.9119 39.1713C98.8878 39.1954 98.8772 39.206 98.8745 39.206Z"
		fill="#455A64" />
	<path
		d="M70.0983 52.0647C70.4509 48.3759 70.7528 44.4867 70.7528 44.4867C70.7528 44.4867 66.0809 43.2313 65.707 36.9354C65.3491 30.9334 67.6676 17.3774 67.6676 17.3774C74.7782 15.2618 82.6954 17.9143 87.0333 23.8682L83.6837 53.7796C83.2937 57.252 80.0002 59.6828 76.2847 59.2394C72.5317 58.7906 69.7644 55.5799 70.0983 52.0647Z"
		fill="#E8BCAC" />
	<path
		d="M68.3755 28.2144C68.3194 28.6338 68.6266 29.0264 69.062 29.0906C69.4974 29.1573 69.8954 28.8742 69.9515 28.4548C70.0076 28.0355 69.7004 27.6428 69.265 27.576C68.8296 27.5119 68.4316 27.7951 68.3755 28.2144Z"
		fill="#263238" />
	<path
		d="M67.1735 27.1965C67.2617 27.3087 67.9081 26.924 68.7628 27.0095C69.6176 27.0843 70.2026 27.5865 70.3068 27.4903C70.3575 27.4476 70.2747 27.2526 70.0209 27.0255C69.7725 26.8011 69.3318 26.5634 68.7976 26.5127C68.2633 26.4619 67.7959 26.6142 67.5208 26.7905C67.2376 26.9668 67.1308 27.1457 67.1735 27.1965Z"
		fill="#263238" />
	<path
		d="M77.1155 29.2266C77.0594 29.646 77.3666 30.0386 77.802 30.1028C78.2374 30.1695 78.6354 29.8837 78.6915 29.467C78.7476 29.0477 78.4404 28.655 78.005 28.5882C77.5723 28.5241 77.1716 28.8073 77.1155 29.2266Z"
		fill="#263238" />
	<path
		d="M76.0684 28.3851C76.1566 28.4973 76.803 28.1127 77.6577 28.1981C78.5125 28.2729 79.0975 28.7751 79.2016 28.6789C79.2524 28.6362 79.1696 28.4412 78.9158 28.2142C78.6674 27.9898 78.2267 27.752 77.6925 27.7013C77.1582 27.6505 76.6908 27.8028 76.4157 27.9791C76.1325 28.1554 76.0257 28.3344 76.0684 28.3851Z"
		fill="#263238" />
	<path
		d="M72.3394 34.4246C72.3474 34.3765 71.8266 34.2323 70.9745 34.0373C70.7581 33.9919 70.5551 33.9305 70.5337 33.7755C70.499 33.6126 70.6112 33.3855 70.7421 33.1425C70.9985 32.635 71.2683 32.1007 71.5514 31.5425C72.6813 29.264 73.5227 27.3808 73.4292 27.3354C73.3358 27.29 72.3474 29.1011 71.2149 31.3822C70.9424 31.9458 70.6806 32.48 70.4322 32.9956C70.3254 33.236 70.1544 33.5031 70.2346 33.8423C70.2773 34.0106 70.4269 34.1468 70.5631 34.1976C70.6993 34.2537 70.8222 34.2697 70.9291 34.2857C71.7945 34.4166 72.3314 34.4727 72.3394 34.4246Z"
		fill="#263238" />
	<path
		d="M70.7528 44.487C70.7528 44.487 74.8958 45.1654 79.2711 43.09C79.2711 43.09 76.8377 47.1501 70.6914 45.9588L70.7528 44.487Z"
		fill="#AA6550" />
	<path
		d="M72.4997 36.5214C72.847 36.1448 73.4079 35.9739 73.9368 36.086C74.3054 36.1635 74.6607 36.3772 74.8583 36.7031C75.0533 37.0263 75.0587 37.4617 74.8263 37.7288C74.5645 38.0306 74.073 38.0573 73.6777 37.9024C73.2797 37.7475 72.9565 37.443 72.6493 37.1411C72.5638 37.0583 72.4784 36.9702 72.4303 36.8633C72.3822 36.7565 72.3822 36.6229 72.4623 36.5455"
		fill="#AA6550" />
	<path
		d="M74.7996 35.2634C74.6607 35.242 74.5672 36.1689 73.7098 36.7512C72.8524 37.3335 71.8721 37.1332 71.8507 37.2614C71.832 37.3175 72.0537 37.4644 72.4704 37.5151C72.8791 37.5686 73.4908 37.4964 74.017 37.1412C74.5405 36.7859 74.8023 36.2651 74.8718 35.8884C74.9439 35.5038 74.8637 35.2634 74.7996 35.2634Z"
		fill="#263238" />
	<path
		d="M84.0819 30.4821C84.7577 30.418 85.4548 30.5061 86.0638 30.8053C86.6729 31.1045 87.183 31.6307 87.3941 32.2744C87.6078 32.9208 87.5089 33.642 87.2151 34.2564C86.9239 34.8708 86.4511 35.3836 85.9223 35.811C85.543 36.1182 85.1183 36.3906 84.6401 36.4921C84.162 36.591 83.6198 36.4921 83.2805 36.1422"
		fill="#E8BCAC" />
	<path
		d="M84.0524 34.5369C83.975 34.553 84.2234 34.983 84.8458 34.8788C85.1449 34.8308 85.4548 34.6011 85.6578 34.2992C85.8635 33.9894 86.0104 33.6448 86.0958 33.2308C86.1787 32.8221 86.1279 32.3733 85.9302 32.0368C85.7433 31.6975 85.4067 31.4732 85.1102 31.4358C84.4878 31.361 84.2528 31.7723 84.3222 31.7937C84.3676 31.8498 84.6321 31.6495 85.0301 31.7883C85.4147 31.8979 85.7459 32.4748 85.5937 33.1373C85.4521 33.8131 85.1289 34.4114 84.7496 34.5316C84.3569 34.6865 84.1005 34.4862 84.0524 34.5369Z"
		fill="#AA6550" />
	<path
		d="M70.662 20.0299C69.7485 22.1535 67.7932 23.7962 65.5468 24.3385C65.4132 22.8079 65.3251 21.2587 65.5761 19.7441C65.8272 18.2296 66.4443 16.7338 67.5474 15.668C68.6533 14.6022 70.2907 14.0279 71.7758 14.4232"
		fill="#263238" />
	<path
		d="M71.0894 17.2198C70.3174 19.1591 70.6353 21.491 71.896 23.1551C73.1568 24.8192 75.3151 25.7541 77.3906 25.5351C77.7966 25.4923 78.224 25.4122 78.6033 25.5591C79.0119 25.7167 79.2791 26.0987 79.5221 26.462C80.5104 27.9391 81.5549 29.4723 83.1095 30.3271C84.6667 31.1818 86.8944 31.099 87.9362 29.6593C88.4437 28.9595 88.5906 28.07 88.7082 27.2125C89.1035 24.3357 89.2637 21.2452 87.8935 18.6863C86.8757 16.7844 85.0861 15.3687 83.1041 14.5113C81.1248 13.6539 78.9558 13.312 76.8029 13.1811C75.5502 13.1036 74.2547 13.1036 73.0954 13.5764C71.9334 14.0519 70.9318 15.1043 70.865 16.3571"
		fill="#263238" />
	<path
		d="M88.4357 28.0247C88.4303 28.0247 88.4063 27.9526 88.3609 27.8137C88.3181 27.6721 88.246 27.4691 88.1525 27.2073C87.9575 26.6864 87.6317 25.9465 87.0974 25.1078C86.5605 24.2744 85.8019 23.3475 84.7816 22.5221C83.7639 21.6887 82.471 21.021 81.0714 20.4333C79.669 19.8457 78.3014 19.3622 77.1021 18.8013C75.9027 18.2457 74.8797 17.6153 74.1077 16.9742C73.3384 16.3305 72.8202 15.6947 72.5211 15.2219C72.3715 14.9842 72.2646 14.7972 72.2032 14.661C72.1364 14.5301 72.1044 14.458 72.1097 14.458C72.115 14.4553 72.1551 14.5221 72.2272 14.6503C72.2967 14.7812 72.4115 14.9628 72.5638 15.1952C72.8737 15.6547 73.3972 16.2744 74.1691 16.9021C74.9411 17.5271 75.9588 18.1442 77.1555 18.6917C78.3495 19.2447 79.7198 19.7228 81.1248 20.3131C82.5271 20.9008 83.836 21.5819 84.859 22.4287C85.8874 23.2674 86.646 24.2103 87.1776 25.057C87.7064 25.9091 88.0216 26.6624 88.2006 27.1886C88.2888 27.4531 88.3529 27.6614 88.3876 27.8056C88.4223 27.9499 88.441 28.0247 88.4357 28.0247Z"
		fill="#455A64" />
	<path
		d="M86.5098 27.6852C86.5045 27.6879 86.4698 27.6264 86.4057 27.5089C86.3389 27.394 86.2374 27.2231 86.0878 27.0174C85.794 26.6061 85.2918 26.0558 84.5492 25.5323C83.812 25.0007 82.837 24.5226 81.7285 24.0525C81.1756 23.8147 80.5906 23.569 79.9976 23.2858C79.4046 23.0027 78.801 22.6848 78.2026 22.3269C77.0033 21.611 75.9428 20.791 75.0908 19.9282C74.236 19.0681 73.5949 18.1733 73.1488 17.3746C72.6974 16.576 72.4437 15.8761 72.2941 15.3873C72.2246 15.1416 72.1739 14.9492 72.1472 14.8184C72.1178 14.6875 72.1071 14.618 72.1098 14.6153C72.1151 14.6153 72.1365 14.6821 72.1712 14.8103C72.2059 14.9412 72.2647 15.1282 72.3422 15.3713C72.5051 15.8521 72.7722 16.5412 73.229 17.3265C73.6831 18.1119 74.3268 18.9907 75.1762 19.8401C76.0257 20.6895 77.0781 21.5015 78.2694 22.212C78.8651 22.5673 79.4634 22.8825 80.0537 23.1683C80.644 23.4515 81.2263 23.6972 81.7793 23.9403C82.8851 24.4184 83.8681 24.9099 84.6053 25.4575C85.3479 25.997 85.8474 26.5633 86.1305 26.988C86.2748 27.1991 86.3709 27.3753 86.4297 27.4955C86.4858 27.6184 86.5125 27.6825 86.5098 27.6852Z"
		fill="#455A64" />
	<path
		d="M65.5682 26.7984C65.5628 26.8011 65.5441 26.7504 65.5067 26.6569C65.472 26.5607 65.4186 26.4218 65.3598 26.2375C65.261 25.8662 65.1221 25.3186 65.0927 24.6241C65.0633 23.935 65.1168 23.0989 65.3678 22.2148C65.6189 21.336 66.033 20.3931 66.6927 19.5623C67.0106 19.1376 67.3899 18.7797 67.7665 18.4538C68.1538 18.1386 68.5518 17.8688 68.9311 17.6204C69.6951 17.1236 70.3762 16.6695 70.8597 16.186C71.3512 15.7106 71.6504 15.2351 71.8026 14.8852C71.9575 14.5353 71.9923 14.3243 72.0056 14.3269C72.011 14.3269 72.0029 14.3803 71.9816 14.4792C71.9602 14.578 71.9201 14.7249 71.848 14.9039C71.7064 15.2645 71.4153 15.7586 70.9238 16.2501C70.4403 16.7496 69.7538 17.2198 68.9979 17.7193C68.6213 17.973 68.226 18.2401 67.8467 18.5527C67.478 18.8732 67.1068 19.2258 66.7942 19.6425C66.1451 20.4572 65.7338 21.3814 65.48 22.2468C65.2263 23.1149 65.1648 23.9377 65.1809 24.6188C65.1996 25.3053 65.3224 25.8475 65.4052 26.2215C65.456 26.3951 65.4961 26.5367 65.5281 26.6462C65.5602 26.745 65.5735 26.7958 65.5682 26.7984Z"
		fill="#455A64" />
	<path
		d="M80.8763 39.1575C79.4285 39.1575 77.9781 38.6633 76.907 37.7017L77.0779 37.5121C78.9344 39.1815 81.9955 39.3765 84.0496 37.9528C86.101 36.5291 86.9932 33.5935 86.0797 31.2696L86.3147 31.1761C87.271 33.6042 86.3388 36.6733 84.1938 38.1612C83.2296 38.8289 82.0543 39.1575 80.8763 39.1575Z"
		fill="#7A76FF" />
	<path
		d="M78.8115 38.0702C78.8115 38.7487 78.2613 39.3016 77.5802 39.3016C76.9017 39.3016 76.3488 38.7514 76.3488 38.0702C76.3488 37.3891 76.899 36.8388 77.5802 36.8388C78.2613 36.8388 78.8115 37.3917 78.8115 38.0702Z"
		fill="#7A76FF" />
	<path
		d="M91.1212 32.3111C91.3982 30.0517 89.7912 27.9955 87.5317 27.7185C85.2723 27.4414 83.2161 29.0485 82.9391 31.3079C82.6621 33.5674 84.2691 35.6236 86.5286 35.9006C88.788 36.1776 90.8442 34.5705 91.1212 32.3111Z"
		fill="#7A76FF" />
	<path
		d="M86.3656 31.2405C86.3389 31.2378 86.3496 30.8639 86.3896 30.1961C86.403 29.8569 86.419 29.4482 86.4377 28.9754C86.4431 28.4999 86.4591 27.9577 86.4404 27.3594C86.4404 27.0602 86.419 26.7477 86.403 26.4218C86.3923 26.0959 86.3549 25.7593 86.3202 25.4094C86.2935 25.0595 86.2267 24.7043 86.1813 24.333C86.1466 24.1487 86.1118 23.9643 86.0771 23.7747C86.0451 23.585 86.005 23.3954 85.9543 23.2057C85.6043 21.6805 84.9472 20.0458 83.796 18.6622C82.6474 17.2758 81.1435 16.3463 79.6878 15.7827C78.2267 15.211 76.8216 14.9359 75.641 14.765C74.4577 14.5994 73.4881 14.5486 72.8176 14.5032C72.1472 14.4738 71.7759 14.4444 71.7759 14.4177C71.7759 14.391 72.1472 14.367 72.8203 14.3483C73.4934 14.3483 74.4711 14.3563 75.6731 14.4872C76.8724 14.6234 78.3068 14.8718 79.816 15.4408C81.3198 16.0017 82.8958 16.958 84.0978 18.4084C85.2998 19.8535 85.9703 21.5603 86.3068 23.1256C86.3549 23.3206 86.395 23.5156 86.4244 23.7079C86.4564 23.9002 86.4912 24.0899 86.5205 24.2795C86.5606 24.6562 86.622 25.0221 86.6434 25.3774C86.6701 25.7326 86.6995 26.0745 86.7022 26.4058C86.7129 26.737 86.7235 27.0522 86.7155 27.354C86.7155 27.9577 86.6808 28.5026 86.6541 28.9807C86.614 29.4589 86.5766 29.8702 86.5392 30.2041C86.4537 30.8772 86.3923 31.2432 86.3656 31.2405Z"
		fill="#7A76FF" />
	<g opacity="0.4">
		<path opacity="0.4"
			d="M89.9823 31.8144C89.9823 33.3823 88.7109 34.6511 87.1456 34.6511C85.5776 34.6511 84.3088 33.3796 84.3088 31.8144C84.3088 30.2464 85.5803 28.9776 87.1456 28.9776C88.7109 28.9776 89.9823 30.2464 89.9823 31.8144Z"
			fill="#272443" />
	</g>
	<path
		d="M86.2106 29.1676C86.208 29.1622 86.2534 29.1409 86.3362 29.1008C86.4217 29.0634 86.5525 29.018 86.7288 28.9833C87.0734 28.9218 87.629 28.9192 88.2006 29.2343C88.4811 29.3893 88.7616 29.6297 88.9566 29.9582C89.1569 30.2841 89.2637 30.6928 89.2611 31.1228C89.2584 31.5502 89.1248 32.007 88.8417 32.3836C88.5586 32.7602 88.1258 33.0354 87.6424 33.1502C87.1616 33.2678 86.6487 33.225 86.224 33.022C85.7966 32.819 85.4761 32.4691 85.2784 32.0898C85.0807 31.7078 85.006 31.2911 85.0353 30.9118C85.0701 30.5298 85.2143 30.196 85.3853 29.9235C85.7325 29.3759 86.2133 29.0928 86.5606 29.0073C86.7342 28.9592 86.8757 28.9565 86.9692 28.9619C87.0627 28.9699 87.1108 28.9779 87.1108 28.9833C87.1108 29.002 86.9105 28.9539 86.5739 29.058C86.2427 29.1542 85.7913 29.44 85.4654 29.9742C85.3051 30.2387 85.1742 30.5619 85.1449 30.9225C85.1208 31.2831 85.1956 31.6758 85.3853 32.0364C85.5749 32.3943 85.8794 32.7202 86.2774 32.9072C86.6754 33.0941 87.1535 33.1369 87.6103 33.0247C88.0644 32.9152 88.4731 32.6587 88.7375 32.3061C89.0046 31.9562 89.1302 31.5262 89.1382 31.1228C89.1462 30.7168 89.0474 30.3268 88.8631 30.017C88.6841 29.7045 88.4223 29.4694 88.1552 29.3171C87.6157 29.002 87.0788 28.9913 86.7368 29.034C86.3923 29.0874 86.216 29.1836 86.2106 29.1676Z"
		fill="#263238" />
	<path
		d="M87.1188 34.6086C87.0841 34.6139 87.0039 34.3174 86.9879 33.9381C86.9719 33.5615 87.0253 33.257 87.0627 33.2596C87.1001 33.2623 87.1054 33.5642 87.1215 33.9328C87.1375 34.3014 87.1562 34.6032 87.1188 34.6086Z"
		fill="#263238" />
	<path
		d="M88.6841 34.0585C88.6494 34.0718 88.5185 33.8154 88.3903 33.4842C88.2621 33.153 88.1846 32.8752 88.2194 32.8618C88.2541 32.8485 88.385 33.1049 88.5132 33.4361C88.6414 33.7673 88.7189 34.0451 88.6841 34.0585Z"
		fill="#263238" />
	<path
		d="M89.7392 32.8245C89.7152 32.8512 89.5202 32.715 89.3039 32.52C89.0875 32.325 88.9352 32.1434 88.9593 32.1167C88.9833 32.09 89.1783 32.2262 89.3947 32.4212C89.6084 32.6162 89.7633 32.7978 89.7392 32.8245Z"
		fill="#263238" />
	<path
		d="M89.814 31.1016C89.8006 31.1363 89.6617 31.1176 89.4988 31.0588C89.3385 31.0001 89.2157 30.9253 89.229 30.8906C89.2424 30.8558 89.3813 30.8745 89.5442 30.9333C89.7045 30.9921 89.8274 31.0668 89.814 31.1016Z"
		fill="#263238" />
	<path
		d="M85.2677 33.973C85.233 33.9623 85.3078 33.6605 85.4814 33.3213C85.655 32.982 85.8553 32.747 85.8847 32.7683C85.9168 32.7897 85.7672 33.0515 85.5989 33.3827C85.428 33.7112 85.3024 33.9837 85.2677 33.973Z"
		fill="#263238" />
	<path
		d="M84.421 32.5279C84.3942 32.5012 84.5572 32.3009 84.7816 32.0818C85.0059 31.8601 85.2089 31.7052 85.2357 31.7292C85.2624 31.7559 85.0994 31.9563 84.8751 32.1753C84.6507 32.397 84.4477 32.5546 84.421 32.5279Z"
		fill="#263238" />
	<path
		d="M85.0834 30.5619C85.0941 30.5966 84.9765 30.6581 84.827 30.6981C84.6747 30.7382 84.5465 30.7435 84.5358 30.7061C84.5278 30.6714 84.6426 30.61 84.7922 30.5699C84.9418 30.5298 85.0727 30.5272 85.0834 30.5619Z"
		fill="#263238" />
	<path
		d="M106.642 53.1119C106.375 51.6027 105.785 50.7826 105.347 50.3526C104.933 49.9493 104.535 49.5299 104.04 49.2307C103.442 48.8648 102.627 48.4134 102.104 48.3012C101.46 48.1623 101.303 47.3235 101.842 47.0858C102.382 46.8481 104.166 47.1873 105.884 48.4507C107.598 49.7142 106.733 46.5168 106.436 45.3442C106.14 44.1743 105.397 40.5148 105.689 40.1489C106.113 39.612 106.784 39.9779 107.051 41.1505C107.323 42.3392 108.37 45.7983 108.985 45.63C109.588 45.4644 108.004 39.5238 108.004 39.5238C108.004 39.5238 107.46 38.3031 108.162 38.0841C109.428 37.6888 110.646 44.1128 110.748 44.7272C110.817 45.1546 111.493 44.9943 111.391 44.5402C111.29 44.0728 109.671 38.6504 110.956 38.2337C111.942 37.9158 112.008 43.5118 112.97 44.4654C113.934 45.419 112.484 40.2156 113.44 39.9512C113.795 39.8524 114.076 39.8283 114.474 42.9242C114.688 44.5883 114.549 46.8828 115.198 50.0588"
		fill="#E8BCAC" />
	<path
		d="M103.439 65.0565L109.278 73.4358L106.474 51.8264L114.821 48.5355C114.821 48.5355 125.356 88.9204 111.226 89.4893C111.226 89.4893 101.449 89.2222 94.1519 72.2953L103.439 65.0565Z"
		fill="#E8BCAC" />
	<path
		d="M112.804 48.3754C112.82 48.3967 112.623 48.5276 112.364 48.8161C112.11 49.0992 111.803 49.564 111.68 50.1623L111.648 50.3199L111.533 50.2051C111.402 50.0742 111.26 49.9433 111.1 49.8258C110.494 49.377 109.815 49.1874 109.327 49.1366C108.832 49.0832 108.523 49.1366 108.517 49.1073C108.512 49.0886 108.819 48.9897 109.335 49.0111C109.845 49.0298 110.566 49.2088 111.204 49.6815C111.373 49.8044 111.522 49.9433 111.656 50.0822L111.506 50.125C111.648 49.4866 111.992 49.0111 112.281 48.736C112.575 48.4582 112.796 48.3593 112.804 48.3754Z"
		fill="#AA6550" />
	<path
		d="M99.2457 82.5265L92.1806 73.5622L90.3455 82.7295C89.6029 86.4424 89.9849 90.2941 91.446 93.788L92.3569 95.9676H59.6382L60.4555 93.0561C60.9176 89.4874 60.2979 85.7612 60.4074 80.6513L59.4993 74.8897L54.5497 95.9703H40C40 95.9703 47.9867 63.2516 52.9897 56.7768C59.2963 48.6138 70.3173 49.6903 70.3173 49.6903L77.07 60.2733L83.6623 50.732C83.6623 50.732 94.9933 48.3226 103.84 63.5534L108.573 71.6657L106.375 54.9631L116.619 52.5991C116.619 52.5991 120.318 69.0079 120.075 77.7959C119.859 85.6437 116.517 89.7626 111.888 90.1659C104.612 90.8043 99.2457 82.5265 99.2457 82.5265Z"
		fill="#7A76FF" />
	<path
		d="M70.3175 49.6928L70.4323 48.3759C70.4323 48.3759 75.4327 49.4871 77.1101 58.219C77.1101 58.219 78.7929 50.1602 84.178 49.3482L85.0861 51.6694L81.7793 60.2811L75.9696 61.98L70.3201 60.2811L67.7505 55.1766L70.3175 49.6928Z"
		fill="#7A76FF" />
	<path
		d="M56.3794 53.1652C56.3848 53.1652 56.3928 53.2427 56.4061 53.3923C56.4168 53.5526 56.4329 53.7689 56.4542 54.0414C56.4916 54.605 56.5504 55.4223 56.6305 56.4294C56.7908 58.4461 57.0686 61.224 57.504 64.2798C57.9421 67.3356 58.4549 70.0815 58.8663 72.0608C59.0719 73.0518 59.2429 73.8505 59.3658 74.4034C59.4245 74.6705 59.4699 74.8842 59.502 75.0391C59.5314 75.1861 59.5447 75.2635 59.5421 75.2635C59.5367 75.2635 59.5153 75.1887 59.4779 75.0445C59.4379 74.8896 59.3845 74.6785 59.3177 74.4141C59.1788 73.8665 58.9918 73.0679 58.7754 72.0795C58.3401 70.1029 57.8112 67.357 57.3731 64.2985C56.9377 61.2401 56.6759 58.4567 56.537 56.4374C56.4676 55.4277 56.4222 54.6103 56.4035 54.044C56.3928 53.7716 56.3875 53.5526 56.3821 53.3923C56.3768 53.2427 56.3768 53.1652 56.3794 53.1652Z"
		fill="#263238" />
	<path
		d="M84.9632 50.4221C84.9659 50.4248 84.9418 50.4675 84.8911 50.5476C84.8323 50.6384 84.7575 50.7533 84.6667 50.8949C84.461 51.2101 84.1779 51.6401 83.8333 52.1663C83.1335 53.2428 82.1879 54.744 81.2076 56.4375C81.1675 56.5043 81.1301 56.571 81.0954 56.6325L81.0313 56.742L80.9779 56.6271C80.7776 56.1971 80.5719 55.7777 80.2594 55.4705C79.9522 55.166 79.5355 54.9817 79.1455 55.0538C78.7555 55.1153 78.4456 55.3824 78.2266 55.6575C78.0049 55.938 77.8633 56.2452 77.7672 56.539C77.5775 57.124 77.468 57.6181 77.3291 57.9387C77.265 58.1016 77.1982 58.2191 77.1555 58.2993C77.1074 58.3767 77.0807 58.4168 77.0754 58.4141C77.0647 58.4088 77.1662 58.2458 77.2837 57.92C77.4066 57.5967 77.5027 57.1079 77.6817 56.5096C77.7725 56.2104 77.9141 55.8872 78.1411 55.5907C78.3655 55.3022 78.6914 55.0084 79.1241 54.9363C79.5595 54.8508 80.0216 55.0565 80.3475 55.3797C80.6814 55.7056 80.8924 56.141 81.0954 56.571L80.9779 56.5657C81.0126 56.5043 81.0527 56.4375 81.0901 56.3707C82.073 54.6745 83.032 53.1787 83.7532 52.1129C84.1138 51.5814 84.4103 51.154 84.6213 50.8628C84.7201 50.7266 84.8029 50.6171 84.8671 50.5289C84.9285 50.4568 84.9605 50.4194 84.9632 50.4221Z"
		fill="#263238" />
	<path
		d="M80.2006 55.3665C80.2033 55.3692 80.1846 55.4065 80.1472 55.4787C80.0991 55.5641 80.0403 55.6656 79.9709 55.7885C79.8026 56.0717 79.5756 56.4536 79.3004 56.9131C79.0093 57.3912 78.6674 57.9521 78.2907 58.5745C78.0984 58.887 77.8981 59.2129 77.6897 59.5521C77.5829 59.7231 77.476 59.8967 77.3665 60.0703C77.3345 60.1158 77.2971 60.1612 77.241 60.1986C77.1849 60.236 77.1021 60.2493 77.038 60.2253C76.9044 60.1825 76.8376 60.0623 76.7842 59.9822C75.844 58.5692 75.1468 57.2069 74.5966 56.248C74.3268 55.7645 74.1051 55.3772 73.9475 55.11C73.7926 54.8429 73.7044 54.696 73.7124 54.6907C73.7151 54.688 73.7418 54.7227 73.7899 54.7895C73.8353 54.8563 73.9074 54.9551 73.9902 55.086C74.1612 55.3451 74.3962 55.7271 74.6767 56.2025C75.2457 57.1508 75.9588 58.5077 76.8911 59.9101C76.9498 60.0009 77.0033 60.0784 77.0754 60.0997C77.1395 60.1238 77.2036 60.073 77.2597 59.9956C77.3665 59.8219 77.4734 59.651 77.5802 59.4854C77.7912 59.1488 77.9942 58.8229 78.1866 58.5104C78.5739 57.896 78.9238 57.3378 79.2203 56.865C79.5114 56.4109 79.7492 56.0396 79.9281 55.7618C80.0083 55.6443 80.0724 55.5454 80.1258 55.4653C80.1712 55.3985 80.1979 55.3638 80.2006 55.3665Z"
		fill="#263238" />
	<path
		d="M98.3161 56.1409C98.3215 56.1436 98.2948 56.2023 98.2414 56.3145C98.1799 56.4374 98.0998 56.6003 98.0009 56.8033C97.7873 57.2254 97.4881 57.8397 97.1302 58.6037C96.7696 59.3676 96.3636 60.2892 95.9362 61.3202C95.5141 62.3539 95.0734 63.4999 94.654 64.7179C94.2373 65.9386 93.8794 67.1112 93.5749 68.1877C93.2784 69.2642 93.03 70.2391 92.8457 71.0618C92.656 71.8845 92.5145 72.555 92.4236 73.0171C92.3782 73.2388 92.3408 73.4151 92.3141 73.5487C92.2874 73.6715 92.2714 73.733 92.266 73.733C92.2607 73.733 92.2687 73.6662 92.2874 73.5433C92.3088 73.4071 92.3382 73.2281 92.3729 73.0064C92.4477 72.539 92.5759 71.8658 92.7549 71.0405C92.9285 70.2124 93.1662 69.2321 93.4574 68.153C93.7539 67.0738 94.1118 65.8959 94.5285 64.6752C94.9505 63.4545 95.3939 62.3085 95.824 61.2748C96.2594 60.2438 96.6734 59.3249 97.0447 58.5663C97.4133 57.805 97.7258 57.196 97.9555 56.782C98.0651 56.5843 98.1532 56.424 98.2173 56.3038C98.2787 56.1943 98.3108 56.1382 98.3161 56.1409Z"
		fill="#263238" />
	<path
		d="M83.3498 89.335C83.3498 89.3403 83.2804 89.3377 83.1442 89.327C82.9973 89.3163 82.8049 89.3003 82.5592 89.2816C82.3054 89.2629 81.9956 89.2335 81.6377 89.1881C81.2797 89.1453 80.8684 89.1026 80.4196 89.0332C79.5168 88.9103 78.4483 88.7233 77.2704 88.4802C76.0951 88.2265 74.8076 87.9113 73.4747 87.5186C72.1445 87.1206 70.8944 86.6826 69.7698 86.2498C68.6479 85.8091 67.6516 85.3817 66.8316 84.9917C66.4175 84.8048 66.0516 84.6151 65.7257 84.4548C65.3998 84.2972 65.1247 84.1503 64.903 84.0275C64.6893 83.9099 64.5184 83.8164 64.3875 83.747C64.2699 83.6829 64.2112 83.6455 64.2112 83.6401C64.2139 83.6348 64.278 83.6642 64.3982 83.7229C64.529 83.7871 64.7053 83.8725 64.9244 83.982C65.1514 84.0969 65.4292 84.2358 65.7578 84.3881C66.0836 84.5403 66.4523 84.7246 66.869 84.9063C67.6943 85.2856 68.6933 85.7023 69.8125 86.135C70.9371 86.5597 72.1845 86.9924 73.5121 87.3904C74.8423 87.7831 76.1218 88.1009 77.2944 88.36C78.4697 88.6111 79.5328 88.8061 80.4303 88.9397C80.879 89.0145 81.2877 89.0625 81.643 89.1133C82.0009 89.164 82.3081 89.2014 82.5619 89.2281C82.8049 89.2575 82.9973 89.2816 83.1442 89.3003C83.2804 89.319 83.3498 89.3297 83.3498 89.335Z"
		fill="#263238" />
	<path
		d="M81.9049 89.9068C81.9049 89.9121 81.8595 89.9228 81.7713 89.9415C81.6671 89.9602 81.5389 89.9869 81.3813 90.0163C81.0421 90.0804 80.5479 90.1579 79.9362 90.2407C78.7129 90.4089 77.014 90.5826 75.1335 90.6493C73.2504 90.7134 71.5435 90.66 70.3121 90.5746C69.6978 90.5318 69.1983 90.4891 68.8564 90.4517C68.6961 90.433 68.5679 90.417 68.4611 90.4063C68.3702 90.3929 68.3248 90.3849 68.3248 90.3822C68.3248 90.3769 68.3729 90.3769 68.4637 90.3796C68.5679 90.3849 68.7015 90.3929 68.8591 90.4009C69.2036 90.425 69.7005 90.4544 70.3148 90.4837C71.5462 90.5425 73.2477 90.5826 75.1255 90.5185C77.0033 90.4517 78.6995 90.2941 79.9229 90.1498C80.5346 90.0777 81.0287 90.0136 81.3706 89.9682C81.5309 89.9495 81.6591 89.9308 81.766 89.9201C81.8541 89.9041 81.9022 89.9014 81.9049 89.9068Z"
		fill="#263238" />
	<path
		d="M93.4815 75.2154C93.4762 75.2154 93.4895 75.1486 93.5189 75.0231C93.5536 74.8869 93.599 74.7052 93.6551 74.4782C93.778 73.992 93.9516 73.3136 94.1626 72.4802C94.5927 70.792 95.1616 68.4548 95.8615 65.8905C96.2141 64.6083 96.5747 63.393 96.9273 62.2951C97.2825 61.2 97.6244 60.2197 97.9396 59.405C98.0892 58.9963 98.2441 58.633 98.375 58.3125C98.5032 57.9919 98.6234 57.7168 98.7249 57.4951C98.8211 57.2814 98.8986 57.1131 98.9573 56.9849C99.0107 56.8701 99.0428 56.8086 99.0455 56.8113C99.0508 56.814 99.0268 56.8781 98.9814 56.9956C98.9279 57.1265 98.8585 57.3001 98.773 57.5165C98.6795 57.7409 98.5673 58.016 98.4445 58.3392C98.3216 58.6624 98.1747 59.0257 98.0304 59.437C97.7259 60.2517 97.3974 61.2347 97.0475 62.3299C96.7056 63.4277 96.3476 64.6431 95.995 65.9225C95.2952 68.4841 94.7102 70.8187 94.2588 72.5015C94.0344 73.3429 93.8474 74.0214 93.7112 74.4915C93.6444 74.7159 93.591 74.8949 93.5509 75.0284C93.5082 75.154 93.4868 75.2181 93.4815 75.2154Z"
		fill="#263238" />
	<path
		d="M59.3284 74.7777C59.3257 74.7804 59.2777 74.7243 59.1895 74.6175C59.104 74.5079 58.9678 74.353 58.8155 74.134C58.5004 73.7093 58.081 73.0602 57.6483 72.2161C57.2129 71.372 56.7855 70.3223 56.4249 69.1203C56.0616 67.9183 55.7758 66.564 55.5728 65.1323C55.1828 62.2608 55.1187 59.6404 55.0012 57.7519C54.9478 56.8064 54.8997 56.0424 54.8596 55.5162C54.8409 55.2624 54.8275 55.0594 54.8142 54.9072C54.8062 54.7683 54.8035 54.6935 54.8062 54.6935C54.8088 54.6935 54.8222 54.7656 54.8409 54.9045C54.8569 55.0434 54.8836 55.2464 54.9104 55.5108C54.9664 56.0371 55.0306 56.801 55.0947 57.7466C55.2362 59.6351 55.3164 62.2528 55.7037 65.1136C55.9067 66.54 56.1872 67.8889 56.5397 69.0855C56.8923 70.2822 57.309 71.332 57.7311 72.176C58.1504 73.0228 58.5538 73.6746 58.8556 74.1073C58.9999 74.329 59.1307 74.4892 59.2082 74.6041C59.291 74.7136 59.3337 74.7751 59.3284 74.7777Z"
		fill="#263238" />
	<path
		d="M58.0864 68.8954C58.0944 68.9354 57.7071 69.0182 57.2957 69.2613C56.8817 69.499 56.6199 69.7955 56.5905 69.7715C56.5611 69.7528 56.7909 69.4029 57.2289 69.1465C57.6643 68.89 58.0837 68.8633 58.0864 68.8954Z"
		fill="#263238" />
	<path
		d="M57.8379 65.4658C57.8433 65.5059 57.3571 65.5486 56.8416 65.8238C56.3207 66.0935 56.0109 66.4702 55.9815 66.4435C55.9521 66.4301 56.2299 65.9947 56.7802 65.7089C57.3251 65.4151 57.8433 65.4338 57.8379 65.4658Z"
		fill="#263238" />
	<path
		d="M57.0873 62.3299C57.09 62.37 56.7053 62.3887 56.2966 62.597C55.8826 62.7974 55.6369 63.0912 55.6048 63.0672C55.5754 63.0511 55.7918 62.6985 56.2379 62.4795C56.6786 62.2551 57.0926 62.2952 57.0873 62.3299Z"
		fill="#263238" />
	<path
		d="M56.7214 59.0925C56.7267 59.1299 56.3875 59.1967 56.0028 59.3623C55.6155 59.5252 55.335 59.7255 55.311 59.6962C55.287 59.6721 55.5434 59.413 55.9521 59.2421C56.3554 59.0658 56.7214 59.0578 56.7214 59.0925Z"
		fill="#263238" />
	<path
		d="M56.5103 56.4747C56.5157 56.5148 56.1711 56.5762 55.7891 56.7579C55.4045 56.9368 55.1374 57.1612 55.1107 57.1318C55.0839 57.1104 55.3243 56.8273 55.733 56.6377C56.139 56.4453 56.5103 56.44 56.5103 56.4747Z"
		fill="#263238" />
	<path
		d="M94.1679 71.2139C94.1359 71.2353 93.9622 71.0029 93.6444 70.8774C93.3292 70.7438 93.0407 70.7919 93.0327 70.7518C93.0167 70.7198 93.3319 70.6049 93.6925 70.7545C94.0557 70.9014 94.2026 71.2032 94.1679 71.2139Z"
		fill="#263238" />
	<path
		d="M95.1616 68.5403C95.1269 68.5563 94.988 68.1583 94.574 67.8965C94.1653 67.6241 93.7459 67.6641 93.7459 67.6241C93.7432 67.608 93.8447 67.5733 94.0157 67.5786C94.1866 67.584 94.4244 67.6428 94.6461 67.7843C94.8678 67.9286 95.0174 68.1209 95.0922 68.2731C95.1669 68.4281 95.1776 68.5349 95.1616 68.5403Z"
		fill="#263238" />
	<path
		d="M95.9068 65.5995C95.8748 65.6235 95.6611 65.2923 95.2311 65.1293C94.8063 64.9557 94.4244 65.0492 94.4164 65.0091C94.411 64.9931 94.5018 64.9477 94.6594 64.9237C94.817 64.8996 95.0467 64.9156 95.2791 65.0065C95.5088 65.0973 95.6852 65.2442 95.7867 65.3697C95.8882 65.498 95.9202 65.5941 95.9068 65.5995Z"
		fill="#263238" />
	<path
		d="M96.7857 62.7763C96.751 62.795 96.6121 62.5332 96.3049 62.3756C96.0004 62.21 95.7066 62.242 95.7012 62.2046C95.6986 62.1886 95.7707 62.1566 95.8936 62.1485C96.0191 62.1405 96.1954 62.1699 96.3664 62.2581C96.5373 62.3489 96.6602 62.4798 96.7243 62.5866C96.7857 62.6908 96.7991 62.7682 96.7857 62.7763Z"
		fill="#263238" />
	<path
		d="M97.8113 60.1821C97.7766 60.2008 97.635 59.883 97.2691 59.7227C96.9085 59.5491 96.5746 59.6452 96.5666 59.6078C96.5612 59.5945 96.636 59.5437 96.7776 59.5197C96.9191 59.4956 97.1248 59.509 97.3252 59.6025C97.5255 59.696 97.6697 59.8429 97.7418 59.9658C97.814 60.086 97.8247 60.1768 97.8113 60.1821Z"
		fill="#263238" />
	<path
		d="M81.0206 56.4747C81.0233 56.4773 81.0046 56.5201 80.9645 56.5975C80.9138 56.6884 80.8524 56.8005 80.7776 56.9394C80.612 57.2333 80.3662 57.658 80.0564 58.1789C79.7465 58.6997 79.3725 59.3141 78.9452 59.9899C78.7315 60.3264 78.5018 60.679 78.2587 61.0396C78.0129 61.4002 77.7592 61.7715 77.4493 62.1268C77.3692 62.2149 77.2944 62.3004 77.1742 62.3725C77.1448 62.3939 77.1021 62.3992 77.0567 62.3966C77.0139 62.3939 76.9899 62.3752 76.9552 62.3645C76.8991 62.3325 76.8483 62.3004 76.8029 62.2603C76.6213 62.1108 76.477 61.9398 76.3355 61.7715C76.055 61.435 75.8093 61.0931 75.5769 60.7645C75.1174 60.1074 74.7274 59.5011 74.4042 58.9909C74.0837 58.478 73.83 58.0587 73.659 57.7675C73.5815 57.6313 73.5174 57.5191 73.4667 57.4283C73.4239 57.3508 73.4026 57.3081 73.4079 57.3054C73.4106 57.3027 73.44 57.3401 73.4907 57.4149C73.5468 57.5031 73.6189 57.6099 73.7044 57.7408C73.8994 58.04 74.1638 58.446 74.4844 58.9401C74.8156 59.445 75.2136 60.046 75.6784 60.6951C75.9108 61.0183 76.1592 61.3575 76.4343 61.6887C76.5732 61.8517 76.7201 62.0199 76.8857 62.1562C76.9659 62.2203 77.0674 62.2924 77.1154 62.2523C77.1902 62.2069 77.2757 62.1214 77.3478 62.0386C77.6443 61.6967 77.9008 61.3228 78.1465 60.9675C78.3922 60.6096 78.622 60.2597 78.8383 59.9231C79.271 59.2527 79.653 58.641 79.9735 58.1281C80.2861 57.6259 80.5398 57.2146 80.7295 56.9127C80.815 56.7792 80.8817 56.6723 80.9378 56.5842C80.9886 56.5094 81.0153 56.472 81.0206 56.4747Z"
		fill="#263238" />
	<path
		d="M75.3284 60.2759C75.3124 60.2786 75.2803 60.1851 75.2937 60.0328C75.3044 59.8806 75.3712 59.6696 75.5181 59.4826C75.665 59.2956 75.8546 59.1807 76.0016 59.1353C76.1485 59.0872 76.2446 59.0979 76.2473 59.114C76.258 59.1514 75.8867 59.2181 75.6222 59.5654C75.3471 59.8993 75.3658 60.2759 75.3284 60.2759Z"
		fill="#263238" />
	<path
		d="M77.0834 62.3807C77.0487 62.386 76.9579 61.9159 76.9552 61.3283C76.9499 60.7406 77.0353 60.2705 77.0701 60.2732C77.1074 60.2785 77.0834 60.7486 77.0888 61.3256C77.0888 61.9079 77.1208 62.3753 77.0834 62.3807Z"
		fill="#263238" />
	<path
		d="M79.0761 59.699C79.0387 59.7096 78.9559 59.4131 78.6781 59.1888C78.4056 58.9564 78.1011 58.927 78.1038 58.8869C78.1038 58.8709 78.1839 58.8522 78.3095 58.8736C78.435 58.8923 78.6086 58.959 78.7609 59.0873C78.9131 59.2155 79.0093 59.3731 79.0494 59.4933C79.0948 59.6135 79.0921 59.6936 79.0761 59.699Z"
		fill="#263238" />
	<path
		d="M80.3769 57.5218C80.3395 57.5272 80.2941 57.228 80.0483 56.9716C79.8106 56.7098 79.5114 56.643 79.5194 56.6056C79.5221 56.5896 79.6023 56.5816 79.7251 56.6163C79.848 56.6511 80.0083 56.7365 80.1445 56.8808C80.2781 57.025 80.3528 57.1906 80.3795 57.3162C80.4063 57.439 80.3929 57.5192 80.3769 57.5218Z"
		fill="#263238" />
	<path
		d="M74.001 58.2805C73.9849 58.2831 73.9422 58.179 73.9368 58C73.9288 57.821 73.9716 57.57 74.0998 57.3269C74.2307 57.0838 74.415 56.9075 74.5672 56.8167C74.7195 56.7232 74.829 56.6992 74.8344 56.7152C74.8557 56.7499 74.4524 56.9342 74.2146 57.391C73.9689 57.8424 74.041 58.2805 74.001 58.2805Z"
		fill="#263238" />
	<g opacity="0.4">
		<g opacity="0.4">
			<path opacity="0.4"
				d="M70.2479 49.6715C70.8196 51.8671 71.7758 55.4411 72.8096 58.2405C72.8576 58.3687 72.9084 58.5022 73.0072 58.5957C73.269 58.8468 73.7204 58.6919 73.9688 58.4274C74.2039 58.1763 74.3401 57.8505 74.5324 57.5673C74.7248 57.2815 75.0079 57.0197 75.3525 57.0064C75.6329 56.9957 75.8947 57.1613 76.079 57.3723C76.2633 57.5834 76.3862 57.8398 76.5251 58.0829C76.5999 58.2137 76.6934 58.3553 76.8403 58.3874C76.9872 58.4168 77.1501 58.2832 77.0647 58.1229L76.1485 55.751C76.1485 55.751 75.7291 54.0121 74.2733 54.2818C72.6466 54.5837 73.3838 57.2548 73.3838 57.2548C73.3838 57.2548 70.2239 49.578 70.2479 49.6715Z"
				fill="#272443" />
		</g>
	</g>
	<path
		d="M77.1101 58.2163C77.1048 58.219 77.0781 58.1656 77.0327 58.0614C76.9846 57.9572 76.9205 57.8023 76.8377 57.6046C76.6721 57.1879 76.445 56.611 76.1645 55.9031C76.0924 55.7241 76.015 55.5372 75.9322 55.3448C75.8467 55.1525 75.7532 54.9629 75.5983 54.8053C75.2938 54.4954 74.821 54.2844 74.3321 54.3325C74.0944 54.3645 73.8433 54.4607 73.6644 54.6317C73.4827 54.8053 73.3919 55.0617 73.3038 55.3235C73.2183 55.5746 73.221 55.855 73.2477 56.1355C73.2744 56.416 73.3305 56.7018 73.3973 56.9849C73.424 57.0891 73.448 57.1933 73.472 57.2894L73.3465 57.3268C72.9725 56.2504 72.5398 55.254 72.1472 54.3512C71.7518 53.4483 71.3912 52.639 71.1081 51.9525C70.8249 51.266 70.6166 50.7024 70.4911 50.3071C70.4243 50.1121 70.3842 49.9545 70.3548 49.8503C70.3254 49.7462 70.3121 49.6901 70.3174 49.6874C70.3228 49.6874 70.3441 49.7381 70.3789 49.8423C70.4163 49.9438 70.4643 50.0961 70.5391 50.2911C70.678 50.6784 70.8997 51.2366 71.1936 51.9151C71.4874 52.5962 71.856 53.4003 72.2567 54.3004C72.6574 55.2006 73.0927 56.1969 73.4694 57.2814L73.3438 57.3188C73.3198 57.2227 73.2931 57.1158 73.269 57.0116C73.2023 56.7232 73.1435 56.4347 73.1168 56.1435C73.0901 55.855 73.0847 55.5559 73.1809 55.2781C73.269 55.0163 73.3679 54.7385 73.5762 54.5382C73.7872 54.3432 74.0517 54.2443 74.3188 54.2096C74.8557 54.1589 75.3525 54.3912 75.6784 54.7278C75.844 54.8988 75.9455 55.1098 76.0256 55.3021C76.1085 55.4971 76.1832 55.6867 76.2527 55.8657C76.5171 56.5789 76.7335 57.1612 76.8884 57.5806C76.9605 57.7729 77.0166 57.9278 77.062 58.048C77.0968 58.1575 77.1155 58.2163 77.1101 58.2163Z"
		fill="#263238" />
	<g opacity="0.4">
		<g opacity="0.4">
			<path opacity="0.4"
				d="M77.2383 58.1523C77.1822 58.1897 77.2223 58.2885 77.289 58.3019C77.3558 58.3153 77.4199 58.2779 77.4733 58.2378C77.8126 57.9734 78.0049 57.5673 78.2426 57.2121C78.483 56.8542 78.8329 56.5122 79.263 56.5096C79.7198 56.5069 80.0857 56.8915 80.3128 57.2869C80.5371 57.6849 80.6921 58.1336 81.0179 58.4568C82.6527 56.0582 83.9615 53.4351 84.8937 50.6865C84.3569 51.0578 84.0069 51.6348 83.6704 52.1957C82.8022 53.6435 81.9368 55.0885 81.0687 56.5363C80.887 56.1143 80.6707 55.6949 80.3368 55.3797C80.0002 55.0645 79.5221 54.8695 79.076 54.9763C78.5685 55.0939 78.2186 55.5533 77.9702 56.0101C77.6069 56.6805 77.3718 57.4178 77.2757 58.171"
				fill="#272443" />
		</g>
	</g>
	<path
		d="M111.351 79.5506C111.343 79.5559 111.282 79.4518 111.178 79.2594C111.073 79.0671 110.929 78.7867 110.761 78.4341C110.422 77.7316 109.992 76.7406 109.588 75.6187C109.188 74.4968 108.891 73.4577 108.704 72.6991C108.611 72.3198 108.544 72.0127 108.501 71.7963C108.458 71.5826 108.44 71.4624 108.45 71.4597C108.458 71.4571 108.496 71.5719 108.552 71.783C108.616 72.018 108.696 72.3172 108.795 72.6724C109.003 73.423 109.313 74.4541 109.711 75.5733C110.112 76.6898 110.529 77.6835 110.844 78.394C110.996 78.7306 111.122 79.0137 111.22 79.2354C111.314 79.4357 111.359 79.5453 111.351 79.5506Z"
		fill="#263238" />
	<path
		d="M108.811 79.0486C108.803 79.0513 108.766 78.9471 108.704 78.7575C108.643 78.5678 108.565 78.2873 108.48 77.9401C108.309 77.2456 108.13 76.2706 108.042 75.1808C107.956 74.091 107.983 73.0973 108.042 72.3868C108.071 72.0315 108.103 71.7431 108.135 71.5454C108.165 71.3477 108.186 71.2382 108.194 71.2409C108.202 71.2409 108.199 71.3531 108.186 71.5507C108.17 71.7484 108.151 72.0369 108.135 72.3921C108.101 73.1027 108.09 74.0883 108.175 75.1701C108.261 76.2519 108.426 77.2242 108.573 77.9214C108.646 78.2686 108.71 78.5518 108.755 78.7441C108.8 78.9364 108.822 79.0459 108.811 79.0486Z"
		fill="#263238" />
	<path
		d="M116.974 55.6652C116.977 55.6599 117.041 55.6839 117.18 55.7427L117.22 55.7614L117.177 55.7774C116.597 55.9858 114.565 56.6295 112.078 57.0809C110.587 57.3561 109.222 57.5137 108.234 57.5938C107.74 57.6339 107.339 57.6579 107.062 57.6686C106.784 57.6793 106.631 57.6793 106.631 57.6713C106.631 57.6632 106.784 57.6445 107.059 57.6178C107.358 57.5885 107.751 57.5484 108.226 57.503C109.212 57.3988 110.569 57.2279 112.054 56.9527C114.533 56.5013 116.571 55.9003 117.166 55.7454L117.164 55.7774C117.03 55.7053 116.971 55.6706 116.974 55.6652Z"
		fill="#263238" />
	<path
		d="M114.674 54.5064C114.672 54.5037 114.701 54.4637 114.784 54.4396C114.864 54.4156 115 54.4289 115.126 54.5144C115.246 54.5972 115.382 54.7655 115.347 54.9899C115.329 55.0967 115.254 55.2009 115.152 55.257C115.051 55.3157 114.928 55.3371 114.81 55.3211C114.693 55.3051 114.581 55.257 114.495 55.1742C114.41 55.0914 114.367 54.9738 114.37 54.867C114.378 54.6453 114.527 54.501 114.656 54.4289C114.789 54.3568 114.92 54.3515 115 54.3728C115.083 54.3942 115.115 54.4316 115.112 54.4343C115.11 54.4583 114.931 54.3568 114.704 54.5064C114.599 54.5758 114.49 54.7067 114.493 54.8643C114.487 55.0246 114.637 55.1635 114.829 55.1849C115.016 55.2116 115.2 55.1127 115.23 54.9605C115.262 54.8109 115.168 54.664 115.072 54.5865C114.973 54.5064 114.867 54.4797 114.794 54.4877C114.717 54.4957 114.68 54.5197 114.674 54.5064Z"
		fill="#263238" />
	<path
		d="M74.9812 60.1449C74.9839 60.1476 74.9331 60.193 74.8343 60.2731C74.7328 60.3506 74.5939 60.4761 74.3936 60.6124C74.0036 60.8982 73.4053 61.2695 72.6173 61.6221C71.8293 61.9773 70.8356 62.2898 69.7004 62.4528C69.1314 62.5249 68.5304 62.5703 67.9081 62.5489C67.2857 62.5276 66.642 62.4501 65.9955 62.3112C64.7027 62.0201 63.5381 61.5419 62.4429 61.2481C61.8953 61.0959 61.3665 60.989 60.867 60.9383C60.3675 60.8902 59.8947 60.9009 59.4726 60.9516C58.6232 61.0558 57.9741 61.3443 57.5815 61.6167C57.1861 61.8865 57.0152 62.0975 57.0018 62.0842C57.0018 62.0842 57.1594 61.8625 57.5521 61.574C57.9394 61.2855 58.5965 60.9757 59.4593 60.8581C59.8893 60.7994 60.3675 60.786 60.8776 60.8287C61.3852 60.8768 61.9221 60.981 62.475 61.1306C63.5808 61.4217 64.7481 61.8945 66.0249 62.1803C66.6633 62.3166 67.299 62.394 67.9134 62.4181C68.5304 62.4394 69.1234 62.3994 69.687 62.3299C70.8089 62.1777 71.7946 61.8785 72.5825 61.5366C73.3705 61.1947 73.9715 60.8394 74.3669 60.5696C74.5699 60.4414 74.7141 60.3212 74.821 60.2518C74.9225 60.177 74.9785 60.1396 74.9812 60.1449Z"
		fill="#FAFAFA" />
	<path
		d="M91.9536 71.1449C91.9536 71.1476 91.9242 71.1343 91.8734 71.1075C91.8146 71.0782 91.7399 71.0381 91.6437 70.9873C91.5422 70.9366 91.4113 70.8832 91.2591 70.8137C91.1015 70.7603 90.9252 70.6828 90.7141 70.6294C89.8861 70.3783 88.6093 70.2528 87.0761 70.4959C86.3094 70.608 85.4814 70.8164 84.5999 71.0568C83.7185 71.2972 82.7782 71.5777 81.7659 71.7833C80.7562 71.9917 79.661 72.1012 78.5391 71.981C77.4146 71.8768 76.2874 71.559 75.1575 71.185C74.0303 70.8057 72.9511 70.381 71.8907 70.0284C70.8329 69.6678 69.7858 69.4007 68.7708 69.2645C66.7354 68.9867 64.8683 69.195 63.3644 69.5583C62.6112 69.7426 61.9487 69.9777 61.3744 70.202C61.0913 70.3249 60.8268 70.4344 60.5891 70.5493C60.3541 70.6695 60.135 70.7683 59.9454 70.8752C59.7557 70.9793 59.5874 71.0755 59.4405 71.1583C59.299 71.2438 59.1788 71.3186 59.0799 71.38C58.9864 71.4361 58.9143 71.4815 58.8582 71.5162C58.8075 71.5456 58.7808 71.5616 58.7808 71.559C58.7808 71.5563 58.8021 71.5376 58.8529 71.5055C58.9063 71.4681 58.9784 71.4201 59.0692 71.3586C59.1654 71.2945 59.2803 71.2144 59.4245 71.1262C59.5714 71.0408 59.737 70.9419 59.924 70.8324C60.1137 70.7229 60.3327 70.6187 60.5651 70.4959C60.8028 70.3757 61.0672 70.2635 61.3504 70.1379C61.9247 69.9082 62.5898 69.6651 63.3484 69.4728C64.8576 69.0935 66.7407 68.8745 68.7922 69.1496C69.8179 69.2832 70.873 69.5529 71.9361 69.9136C73.0019 70.2661 74.081 70.6909 75.2056 71.0675C76.3274 71.4388 77.4466 71.754 78.5578 71.8581C79.6663 71.981 80.7455 71.8742 81.7472 71.6712C82.7515 71.4708 83.6917 71.1957 84.5759 70.958C85.46 70.7202 86.2907 70.5172 87.0654 70.4104C88.612 70.1753 89.9021 70.3169 90.7328 70.5867C90.9439 70.6454 91.1202 70.7256 91.2778 70.7843C91.43 70.8565 91.5609 70.9152 91.6597 70.9713C91.7532 71.0274 91.828 71.0702 91.8841 71.1022C91.9295 71.1262 91.9562 71.1423 91.9536 71.1449Z"
		fill="#FAFAFA" />
	<path
		d="M78.4938 59.9555C78.4991 59.9395 78.7315 60.0463 79.1776 60.1051C79.621 60.1692 80.2834 60.1558 81.0607 59.9555C81.8434 59.7658 82.7168 59.3572 83.7132 58.9645C84.2127 58.7695 84.7522 58.5879 85.3292 58.4837C85.9062 58.3822 86.5179 58.3395 87.1376 58.3795C88.3823 58.4516 89.5362 58.7855 90.5272 59.1942C91.5209 59.6056 92.3623 60.0837 93.0541 60.5057C93.7459 60.9278 94.2882 61.2964 94.6621 61.5501C94.8384 61.673 94.98 61.7719 95.0895 61.8493C95.1857 61.9188 95.2364 61.9562 95.2338 61.9615C95.2311 61.9642 95.1777 61.9348 95.0762 61.8734C94.964 61.8039 94.8171 61.7104 94.6354 61.5956C94.2535 61.3552 93.7032 60.9999 93.0087 60.5885C92.3142 60.1799 91.4701 59.7124 90.4818 59.3117C89.4962 58.9137 88.3556 58.5879 87.1322 58.5184C86.5205 58.481 85.9222 58.5211 85.3532 58.6172C84.7843 58.7187 84.2554 58.895 83.7559 59.0847C82.7649 59.472 81.8781 59.8727 81.0821 60.0543C80.2888 60.2466 79.6157 60.2466 79.1669 60.1665C78.7182 60.0784 78.4938 59.9555 78.4938 59.9555Z"
		fill="#FAFAFA" />
	<path
		d="M94.1066 53.2558C94.1092 53.2638 93.973 53.3065 93.7273 53.3707C93.6044 53.4054 93.4521 53.4428 93.2758 53.4775C93.0969 53.5122 92.8965 53.5603 92.6695 53.5924C92.2181 53.6698 91.6758 53.7313 91.0722 53.7633C90.4685 53.79 89.8007 53.7874 89.1062 53.7286C88.409 53.6672 87.7519 53.5576 87.1616 53.4294C86.5713 53.2932 86.0478 53.1436 85.6177 52.9914C85.3987 52.9219 85.209 52.8418 85.0407 52.775C84.8698 52.7109 84.7282 52.6468 84.6134 52.5934C84.381 52.4865 84.2554 52.4251 84.2581 52.4144C84.2608 52.4064 84.3943 52.4518 84.6321 52.5453C84.7496 52.5934 84.8965 52.6494 85.0675 52.7055C85.2384 52.7643 85.4307 52.8391 85.6471 52.9005C86.0798 53.0421 86.6007 53.181 87.1883 53.3092C87.776 53.4294 88.4277 53.5336 89.1169 53.595C89.806 53.6511 90.4685 53.6591 91.0668 53.6378C91.6651 53.6111 92.2047 53.5603 92.6535 53.4962C92.8805 53.4695 93.0808 53.4294 93.2598 53.4C93.4388 53.3733 93.591 53.3413 93.7166 53.3146C93.965 53.2692 94.1039 53.2451 94.1066 53.2558Z"
		fill="#FAFAFA" />
	<path
		d="M56.4889 54.971C56.4862 54.9684 56.5263 54.931 56.6064 54.8669C56.6866 54.8027 56.8014 54.7093 56.9563 54.5917C57.2635 54.3567 57.7149 54.0254 58.2892 53.6408C59.4352 52.8742 61.0966 51.8779 63.124 51.2528C65.1541 50.6278 67.1253 50.6064 68.485 50.8788C69.1661 51.0097 69.703 51.1834 70.0609 51.3303C70.2426 51.397 70.3761 51.4692 70.4696 51.5092C70.5604 51.552 70.6085 51.5787 70.6058 51.5814C70.6005 51.592 70.4055 51.5066 70.0422 51.3784C69.6816 51.2475 69.1447 51.0872 68.4689 50.9723C67.12 50.7266 65.1728 50.7613 63.1641 51.381C61.1554 52.0007 59.4966 52.9757 58.34 53.7209C57.7604 54.0949 57.3036 54.4128 56.9857 54.6345C56.8361 54.7386 56.7159 54.8214 56.6198 54.8882C56.537 54.947 56.4916 54.9764 56.4889 54.971Z"
		fill="#FAFAFA" />
	<path
		d="M90.1079 82.9832C90.1079 82.9859 90.0838 82.9912 90.0331 83.0046C89.9743 83.0179 89.9022 83.034 89.8087 83.0527C89.7099 83.0767 89.587 83.0954 89.4401 83.1087C89.3653 83.1168 89.2878 83.1248 89.2024 83.1328C89.1169 83.1355 89.0261 83.1381 88.9326 83.1408C88.1633 83.1728 87.0574 82.9752 85.7593 82.5558C85.1075 82.3528 84.4023 82.1044 83.6357 81.8774C82.8691 81.6503 82.033 81.474 81.1382 81.3939C79.3486 81.2229 77.3639 81.4393 75.3232 81.8106C73.2771 82.1792 71.3458 82.644 69.5482 82.8577C67.7558 83.0794 66.1131 83.0954 64.7588 82.8897C63.3992 82.7054 62.3521 82.294 61.671 81.9575C61.5027 81.8693 61.3505 81.7919 61.2222 81.7198C61.0994 81.6423 60.9952 81.5755 60.9071 81.5194C60.8269 81.4687 60.7655 81.4259 60.7147 81.3939C60.672 81.3645 60.6506 81.3485 60.6533 81.3485C60.6533 81.3458 60.6773 81.3592 60.7227 81.3832C60.7735 81.4126 60.8403 81.45 60.9204 81.4981C61.0086 81.5515 61.1154 81.6129 61.2409 81.685C61.3745 81.7518 61.5241 81.8266 61.695 81.9094C62.3815 82.2299 63.4233 82.6253 64.7749 82.7962C66.1211 82.9885 67.7532 82.9645 69.5375 82.7375C71.3245 82.5184 73.253 82.051 75.3045 81.6824C77.3505 81.3084 79.3486 81.0947 81.1542 81.2737C82.0544 81.3592 82.9012 81.5408 83.6704 81.7732C84.4397 82.0056 85.1422 82.2593 85.7913 82.4677C87.0841 82.8951 88.174 83.1061 88.9352 83.09C89.0287 83.09 89.1195 83.09 89.205 83.09C89.2878 83.082 89.368 83.0767 89.4401 83.0714C89.587 83.0633 89.7099 83.0473 89.8087 83.0286C89.9022 83.0153 89.977 83.0019 90.0331 82.9939C90.0812 82.9859 90.1079 82.9832 90.1079 82.9832Z"
		fill="#FAFAFA" />
	<g opacity="0.3">
		<g opacity="0.3">
			<path opacity="0.3"
				d="M66.5752 84.8235C67.7852 87.8446 70.1278 89.9895 73.3519 90.4329C76.5759 90.8763 79.8374 90.1391 82.9759 89.2843C77.2677 88.4857 72.2166 87.695 66.5752 84.8235Z"
				fill="#272443" />
		</g>
	</g>
	<path
		d="M90.9252 93.1306C90.9252 93.1333 90.8985 93.1226 90.8451 93.1012C90.7863 93.0772 90.7142 93.0452 90.618 93.0051C90.4124 92.9143 90.1239 92.7861 89.7553 92.6231C89.0047 92.2919 87.9282 91.7871 86.5846 91.2047C85.9088 90.9216 85.1582 90.6331 84.3222 90.4381C83.4888 90.2405 82.5619 90.1737 81.6083 90.3126C81.1328 90.382 80.6494 90.4916 80.1659 90.6411C79.6851 90.7934 79.2016 90.9777 78.7208 91.1887C77.7565 91.6081 76.7976 92.1343 75.8093 92.6632C74.821 93.1921 73.838 93.6809 72.839 94.0442C71.8426 94.4048 70.8303 94.6398 69.85 94.6532C68.867 94.6799 67.9455 94.4475 67.1441 94.1216C66.3374 93.7957 65.6376 93.3924 64.9992 93.0318C64.3608 92.6685 63.7865 92.3373 63.263 92.0835C62.7394 91.8325 62.2773 91.6348 61.8847 91.5226C61.6923 91.4532 61.5134 91.4184 61.3611 91.381C61.2089 91.341 61.078 91.3196 60.9711 91.3062C60.8696 91.2902 60.7895 91.2769 60.7281 91.2689C60.6746 91.2582 60.6453 91.2528 60.6453 91.2502C60.6453 91.2475 60.6746 91.2502 60.7281 91.2555C60.7895 91.2608 60.8723 91.2715 60.9738 91.2822C61.0807 91.2929 61.2142 91.3089 61.3691 91.3463C61.5241 91.381 61.7057 91.4104 61.9007 91.4772C62.2987 91.5814 62.7661 91.7764 63.2977 92.0221C63.8266 92.2705 64.4062 92.5991 65.0473 92.957C65.6884 93.3123 66.3882 93.7103 67.1869 94.0281C67.9829 94.346 68.8857 94.5704 69.85 94.5383C70.8143 94.5223 71.8106 94.2899 72.7989 93.9293C73.7872 93.5687 74.7649 93.0799 75.7505 92.5537C76.7362 92.0248 77.6978 91.4986 78.6727 91.0792C79.1589 90.8682 79.645 90.6812 80.1338 90.5289C80.6227 90.382 81.1115 90.2699 81.595 90.2004C82.5646 90.0615 83.5075 90.1363 84.3516 90.3393C85.1956 90.5396 85.9516 90.8361 86.6247 91.1246C87.9683 91.7203 89.0367 92.2385 89.782 92.583C90.1479 92.7567 90.4337 92.8929 90.6367 92.9891C90.7276 93.0345 90.8023 93.0692 90.8584 93.0986C90.9012 93.1146 90.9279 93.128 90.9252 93.1306Z"
		fill="#FAFAFA" />
</svg>