<svg width="616" height="598" viewBox="0 0 616 598" fill="none" xmlns="http://www.w3.org/2000/svg">
	<path fill-rule="evenodd" clip-rule="evenodd"
		d="M284.837 92.3336C331.917 87.7264 376.763 106.882 417.589 132.874C466.159 163.796 534.338 191.582 539.859 254.696C545.524 319.453 467.156 352.809 442 411.937C419.35 465.177 446.756 547.679 402.122 578.444C357.312 609.331 305.601 546.85 253.819 541.646C204.39 536.678 152.492 574.037 108.402 548.925C61.0865 521.976 28.2029 465.994 17.5276 407.064C7.02045 349.063 21.6692 286.108 51.8834 236.936C78.9464 192.893 129.663 182.764 171.19 156.986C209.311 133.323 241.772 96.5479 284.837 92.3336Z"
		fill="#7A76FF" />
	<path
		d="M136.691 478.46C153.244 464.921 155.384 442.149 153.04 422.021C152.646 418.66 152.729 415.084 150.864 412.261C148.998 409.439 145.051 407.728 142.109 409.403C139.669 410.79 138.808 413.792 137.588 416.316C135.961 419.676 133.366 422.559 130.197 424.52C128.116 425.812 125.484 426.709 123.236 425.728C120.162 424.365 119.481 420.382 119.229 417.033C118.763 410.79 118.285 404.547 117.818 398.292C117.567 394.943 117.292 391.523 115.976 388.425C114.661 385.327 112.089 382.577 108.788 381.943C105.487 381.321 101.648 383.485 101.23 386.822C101.062 388.21 101.457 389.609 101.481 390.996C101.505 392.396 100.966 393.986 99.6628 394.489C98.3353 394.991 96.9001 394.154 95.8117 393.257C92.0324 390.159 89.2935 385.997 86.7221 381.847C84.1507 377.697 81.6272 373.439 78.1468 370.019C74.6664 366.598 70.026 364.027 65.1463 364.158C60.2666 364.29 55.3271 367.674 54.478 372.482C53.6288 377.302 56.8221 381.871 60.1709 385.435C65.1463 390.733 70.8871 395.314 77.1541 398.974C78.2903 399.631 79.5102 400.349 80.0245 401.557C80.9454 403.734 78.984 406.126 76.8073 407.047C74.3435 408.087 71.5808 408.051 68.9615 408.578C66.3423 409.104 63.5676 410.491 62.7662 413.039C61.654 416.579 64.8473 419.928 67.8971 422.045C73.9967 426.278 80.8258 429.46 88.0018 431.409C90.5732 432.103 93.2642 432.677 95.417 434.244C97.5698 435.81 99.029 438.717 98.0124 441.181C96.9838 443.644 93.922 444.661 91.2789 444.398C88.6238 444.135 86.172 442.927 83.6006 442.209C78.7926 440.858 72.8007 441.671 70.1336 445.893C68.3874 448.667 68.507 452.327 69.7628 455.365C71.0067 458.403 73.2432 460.914 75.5874 463.223C83.768 471.26 93.9101 477.443 105.033 480.254C116.144 483.052 126.25 483.232 136.691 478.46Z"
		fill="#EBEBEB" />
	<path
		d="M138.138 493.41C136.739 485.48 134.191 476.187 130.328 466.273C126.489 456.346 121.358 445.797 115.606 434.961C114.158 432.258 112.735 429.579 111.324 426.948C109.913 424.317 108.513 421.722 106.982 419.258C103.945 414.318 100.644 409.797 97.3785 405.599C94.1134 401.402 90.8483 397.538 87.7746 393.938C84.6889 390.35 81.7587 387.061 78.9481 384.167C73.3508 378.367 68.2918 374.228 64.7038 371.525C62.9098 370.162 61.4865 369.157 60.5058 368.488C60.0274 368.165 59.6566 367.914 59.3935 367.734C59.1424 367.567 58.9988 367.495 58.9988 367.495C58.9988 367.495 59.1184 367.603 59.3576 367.782C59.6208 367.973 59.9796 368.236 60.446 368.583C61.4028 369.289 62.8021 370.317 64.5842 371.693C68.1363 374.444 73.1475 378.606 78.697 384.418C81.4836 387.313 84.3899 390.614 87.4517 394.214C90.5134 397.814 93.7546 401.689 96.9958 405.887C100.249 410.084 103.526 414.593 106.552 419.509C108.071 421.961 109.458 424.544 110.869 427.187C112.281 429.818 113.704 432.498 115.151 435.2C120.892 446.036 126.023 456.549 129.886 466.452C133.761 476.343 136.344 485.588 137.779 493.482"
		fill="#FFE6B7" />
	<path
		d="M106.851 419.21C106.887 419.21 106.946 418.696 107.042 417.751C107.138 416.806 107.234 415.443 107.329 413.756C107.521 410.383 107.64 405.707 107.76 400.564C107.879 395.41 108.071 390.757 108.346 387.396C108.477 385.71 108.597 384.358 108.693 383.414C108.788 382.469 108.824 381.955 108.788 381.943C108.752 381.943 108.657 382.457 108.501 383.39C108.346 384.323 108.166 385.686 107.987 387.36C107.628 390.721 107.365 395.398 107.245 400.552C107.138 405.659 107.042 410.276 106.958 413.744C106.911 415.359 106.863 416.698 106.827 417.739C106.815 418.684 106.815 419.21 106.851 419.21Z"
		fill="#FFE6B7" />
	<path
		d="M62.5629 414.761C62.5629 414.773 62.7184 414.785 63.0174 414.797C63.3762 414.797 63.8068 414.797 64.321 414.797C65.4453 414.797 67.0838 414.785 69.0931 414.845C73.1236 414.928 78.697 415.251 84.8085 415.873C90.932 416.507 96.4456 417.32 100.416 418.038C102.402 418.373 104.004 418.696 105.117 418.911C105.619 419.007 106.049 419.09 106.396 419.15C106.695 419.198 106.851 419.222 106.851 419.198C106.851 419.186 106.707 419.126 106.42 419.043C106.073 418.947 105.667 418.839 105.164 418.708C104.064 418.433 102.473 418.062 100.488 417.667C96.5293 416.866 91.0038 415.993 84.8564 415.359C78.7209 414.737 73.1356 414.474 69.0931 414.474C67.0719 414.462 65.4333 414.522 64.3091 414.581C63.7948 414.617 63.3643 414.641 63.0055 414.677C62.7184 414.725 62.5629 414.737 62.5629 414.761Z"
		fill="#FFE6B7" />
	<path
		d="M129.778 465.507C129.79 465.507 129.874 465.328 130.017 464.957C130.173 464.538 130.376 464 130.627 463.33C131.153 461.919 131.859 459.862 132.708 457.303C134.395 452.196 136.524 445.067 138.76 437.162C140.997 429.268 143.066 422.128 144.668 416.997C145.47 414.486 146.115 412.417 146.594 410.922C146.809 410.252 146.977 409.702 147.108 409.271C147.216 408.888 147.276 408.685 147.252 408.685C147.24 408.685 147.156 408.865 147.012 409.235C146.857 409.654 146.654 410.192 146.403 410.862C145.876 412.273 145.171 414.33 144.321 416.89C142.623 421.997 140.506 429.125 138.27 437.03C136.033 444.924 133.964 452.064 132.361 457.195C131.56 459.706 130.914 461.776 130.436 463.271C130.221 463.94 130.053 464.491 129.922 464.921C129.814 465.292 129.766 465.495 129.778 465.507Z"
		fill="#FFE6B7" />
	<path
		d="M70.2891 451.837C70.2891 451.849 70.4924 451.909 70.8871 452.016C71.3415 452.124 71.9156 452.255 72.6213 452.423C74.188 452.782 76.3528 453.272 78.9959 453.882C84.3779 455.114 91.7931 456.92 99.9738 458.917C108.166 460.926 115.594 462.673 120.999 463.821C123.702 464.395 125.891 464.837 127.41 465.124C128.128 465.256 128.714 465.364 129.156 465.435C129.563 465.507 129.766 465.531 129.778 465.507C129.778 465.495 129.575 465.435 129.18 465.328C128.738 465.22 128.164 465.089 127.446 464.921C125.879 464.562 123.714 464.072 121.071 463.462C115.689 462.23 108.274 460.424 100.093 458.415C91.9127 456.406 84.4736 454.659 79.0677 453.523C76.3647 452.949 74.1761 452.507 72.6571 452.22C71.9395 452.088 71.3535 451.992 70.911 451.909C70.5043 451.849 70.2891 451.825 70.2891 451.837Z"
		fill="#FFE6B7" />
	<path d="M293.818 136.697L207.348 162.712L224.883 220.996L311.353 194.981L293.818 136.697Z" fill="white" />
	<path
		d="M311.355 194.984C311.355 194.984 311.223 194.613 311.008 193.919C310.781 193.202 310.47 192.173 310.051 190.846C309.214 188.131 308.006 184.184 306.463 179.125C303.389 168.995 298.964 154.475 293.582 136.775L293.893 136.942C270.033 144.142 239.989 153.196 207.446 163.015H207.434L207.638 162.632C213.881 183.407 219.813 203.165 225.147 220.925L224.788 220.734C250.263 213.127 271.851 206.681 287.1 202.124C294.73 199.864 300.77 198.07 304.932 196.838C307.001 196.228 308.592 195.761 309.692 195.438C310.219 195.283 310.625 195.175 310.924 195.08C311.199 195.02 311.355 194.984 311.355 194.984C311.355 194.984 311.235 195.032 310.96 195.115C310.673 195.211 310.278 195.331 309.764 195.486C308.676 195.821 307.109 196.299 305.088 196.933C300.95 198.201 294.946 200.031 287.363 202.351C272.09 206.98 250.454 213.546 224.968 221.272L224.693 221.356L224.609 221.081C219.263 203.32 213.307 183.574 207.052 162.8L206.956 162.501L207.255 162.405H207.267C239.834 152.634 269.878 143.616 293.75 136.452L293.989 136.38L294.061 136.619C299.359 154.416 303.7 169.019 306.738 179.197C308.233 184.244 309.393 188.191 310.195 190.894C310.577 192.221 310.876 193.238 311.08 193.943C311.271 194.637 311.355 194.984 311.355 194.984Z"
		fill="#FFE6B7" />
	<path
		d="M293.821 136.703C293.833 136.703 293.786 136.798 293.702 136.966C293.594 137.169 293.463 137.408 293.295 137.707C292.901 138.401 292.362 139.334 291.681 140.53C290.233 143.018 288.176 146.546 285.653 150.899C280.474 159.678 273.334 171.781 265.393 185.272L265.261 185.5L265.01 185.404C264.173 185.081 263.264 184.734 262.367 184.375C247.178 178.455 233.423 173.085 223.425 169.186C218.485 167.225 214.479 165.634 211.644 164.51C210.293 163.96 209.228 163.529 208.451 163.206C208.116 163.063 207.841 162.943 207.626 162.859C207.446 162.776 207.351 162.728 207.351 162.716C207.351 162.704 207.458 162.728 207.65 162.8C207.877 162.883 208.152 162.979 208.499 163.099C209.288 163.386 210.365 163.78 211.728 164.295C214.575 165.371 218.605 166.902 223.58 168.78C233.603 172.643 247.381 177.941 262.594 183.801C263.503 184.148 264.4 184.507 265.237 184.83L264.854 184.961C272.868 171.518 280.067 159.451 285.282 150.696C287.889 146.39 289.994 142.886 291.477 140.422C292.195 139.25 292.769 138.329 293.188 137.66C293.367 137.373 293.522 137.133 293.642 136.954C293.75 136.775 293.81 136.691 293.821 136.703Z"
		fill="#FFE6B7" />
	<path
		d="M545.4 369.504C545.4 369.504 539.803 363.955 528.859 377.816C517.916 391.678 513.168 399.99 513.168 399.99C513.168 399.99 510.441 402.813 508.647 400.253C506.841 397.694 504.999 391.092 501.005 391.427C496.866 391.762 494.702 395.876 494.175 402.454C493.637 409.02 491.951 423.372 491.783 424.676C491.628 425.943 490.54 427.654 489.033 426.111C487.526 424.568 479.716 411.388 473.688 415.467C467.66 419.545 469.179 438.095 469.311 440.128C469.442 442.161 468.892 442.903 467.887 443.202C466.871 443.501 464.67 438.824 462.29 435.165C459.922 431.505 456.525 427.69 453.236 430.333C449.959 432.976 446.479 445.976 454.755 469.861L459.312 480.672L470.985 482.335C496.185 484.368 507.894 477.754 509.64 473.915C511.374 470.076 506.829 467.744 502.691 466.368C498.553 464.993 493.482 464.024 493.518 462.96C493.553 461.907 494.14 461.19 496.137 460.807C498.134 460.424 516.481 457.255 518.921 450.402C521.36 443.549 506.65 439.279 504.784 438.214C502.906 437.138 504.294 435.667 505.49 435.201C506.71 434.722 520.176 429.484 526.408 427.331C532.639 425.166 536.083 422.044 535.366 417.954C534.684 414.007 527.831 413.876 524.901 412.764C521.97 411.663 524.028 408.314 524.028 408.314C524.028 408.314 530.881 401.629 541.573 387.564C552.265 373.499 545.292 369.397 545.292 369.397"
		fill="#EBEBEB" />
	<path
		d="M535.581 381.907C535.593 381.919 535.521 382.014 535.39 382.206C535.234 382.421 535.031 382.708 534.78 383.055C534.206 383.832 533.404 384.921 532.388 386.296C530.307 389.107 527.245 393.149 523.442 398.125C515.847 408.075 505.226 421.734 493.422 436.755C481.653 451.789 470.997 465.388 463.259 475.278C459.444 480.194 456.334 484.189 454.157 486.987C453.093 488.339 452.268 489.403 451.67 490.157C451.395 490.492 451.179 490.767 451.012 490.97C450.856 491.149 450.785 491.245 450.773 491.233C450.761 491.221 450.832 491.125 450.964 490.934C451.119 490.719 451.323 490.432 451.574 490.085C452.148 489.308 452.949 488.219 453.966 486.844C456.047 484.033 459.109 479.991 462.9 475.015C470.495 465.065 481.115 451.406 492.92 436.385C504.688 421.363 515.333 407.752 523.071 397.873C526.886 392.958 529.996 388.963 532.172 386.165C533.237 384.813 534.062 383.749 534.66 382.995C534.935 382.66 535.15 382.385 535.318 382.182C535.485 381.99 535.569 381.895 535.581 381.907Z"
		fill="#FFE6B7" />
	<path
		d="M503.205 400.768C503.289 400.756 503.468 401.952 503.648 403.901C503.827 405.851 503.983 408.542 504.09 411.508C504.174 414.366 504.234 416.95 504.294 419.114C504.341 421.064 504.377 422.26 504.294 422.272C504.21 422.284 504.018 421.088 503.851 419.138C503.696 417.189 503.564 414.498 503.456 411.532C503.361 408.673 503.265 406.09 503.193 403.925C503.145 401.976 503.121 400.768 503.205 400.768Z"
		fill="#FFE6B7" />
	<path
		d="M505.31 422.69C505.298 422.523 510.824 421.913 517.653 421.351C524.494 420.777 530.043 420.454 530.055 420.633C530.067 420.801 524.542 421.411 517.701 421.973C510.883 422.535 505.334 422.858 505.31 422.69Z"
		fill="#FFE6B7" />
	<path
		d="M485.468 445.749C485.492 445.665 486.7 445.881 488.65 446.263C490.599 446.634 493.302 447.149 496.292 447.627C499.282 448.105 501.997 448.464 503.971 448.727C505.944 448.978 507.164 449.146 507.152 449.242C507.14 449.325 505.908 449.313 503.923 449.17C501.937 449.026 499.187 448.739 496.185 448.249C493.183 447.77 490.48 447.184 488.554 446.706C486.629 446.204 485.445 445.833 485.468 445.749Z"
		fill="#FFE6B7" />
	<path
		d="M479.201 426.35C479.285 426.326 479.716 427.379 480.362 429.101C481.007 430.823 481.845 433.215 482.742 435.882C483.639 438.537 484.416 440.953 484.954 442.723C485.492 444.493 485.779 445.582 485.696 445.618C485.612 445.642 485.181 444.589 484.536 442.867C483.89 441.145 483.053 438.753 482.156 436.086C481.259 433.43 480.481 431.014 479.943 429.244C479.405 427.474 479.118 426.374 479.201 426.35Z"
		fill="#FFE6B7" />
	<path
		d="M459.097 444.481C459.18 444.458 459.731 445.809 460.556 448.01C461.381 450.222 462.481 453.284 463.665 456.669C464.849 460.065 465.878 463.151 466.608 465.399C467.325 467.648 467.732 469.047 467.648 469.071C467.564 469.095 467.014 467.744 466.189 465.543C465.364 463.33 464.263 460.269 463.079 456.872C461.895 453.475 460.867 450.39 460.137 448.141C459.42 445.917 459.013 444.517 459.097 444.481Z"
		fill="#FFE6B7" />
	<path
		d="M467.612 468.437C467.624 468.354 469.179 468.581 471.667 468.976C474.154 469.358 477.599 469.896 481.414 470.399C485.229 470.901 488.686 471.296 491.197 471.559C493.709 471.834 495.252 472.013 495.252 472.097C495.252 472.181 493.685 472.157 491.161 472.001C488.638 471.846 485.158 471.523 481.33 471.021C477.503 470.518 474.071 469.908 471.595 469.406C469.107 468.904 467.588 468.509 467.612 468.437Z"
		fill="#FFE6B7" />
	<path d="M492.617 251.905L489.787 344.657L557.566 346.725L560.397 253.974L492.617 251.905Z" fill="#F5F5F5" />
	<path d="M480.13 264.226L477.299 356.978L545.079 359.046L547.909 266.295L480.13 264.226Z" fill="white" />
	<path
		d="M545.101 359.027C545.101 359.027 545.089 358.872 545.101 358.573C545.101 358.262 545.113 357.831 545.125 357.257C545.149 356.085 545.197 354.387 545.245 352.186C545.364 347.749 545.532 341.303 545.747 333.134C546.213 316.808 546.871 293.654 547.649 266.265L547.924 266.553C527.508 265.943 504.461 265.249 480.146 264.507H480.134L480.457 264.208C479.381 298.856 478.376 330.921 477.563 356.958L477.312 356.695C497.811 357.377 514.723 357.939 526.527 358.334C532.424 358.537 537.052 358.704 540.221 358.812C541.788 358.872 542.996 358.92 543.833 358.956C544.671 359.003 545.101 359.027 545.101 359.027C545.101 359.027 544.706 359.039 543.905 359.015C543.08 358.991 541.896 358.967 540.341 358.932C537.184 358.848 532.579 358.728 526.707 358.585C514.866 358.25 497.895 357.783 477.324 357.209L477.073 357.197L477.085 356.946C477.862 330.909 478.819 298.845 479.859 264.196L479.871 263.885L480.182 263.897H480.194C504.509 264.651 527.556 265.368 547.96 265.99L548.247 266.002L548.235 266.289C547.338 293.762 546.584 316.976 546.046 333.337C545.771 341.47 545.544 347.904 545.388 352.318C545.304 354.494 545.245 356.169 545.197 357.329C545.173 357.879 545.149 358.298 545.137 358.609C545.113 358.896 545.101 359.027 545.101 359.027Z"
		fill="#FFE6B7" />
	<path
		d="M521.456 285.677C521.456 285.844 514.077 285.76 504.975 285.485C495.874 285.21 488.506 284.839 488.518 284.672C488.518 284.504 495.898 284.588 504.999 284.863C514.101 285.138 521.468 285.509 521.456 285.677Z"
		fill="#FFE6B7" />
	<path
		d="M539.025 294.288C539.025 294.455 527.652 294.252 513.646 293.821C499.629 293.391 488.279 292.912 488.279 292.733C488.279 292.566 499.653 292.769 513.67 293.199C527.675 293.63 539.037 294.108 539.025 294.288Z"
		fill="#FFE6B7" />
	<path
		d="M538.774 302.696C538.774 302.863 527.4 302.66 513.395 302.229C499.378 301.799 488.028 301.32 488.028 301.141C488.028 300.973 499.402 301.177 513.419 301.607C527.424 302.038 538.774 302.516 538.774 302.696Z"
		fill="#FFE6B7" />
	<path
		d="M538.511 311.104C538.511 311.271 527.137 311.068 513.132 310.637C499.115 310.207 487.765 309.728 487.765 309.549C487.765 309.381 499.139 309.585 513.156 310.015C527.161 310.446 538.523 310.924 538.511 311.104Z"
		fill="#FFE6B7" />
	<path
		d="M538.26 319.511C538.26 319.679 526.886 319.476 512.881 319.045C498.864 318.614 487.514 318.136 487.514 317.957C487.514 317.789 498.888 317.993 512.905 318.423C526.91 318.854 538.26 319.332 538.26 319.511Z"
		fill="#FFE6B7" />
	<path
		d="M538.009 327.919C538.009 328.087 526.635 327.883 512.63 327.453C498.613 327.022 487.263 326.544 487.263 326.364C487.263 326.197 498.636 326.4 512.654 326.831C526.647 327.261 538.009 327.74 538.009 327.919Z"
		fill="#FFE6B7" />
	<path
		d="M537.746 336.327C537.746 336.495 526.372 336.291 512.367 335.861C498.349 335.43 486.999 334.952 486.999 334.772C486.999 334.605 498.373 334.808 512.391 335.239C526.396 335.669 537.758 336.148 537.746 336.327Z"
		fill="#FFE6B7" />
	<path
		d="M514.017 344.017C514.017 344.185 507.906 344.137 500.371 343.91C492.836 343.683 486.736 343.36 486.736 343.18C486.736 343.013 492.848 343.061 500.383 343.288C507.917 343.515 514.017 343.838 514.017 344.017Z"
		fill="#FFE6B7" />
	<path d="M346.578 202.552L325.37 255.823L391.997 282.349L413.206 229.078L346.578 202.552Z" fill="white" />
	<path
		d="M413.194 229.094C413.194 229.094 413.087 229.058 412.871 228.974C412.656 228.89 412.345 228.771 411.938 228.615C411.113 228.292 409.905 227.814 408.327 227.192C405.169 225.936 400.541 224.106 394.68 221.786C382.971 217.134 366.323 210.532 346.529 202.674L346.673 202.614C340.37 218.473 333.134 236.641 325.48 255.884L325.408 255.729C350.069 265.56 372.997 274.685 392.025 282.28L391.893 282.34C398.304 266.301 403.614 253.002 407.334 243.709C409.2 239.056 410.659 235.421 411.651 232.933C412.154 231.689 412.536 230.744 412.8 230.098C413.051 229.429 413.194 229.094 413.194 229.094C413.194 229.094 413.075 229.417 412.823 230.063C412.572 230.708 412.202 231.653 411.711 232.897C410.73 235.385 409.283 239.033 407.453 243.673C403.758 252.99 398.471 266.325 392.085 282.399L392.049 282.495L391.953 282.459C372.913 274.889 349.986 265.763 325.324 255.956L325.216 255.908L325.264 255.8C332.931 236.569 340.166 218.402 346.481 202.543L346.517 202.447L346.613 202.483C366.419 210.388 383.079 217.05 394.788 221.726C400.624 224.071 405.241 225.912 408.386 227.168C409.953 227.802 411.161 228.281 411.974 228.615C412.381 228.783 412.68 228.902 412.895 228.986C413.099 229.046 413.194 229.094 413.194 229.094Z"
		fill="#FFE6B7" />
	<path d="M347.498 206.866L328.962 253.426L390.911 278.089L409.448 231.53L347.498 206.866Z" fill="#EBEBEB" />
	<path d="M329.199 253.576L362.364 233.256L368.548 256.697L381.5 250.634L391.14 278.249L329.199 253.576Z"
		fill="#FFE6B7" />
	<path
		d="M382.864 237.31C381.787 240.001 378.737 241.317 376.046 240.241C373.355 239.164 372.04 236.114 373.116 233.423C374.193 230.732 377.242 229.417 379.933 230.493C382.624 231.558 383.94 234.619 382.864 237.31Z"
		fill="#FFE6B7" />
	<path
		d="M172.822 288.069C172.834 288.021 173.289 288.379 174.245 288.308C174.712 288.248 175.298 288.045 175.776 287.542C176.231 287.052 176.566 286.263 177.044 285.485C178.898 282.256 181.541 277.639 184.794 271.946C185.619 270.523 186.48 269.028 187.377 267.461C187.832 266.684 188.286 265.883 188.753 265.081C188.98 264.675 189.255 264.268 189.387 263.873C189.518 263.467 189.53 263.012 189.423 262.594C189.315 262.175 189.076 261.792 188.741 261.505C188.418 261.242 187.928 261.015 187.509 260.776C186.636 260.285 185.751 259.795 184.854 259.293C183.048 258.288 181.206 257.248 179.304 256.183C171.71 251.913 163.362 247.237 154.595 242.322C153.626 241.759 152.299 242.13 151.689 243.051C151.067 244.116 150.445 245.168 149.835 246.221C148.603 248.337 147.395 250.418 146.199 252.464C143.807 256.554 141.511 260.501 139.31 264.268C139.035 264.735 138.76 265.201 138.497 265.667C138.222 266.098 138.102 266.553 138.114 267.031C138.138 267.497 138.306 267.964 138.605 268.311C138.88 268.681 139.334 268.873 139.789 269.148C141.583 270.164 143.329 271.145 145.015 272.102C148.376 274.016 151.521 275.786 154.392 277.412C160.085 280.665 164.701 283.296 167.942 285.15C169.509 286.059 170.741 286.777 171.614 287.279C172.009 287.518 172.32 287.698 172.559 287.841C172.726 287.985 172.834 288.057 172.822 288.069C172.822 288.081 172.703 288.021 172.475 287.913C172.224 287.781 171.901 287.614 171.495 287.399C170.61 286.92 169.354 286.239 167.763 285.366C164.498 283.56 159.846 280.976 154.117 277.807C151.234 276.204 148.089 274.446 144.704 272.556C143.018 271.612 141.26 270.631 139.466 269.626C139.047 269.375 138.497 269.148 138.126 268.669C137.743 268.227 137.528 267.641 137.504 267.055C137.48 266.469 137.66 265.859 137.959 265.38C138.234 264.914 138.497 264.448 138.772 263.981C140.961 260.214 143.245 256.255 145.625 252.153C146.809 250.108 148.029 248.015 149.249 245.898C149.871 244.833 150.493 243.769 151.127 242.68C151.892 241.508 153.59 241.03 154.846 241.759C163.601 246.687 171.937 251.387 179.532 255.669C181.421 256.745 183.275 257.786 185.069 258.802C185.966 259.305 186.851 259.807 187.724 260.297C188.155 260.561 188.585 260.74 189.04 261.099C189.458 261.458 189.758 261.936 189.889 262.45C190.021 262.965 189.997 263.515 189.841 264.017C189.662 264.531 189.375 264.902 189.16 265.309C188.693 266.11 188.227 266.911 187.772 267.677C186.863 269.232 185.99 270.715 185.153 272.138C181.816 277.783 179.125 282.364 177.223 285.581C176.721 286.358 176.398 287.112 175.884 287.65C175.358 288.164 174.724 288.368 174.233 288.403C173.731 288.439 173.36 288.332 173.133 288.224C172.93 288.152 172.822 288.069 172.822 288.069Z"
		fill="#FFE6B7" />
	<path
		d="M166.507 263.551L169.521 268.897L163.302 269.016L157.083 269.124L160.288 263.658L163.493 258.192L166.507 263.551Z"
		fill="#FFE6B7" />
	<path
		d="M572.107 491.58C572.107 491.759 457.709 491.915 316.629 491.915C175.501 491.915 61.1277 491.771 61.1277 491.58C61.1277 491.4 175.501 491.245 316.629 491.245C457.709 491.245 572.107 491.4 572.107 491.58Z"
		fill="#263238" />
	<path
		d="M187.605 415.598L151.486 379.323L169.641 345.979C187.796 322.741 226.236 324.236 226.236 324.236C226.236 324.236 252.392 321.712 282.914 327.656C313.448 333.6 310.984 353.801 310.984 353.801L315.074 428.634L319.464 489.571L206.86 491.843L187.605 415.598Z"
		fill="#ECEDFE" />
	<path
		d="M248.266 488.327L147.407 489.559C123.176 489.858 107.006 464.658 117.376 442.747L160.503 362.771L199.78 389.322L172.99 444.924L254.641 446.383L248.266 488.327Z"
		fill="#ECEDFE" />
	<path
		d="M307.396 341.649L388.329 466.607L341.111 469.693C341.111 469.693 312.91 425.262 313.555 426.183C314.704 427.845 307.396 341.649 307.396 341.649Z"
		fill="#ECEDFE" />
	<path
		d="M197.759 396.522C197.735 396.522 197.783 396.295 197.866 395.876C197.986 395.398 198.118 394.8 198.297 394.07C198.668 392.503 199.218 390.231 199.78 387.396C200.342 384.574 200.952 381.189 201.359 377.398C201.741 373.618 201.981 369.409 201.407 365.079C200.761 360.761 199.134 356.839 197.233 353.574C195.319 350.296 193.178 347.605 191.229 345.489C189.279 343.372 187.557 341.793 186.325 340.752C185.105 339.7 184.399 339.15 184.435 339.102C184.447 339.09 184.639 339.21 184.985 339.449C185.332 339.7 185.859 340.047 186.48 340.561C187.76 341.554 189.542 343.097 191.552 345.19C193.561 347.283 195.773 349.974 197.735 353.286C199.696 356.587 201.371 360.57 202.028 364.995C202.615 369.42 202.351 373.666 201.945 377.47C201.502 381.273 200.844 384.669 200.223 387.492C199.601 390.315 198.991 392.575 198.536 394.13C198.309 394.907 198.13 395.505 197.998 395.912C197.854 396.319 197.771 396.522 197.759 396.522Z"
		fill="#263238" />
	<path
		d="M194.506 400.827C194.542 400.839 194.29 401.485 193.812 402.633C193.334 403.782 192.604 405.432 191.695 407.453C189.865 411.508 187.27 417.081 184.28 423.181C181.29 429.28 178.467 434.746 176.374 438.669C175.334 440.63 174.473 442.209 173.851 443.297C173.241 444.386 172.882 444.972 172.846 444.948C172.81 444.924 173.097 444.302 173.635 443.178C174.233 441.97 175.023 440.379 175.98 438.454C178.001 434.375 180.716 428.921 183.718 422.882C186.66 416.818 189.315 411.34 191.3 407.238C192.233 405.312 193.011 403.71 193.597 402.502C194.147 401.413 194.47 400.804 194.506 400.827Z"
		fill="#263238" />
	<path
		d="M248.266 488.327C248.254 488.327 248.254 488.255 248.266 488.112C248.278 487.944 248.29 487.741 248.314 487.502C248.374 486.927 248.457 486.126 248.553 485.122C248.792 482.993 249.115 479.967 249.546 476.152C250.443 468.425 251.698 457.53 253.181 444.697L253.468 445.02C244.391 445.032 234.297 445.032 223.676 445.044C203.332 445.008 184.926 444.972 171.554 444.948C164.917 444.912 159.535 444.876 155.755 444.852C153.925 444.828 152.49 444.804 151.462 444.792C150.995 444.78 150.624 444.768 150.349 444.757C150.098 444.745 149.967 444.733 149.967 444.721C149.967 444.709 150.098 444.697 150.349 444.685C150.636 444.673 151.007 444.661 151.462 444.649C152.49 444.637 153.925 444.613 155.755 444.589C159.523 444.565 164.917 444.529 171.554 444.493C184.926 444.469 203.332 444.434 223.676 444.398C234.297 444.41 244.391 444.422 253.468 444.422H253.791L253.755 444.745C252.177 457.566 250.849 468.449 249.904 476.175C249.414 479.979 249.031 483.005 248.756 485.133C248.613 486.138 248.505 486.927 248.433 487.502C248.397 487.753 248.362 487.944 248.338 488.112C248.29 488.255 248.278 488.327 248.266 488.327Z"
		fill="#263238" />
	<path
		d="M173.695 445.797C173.612 445.845 172.918 444.828 171.686 443.274C170.454 441.731 168.612 439.686 166.304 437.736C163.996 435.787 161.675 434.315 159.941 433.359C158.207 432.39 157.083 431.888 157.119 431.792C157.143 431.72 158.339 432.091 160.145 432.964C161.951 433.837 164.354 435.272 166.699 437.258C169.043 439.243 170.873 441.372 172.033 442.998C173.205 444.649 173.755 445.761 173.695 445.797Z"
		fill="#263238" />
	<path
		d="M316.761 453.715C316.737 453.715 316.689 453.356 316.605 452.686C316.522 451.956 316.414 450.964 316.27 449.708C315.995 447.125 315.625 443.381 315.23 438.741C314.417 429.472 313.472 416.662 312.623 402.49C311.785 388.317 311.199 375.484 310.865 366.191C310.697 361.539 310.577 357.783 310.53 355.188C310.506 353.932 310.494 352.928 310.482 352.198C310.482 351.516 310.482 351.158 310.506 351.158C310.53 351.158 310.566 351.516 310.601 352.198C310.637 352.94 310.697 353.932 310.769 355.188C310.9 357.843 311.08 361.587 311.307 366.191C311.762 375.484 312.407 388.305 313.245 402.478C314.082 416.639 314.955 429.448 315.66 438.729C316.019 443.321 316.306 447.053 316.51 449.708C316.605 450.964 316.677 451.956 316.725 452.698C316.773 453.344 316.785 453.715 316.761 453.715Z"
		fill="#263238" />
	<path
		d="M226.726 385.722C226.69 385.722 226.738 385.148 226.857 384.083C227.001 382.947 227.18 381.428 227.408 379.563C227.934 375.616 228.651 370.21 229.489 363.943L229.955 364.23C227.539 365.916 224.932 367.746 222.217 369.648C219.454 371.573 216.799 373.415 214.347 375.125L213.785 375.52L213.893 374.838C214.838 368.631 215.663 363.273 216.261 359.362C216.56 357.52 216.811 356.025 217.002 354.901C217.182 353.861 217.301 353.298 217.337 353.31C217.373 353.31 217.325 353.884 217.206 354.937C217.062 356.073 216.871 357.58 216.644 359.422C216.105 363.345 215.352 368.715 214.491 374.934L214.024 374.647C216.464 372.937 219.119 371.083 221.882 369.145C224.597 367.256 227.216 365.426 229.632 363.751L230.194 363.357L230.099 364.038C229.178 370.282 228.388 375.688 227.802 379.622C227.503 381.476 227.264 382.983 227.085 384.119C226.881 385.16 226.762 385.722 226.726 385.722Z"
		fill="#7A76FF" />
	<path
		d="M271.743 390.566C271.719 390.59 271.301 390.183 270.571 389.418C269.782 388.58 268.729 387.468 267.438 386.105C264.735 383.174 261.039 379.168 256.757 374.527L257.272 374.348C257.033 377.278 256.769 380.46 256.494 383.761C256.207 387.109 255.932 390.338 255.669 393.317L255.609 394.01L255.155 393.496C250.993 388.796 247.393 384.741 244.762 381.775C243.542 380.364 242.549 379.216 241.795 378.355C241.114 377.553 240.755 377.099 240.779 377.075C240.803 377.051 241.209 377.458 241.939 378.211C242.716 379.048 243.757 380.149 245.025 381.512C247.692 384.43 251.352 388.437 255.585 393.077L255.071 393.245C255.322 390.267 255.585 387.038 255.86 383.689C256.147 380.388 256.423 377.206 256.674 374.276L256.734 373.595L257.188 374.109C261.41 378.809 265.046 382.875 267.713 385.842C268.957 387.253 269.961 388.401 270.715 389.274C271.408 390.099 271.767 390.542 271.743 390.566Z"
		fill="#7A76FF" />
	<path
		d="M294.396 388.963C294.419 388.987 294.132 389.477 293.582 390.386C292.972 391.355 292.159 392.659 291.166 394.249C289.014 397.598 286.059 402.191 282.639 407.501L282.34 407.047C285.234 406.544 288.38 406.006 291.645 405.444C294.958 404.882 298.163 404.344 301.105 403.841L301.787 403.722L301.404 404.296C297.9 409.51 294.874 414.007 292.673 417.296C291.609 418.827 290.748 420.083 290.102 421.016C289.492 421.877 289.157 422.331 289.121 422.32C289.097 422.296 289.384 421.805 289.934 420.908C290.544 419.94 291.358 418.66 292.362 417.093C294.527 413.78 297.481 409.235 300.914 403.973L301.213 404.427C298.271 404.93 295.077 405.48 291.764 406.054C288.499 406.604 285.354 407.142 282.447 407.633L281.766 407.752L282.148 407.178C285.641 401.916 288.667 397.371 290.867 394.058C291.92 392.503 292.781 391.247 293.439 390.291C294.025 389.418 294.372 388.951 294.396 388.963Z"
		fill="#7A76FF" />
	<path
		d="M264.268 412.142C264.292 412.166 264.005 412.656 263.455 413.565C262.845 414.534 262.032 415.837 261.039 417.428C258.886 420.777 255.932 425.369 252.512 430.68L252.213 430.225C255.107 429.723 258.252 429.185 261.518 428.623C264.83 428.06 268.036 427.522 270.978 427.02L271.66 426.9L271.277 427.474C267.773 432.689 264.747 437.186 262.546 440.475C261.482 442.006 260.621 443.262 259.975 444.194C259.365 445.056 259.03 445.51 258.994 445.498C258.97 445.474 259.257 444.984 259.807 444.087C260.417 443.118 261.23 441.838 262.235 440.272C264.4 436.959 267.354 432.414 270.787 427.151L271.086 427.606C268.143 428.108 264.95 428.658 261.637 429.232C258.372 429.783 255.227 430.321 252.32 430.811L251.639 430.931L252.021 430.357C255.514 425.094 258.539 420.549 260.74 417.237C261.793 415.682 262.654 414.426 263.312 413.469C263.898 412.584 264.244 412.13 264.268 412.142Z"
		fill="#7A76FF" />
	<path
		d="M329.367 388.64C329.39 388.664 329.103 389.155 328.553 390.063C327.943 391.032 327.13 392.336 326.137 393.927C323.985 397.275 321.03 401.868 317.61 407.178L317.311 406.724C320.205 406.221 323.351 405.683 326.616 405.121C329.929 404.559 333.134 404.021 336.076 403.518L336.758 403.399L336.375 403.973C332.871 409.187 329.845 413.684 327.644 416.973C326.58 418.504 325.719 419.76 325.073 420.693C324.463 421.554 324.128 422.009 324.092 421.997C324.068 421.973 324.355 421.482 324.905 420.585C325.515 419.617 326.329 418.337 327.333 416.77C329.498 413.457 332.452 408.912 335.885 403.65L336.184 404.104C333.242 404.607 330.048 405.157 326.735 405.731C323.47 406.281 320.325 406.819 317.419 407.31L316.737 407.429L317.12 406.855C320.612 401.593 323.638 397.048 325.838 393.735C326.891 392.18 327.752 390.925 328.41 389.968C328.984 389.083 329.331 388.616 329.367 388.64Z"
		fill="#7A76FF" />
	<path
		d="M176.936 369.492C176.96 369.516 176.673 370.007 176.123 370.915C175.513 371.884 174.7 373.188 173.707 374.779C171.554 378.127 168.6 382.72 165.18 388.03L164.881 387.576C167.775 387.073 170.921 386.535 174.186 385.973C177.499 385.411 180.704 384.873 183.646 384.37L184.328 384.251L183.945 384.825C180.441 390.04 177.415 394.536 175.214 397.825C174.15 399.356 173.289 400.612 172.643 401.545C172.033 402.406 171.698 402.861 171.662 402.849C171.638 402.825 171.925 402.334 172.475 401.437C173.085 400.469 173.899 399.189 174.903 397.622C177.068 394.309 180.022 389.764 183.455 384.502L183.754 384.957C180.811 385.459 177.618 386.009 174.305 386.583C171.04 387.133 167.895 387.671 164.988 388.162L164.307 388.281L164.689 387.707C168.182 382.445 171.208 377.9 173.408 374.587C174.461 373.032 175.322 371.777 175.98 370.82C176.566 369.935 176.901 369.48 176.936 369.492Z"
		fill="#7A76FF" />
	<path
		d="M129.647 458.929C129.671 458.905 130.065 459.336 130.747 460.149C131.476 461.034 132.457 462.206 133.665 463.653C136.177 466.739 139.621 470.973 143.604 475.876L143.078 476.02C143.508 473.114 143.963 469.956 144.441 466.667C144.943 463.342 145.422 460.137 145.852 457.183L145.96 456.501L146.379 457.039C150.242 461.991 153.579 466.261 156.018 469.382C157.155 470.865 158.064 472.073 158.757 472.982C159.391 473.831 159.714 474.298 159.69 474.322C159.666 474.346 159.283 473.915 158.602 473.114C157.872 472.229 156.915 471.057 155.719 469.621C153.244 466.536 149.847 462.314 145.912 457.422L146.438 457.279C146.008 460.233 145.541 463.438 145.051 466.763C144.561 470.04 144.094 473.197 143.652 476.104L143.556 476.785L143.137 476.247C139.227 471.296 135.842 467.014 133.366 463.881C132.218 462.397 131.285 461.178 130.579 460.269C129.958 459.419 129.623 458.941 129.647 458.929Z"
		fill="#7A76FF" />
	<path
		d="M237.645 401.019C237.645 401.055 237.071 401.126 236.019 401.234C234.871 401.33 233.352 401.461 231.474 401.629C227.503 401.928 222.062 402.334 215.759 402.801L215.938 402.287C218.079 404.296 220.411 406.485 222.827 408.745C225.279 411.053 227.635 413.278 229.8 415.323L230.302 415.801L229.62 415.837C223.353 416.184 217.935 416.483 213.989 416.698C212.123 416.782 210.604 416.842 209.468 416.89C208.415 416.926 207.841 416.926 207.841 416.89C207.841 416.854 208.403 416.782 209.456 416.686C210.592 416.591 212.111 416.471 213.965 416.316C217.911 416.041 223.317 415.67 229.584 415.239L229.405 415.754C227.228 413.708 224.86 411.496 222.408 409.188C220.004 406.915 217.672 404.726 215.543 402.705L215.041 402.239L215.723 402.203C222.026 401.82 227.479 401.497 231.45 401.258C233.328 401.162 234.859 401.091 236.007 401.043C237.059 400.995 237.633 400.983 237.645 401.019Z"
		fill="#7A76FF" />
	<path
		d="M211.142 461.297C211.166 461.273 211.561 461.692 212.266 462.493C213.02 463.366 214.024 464.514 215.256 465.938C217.828 468.976 221.356 473.15 225.434 477.969L224.908 478.125C225.279 475.207 225.673 472.037 226.092 468.748C226.523 465.411 226.941 462.194 227.324 459.24L227.408 458.558L227.838 459.097C231.797 463.964 235.217 468.174 237.717 471.248C238.877 472.707 239.822 473.903 240.528 474.788C241.174 475.625 241.508 476.08 241.484 476.104C241.461 476.128 241.066 475.709 240.372 474.92C239.631 474.059 238.638 472.898 237.43 471.487C234.895 468.449 231.414 464.299 227.384 459.479L227.91 459.324C227.539 462.29 227.132 465.495 226.714 468.832C226.283 472.121 225.877 475.278 225.506 478.197L225.422 478.878L224.992 478.352C220.985 473.472 217.517 469.263 214.981 466.177C213.809 464.706 212.852 463.522 212.135 462.625C211.453 461.788 211.106 461.321 211.142 461.297Z"
		fill="#7A76FF" />
	<path
		d="M163.768 417.093C163.768 417.129 163.194 417.201 162.142 417.308C160.994 417.404 159.475 417.536 157.597 417.703C153.626 418.002 148.185 418.409 141.882 418.875L142.061 418.361C144.202 420.37 146.534 422.559 148.95 424.819C151.402 427.127 153.758 429.352 155.923 431.397L156.425 431.876L155.743 431.911C149.476 432.258 144.058 432.557 140.112 432.773C138.246 432.856 136.727 432.916 135.591 432.964C134.538 433 133.964 433 133.964 432.964C133.964 432.928 134.526 432.856 135.579 432.761C136.715 432.665 138.234 432.545 140.088 432.39C144.034 432.115 149.44 431.744 155.707 431.313L155.528 431.828C153.351 429.783 150.983 427.57 148.531 425.274C146.127 423.001 143.795 420.813 141.666 418.791L141.164 418.325L141.846 418.289C148.149 417.906 153.602 417.583 157.573 417.344C159.451 417.249 160.982 417.177 162.13 417.129C163.194 417.069 163.768 417.057 163.768 417.093Z"
		fill="#7A76FF" />
	<path
		d="M204.468 459.946C204.468 459.982 203.894 460.053 202.842 460.161C201.694 460.257 200.175 460.388 198.297 460.556C194.326 460.855 188.884 461.261 182.582 461.728L182.761 461.213C184.902 463.223 187.234 465.411 189.65 467.672C192.102 469.98 194.458 472.205 196.623 474.25L197.125 474.728L196.443 474.764C190.176 475.111 184.758 475.41 180.811 475.625C178.946 475.709 177.427 475.769 176.291 475.817C175.238 475.853 174.664 475.853 174.664 475.817C174.664 475.781 175.226 475.709 176.279 475.613C177.415 475.518 178.934 475.398 180.788 475.243C184.734 474.967 190.14 474.597 196.407 474.166L196.228 474.68C194.051 472.635 191.683 470.423 189.231 468.126C186.827 465.854 184.495 463.665 182.366 461.644L181.864 461.178L182.546 461.142C188.849 460.759 194.302 460.436 198.273 460.197C200.151 460.101 201.682 460.029 202.83 459.982C203.882 459.91 204.468 459.91 204.468 459.946Z"
		fill="#7A76FF" />
	<path
		d="M296.333 350.918C296.333 350.954 295.759 351.026 294.707 351.122C293.558 351.217 292.039 351.349 290.162 351.516C286.191 351.815 280.749 352.222 274.446 352.688L274.626 352.174C276.767 354.183 279.099 356.372 281.515 358.633C283.966 360.941 286.323 363.165 288.487 365.211L288.99 365.689L288.308 365.725C282.041 366.072 276.623 366.371 272.676 366.586C270.81 366.67 269.292 366.729 268.155 366.777C267.103 366.813 266.529 366.813 266.529 366.777C266.529 366.741 267.091 366.67 268.143 366.574C269.28 366.478 270.799 366.359 272.652 366.203C276.599 365.928 282.005 365.557 288.272 365.127L288.093 365.641C285.916 363.596 283.548 361.383 281.096 359.087C278.692 356.815 276.36 354.626 274.231 352.605L273.729 352.138L274.41 352.102C280.713 351.72 286.167 351.397 290.138 351.158C292.016 351.062 293.546 350.99 294.695 350.942C295.747 350.894 296.333 350.882 296.333 350.918Z"
		fill="#7A76FF" />
	<path
		d="M251.651 459.946C251.651 459.946 271.779 454.145 278.429 452.447C281.024 451.789 292.135 457.649 299.813 462.517C299.813 462.517 310.386 468.784 309.525 470.722C308.58 472.851 304.681 472.408 298.474 469.49C298.474 469.49 300.639 475.793 296.381 475.649C296.381 475.649 298.498 482.454 294.503 483.16C290.509 483.866 289.576 475.183 286.047 474.704C282.531 474.238 275.248 473.76 275.248 473.76C275.248 473.76 269.184 483.794 264.496 484.5C259.795 485.205 248.924 483.937 248.924 483.937L251.651 459.946Z"
		fill="#FFBE9D" />
	<path
		d="M285.988 461.333C286.083 461.19 288.595 462.613 291.609 464.514C294.623 466.416 296.991 468.067 296.895 468.222C296.799 468.366 294.288 466.942 291.274 465.041C288.272 463.139 285.904 461.477 285.988 461.333Z"
		fill="#EB996E" />
	<path
		d="M284.804 465.196C284.875 465.041 287.865 466.261 291.477 467.935C295.089 469.597 297.96 471.08 297.888 471.236C297.816 471.391 294.826 470.172 291.214 468.497C287.602 466.835 284.732 465.364 284.804 465.196Z"
		fill="#EB996E" />
	<path
		d="M286.956 474.585C286.98 474.417 289.014 474.549 291.501 474.896C293.989 475.231 295.986 475.649 295.962 475.817C295.938 475.984 293.905 475.853 291.418 475.506C288.93 475.171 286.933 474.752 286.956 474.585Z"
		fill="#EB996E" />
	<path
		d="M225.47 252.38C225.937 253.923 225.41 255.717 224.166 256.745C222.935 257.786 221.069 257.989 219.634 257.272C216.907 255.884 216.56 252.129 217.098 249.115C217.636 246.101 218.653 242.896 217.397 240.109C216.428 237.98 214.335 236.629 212.709 234.954C209.862 232.036 208.355 227.778 209.049 223.76C209.743 219.741 212.757 216.129 216.679 215.041C220.686 213.917 225.626 215.148 228.604 212.254C230.768 210.149 230.9 206.705 232.574 204.205C235.17 200.306 240.659 199.696 245.3 200.33C249.94 200.964 254.652 202.447 259.197 201.323C262.989 200.378 266.11 197.735 269.662 196.108C277.365 192.58 287.22 194.494 293.044 200.641C298.881 206.788 300.256 216.727 296.333 224.238C294.922 226.941 292.793 229.381 289.982 230.529"
		fill="#263238" />
	<path
		d="M248.553 351.158C261.398 351.146 271.755 340.633 271.588 327.788L271.289 305.805C271.289 305.805 289.755 303.951 290.987 285.653C292.207 267.354 291.322 225.135 291.322 225.135C270.619 214.873 245.981 216.608 226.929 229.692L224.107 231.629L225.482 328.434C225.649 341.051 235.935 351.181 248.553 351.158Z"
		fill="#FFBE9D" />
	<path
		d="M286.454 258.276C283.201 257.63 283.225 253.432 286.49 252.834C286.634 252.81 286.789 252.81 286.933 252.834C290.186 253.48 290.162 257.678 286.897 258.276C286.753 258.3 286.598 258.3 286.454 258.276Z"
		fill="#263238" />
	<path
		d="M290.042 252.428C289.743 252.727 288.021 251.244 285.497 251.1C282.974 250.909 281.072 252.153 280.809 251.818C280.677 251.662 281 251.112 281.826 250.55C282.639 249.988 284.014 249.486 285.593 249.581C287.16 249.689 288.463 250.371 289.193 251.04C289.958 251.71 290.198 252.296 290.042 252.428Z"
		fill="#263238" />
	<path
		d="M260.872 253.05C262.08 253.887 262.379 255.549 261.541 256.757C260.704 257.965 259.042 258.264 257.834 257.427C256.626 256.59 256.327 254.927 257.164 253.719C258.001 252.511 259.664 252.212 260.872 253.05Z"
		fill="#263238" />
	<path
		d="M262.534 253.157C262.235 253.456 260.513 251.973 257.989 251.83C255.466 251.638 253.564 252.882 253.301 252.547C253.169 252.392 253.492 251.842 254.318 251.28C255.131 250.717 256.506 250.215 258.085 250.311C259.652 250.418 260.955 251.1 261.685 251.77C262.438 252.44 262.678 253.026 262.534 253.157Z"
		fill="#263238" />
	<path
		d="M271.516 274.518C271.504 274.315 273.083 274.087 275.642 273.872C276.312 273.836 276.826 273.717 276.898 273.358C277.042 272.963 276.826 272.245 276.527 271.444C275.965 269.746 275.403 268.012 274.817 266.206C272.461 258.755 270.858 252.619 271.229 252.5C271.612 252.38 273.824 258.324 276.18 265.775C276.731 267.593 277.269 269.327 277.783 271.038C277.986 271.815 278.393 272.724 277.998 273.8C277.783 274.338 277.245 274.697 276.802 274.793C276.36 274.901 275.989 274.877 275.666 274.877C273.107 274.841 271.516 274.721 271.516 274.518Z"
		fill="#263238" />
	<path
		d="M263.168 276.862C266.397 278.357 270.248 280.223 275.343 281.132C275.343 281.132 272.138 285.677 266.971 283.464C261.589 281.144 263.168 276.862 263.168 276.862Z"
		fill="white" />
	<path
		d="M271.325 305.542C271.325 305.542 259.7 305.853 247.823 297.457C247.823 297.457 252.751 310.948 271.109 310.29L271.325 305.542Z"
		fill="#EB996E" />
	<path
		d="M291.441 229.752C291.441 229.752 280.39 235.373 265.727 228.4C256.112 223.831 244.953 221.726 242.549 223.688C240.133 225.649 239.81 235.48 230.433 238.53C230.433 238.53 231.45 257.248 223.963 256.721C216.476 256.195 220.59 227.096 220.59 227.096L238.686 217.816L258.551 213.665L277.388 215.95L292.004 219.645L291.441 229.752Z"
		fill="#263238" />
	<path
		d="M225.315 250.717C225.016 250.562 212.936 246.316 212.649 258.85C212.362 271.396 225.016 269.088 225.051 268.729C225.087 268.37 225.315 250.717 225.315 250.717Z"
		fill="#FFBE9D" />
	<path
		d="M221.332 263.885C221.272 263.85 221.105 264.029 220.734 264.196C220.375 264.352 219.753 264.448 219.095 264.196C217.78 263.682 216.715 261.553 216.703 259.293C216.691 258.145 216.955 257.068 217.385 256.183C217.792 255.274 218.402 254.652 219.071 254.545C219.741 254.401 220.208 254.82 220.351 255.179C220.507 255.537 220.423 255.777 220.495 255.8C220.531 255.836 220.77 255.597 220.674 255.071C220.626 254.82 220.483 254.521 220.196 254.27C219.897 254.018 219.466 253.887 219 253.923C218.031 253.971 217.146 254.844 216.679 255.812C216.165 256.793 215.842 258.013 215.842 259.293C215.866 261.816 217.11 264.22 218.904 264.782C219.777 265.034 220.519 264.782 220.913 264.495C221.296 264.196 221.368 263.909 221.332 263.885Z"
		fill="#EB996E" />
	<path
		d="M218.928 211.453C218.856 211.309 220.913 210.723 223.281 211.608C225.649 212.481 226.822 214.275 226.678 214.335C226.546 214.467 225.255 212.984 223.066 212.194C220.889 211.369 218.952 211.644 218.928 211.453Z"
		fill="#263238" />
	<path
		d="M226.475 203.942C226.69 203.954 226.355 206.585 226.786 209.719C227.216 212.888 228.699 215.089 228.532 215.184C228.472 215.232 228.018 214.742 227.479 213.797C226.953 212.864 226.391 211.441 226.164 209.814C225.721 206.537 226.355 203.918 226.475 203.942Z"
		fill="#263238" />
	<path
		d="M278.01 246.412C277.939 246.268 278.477 245.838 279.493 245.419C280.51 245.001 282.017 244.654 283.703 244.666C285.39 244.69 286.885 245.072 287.889 245.503C288.894 245.933 289.432 246.376 289.36 246.532C289.205 246.866 286.789 245.922 283.691 245.91C280.594 245.85 278.154 246.747 278.01 246.412Z"
		fill="#263238" />
	<path
		d="M250.048 243.769C249.976 243.625 250.514 243.195 251.531 242.776C252.547 242.357 254.054 242.011 255.741 242.023C257.427 242.046 258.922 242.429 259.927 242.86C260.931 243.29 261.47 243.733 261.398 243.888C261.242 244.223 258.827 243.278 255.729 243.266C252.619 243.207 250.191 244.104 250.048 243.769Z"
		fill="#263238" />
	<path
		d="M275.846 248.385C275.858 248.397 275.881 248.66 275.893 249.127C275.905 249.653 275.929 250.323 275.953 251.148C275.977 252.033 275.989 253.086 276.013 254.294C276.013 255.501 276.085 256.913 276.611 258.36C277.113 259.795 277.974 261.278 279.254 262.534C280.546 263.766 282.232 264.794 284.194 265.249C285.174 265.476 286.203 265.596 287.255 265.512C288.308 265.464 289.372 265.249 290.389 264.854C292.434 264.101 294.288 262.63 295.544 260.68C296.74 258.826 297.278 256.662 297.23 254.557C297.23 252.416 297.242 250.347 297.242 248.373L297.529 248.66C291.262 248.601 285.904 248.553 282.005 248.517C280.139 248.481 278.632 248.457 277.496 248.433C277.018 248.421 276.611 248.409 276.276 248.397C276.013 248.409 275.858 248.397 275.846 248.385C275.822 248.361 276.36 248.337 277.388 248.314C278.501 248.29 279.984 248.266 281.826 248.23C285.76 248.194 291.19 248.146 297.541 248.086H297.828V248.373C297.828 250.347 297.84 252.416 297.84 254.557C297.912 256.733 297.338 259.066 296.07 261.015C294.742 263.072 292.769 264.639 290.604 265.416C289.528 265.835 288.404 266.05 287.291 266.098C286.179 266.17 285.091 266.05 284.062 265.799C281.993 265.309 280.223 264.208 278.895 262.893C277.568 261.553 276.695 259.998 276.192 258.48C275.678 256.961 275.63 255.501 275.666 254.246C275.69 253.014 275.714 251.937 275.726 251.028C275.75 250.215 275.774 249.557 275.786 249.031C275.822 248.589 275.834 248.361 275.846 248.385Z"
		fill="#263238" />
	<path
		d="M246.532 247.763C246.544 247.775 246.568 248.038 246.579 248.505C246.591 249.031 246.615 249.701 246.639 250.526C246.663 251.411 246.675 252.464 246.699 253.672C246.699 254.88 246.771 256.291 247.297 257.738C247.799 259.173 248.661 260.656 249.94 261.912C251.232 263.144 252.918 264.172 254.88 264.627C255.86 264.854 256.889 264.974 257.941 264.89C258.994 264.842 260.058 264.627 261.075 264.232C263.12 263.479 264.974 262.008 266.23 260.058C267.426 258.204 267.964 256.04 267.916 253.935C267.916 251.794 267.928 249.725 267.928 247.751L268.215 248.038C261.948 247.979 256.59 247.931 252.691 247.895C250.825 247.859 249.318 247.835 248.182 247.811C247.704 247.799 247.297 247.787 246.962 247.775C246.687 247.787 246.544 247.775 246.532 247.763C246.508 247.739 247.046 247.716 248.074 247.692C249.187 247.668 250.67 247.644 252.512 247.608C256.446 247.572 261.876 247.524 268.227 247.464H268.514V247.751C268.514 249.725 268.526 251.794 268.526 253.935C268.598 256.111 268.024 258.444 266.756 260.393C265.428 262.45 263.455 264.017 261.29 264.794C260.214 265.213 259.09 265.428 257.977 265.476C256.865 265.548 255.777 265.428 254.748 265.177C252.679 264.687 250.909 263.586 249.581 262.271C248.254 260.931 247.381 259.377 246.878 257.858C246.364 256.339 246.316 254.88 246.352 253.624C246.376 252.392 246.4 251.315 246.412 250.407C246.436 249.593 246.46 248.935 246.472 248.409C246.496 247.979 246.508 247.751 246.532 247.763Z"
		fill="#263238" />
	<path
		d="M276.109 249.246C276.109 249.414 274.255 249.557 271.983 249.557C269.698 249.557 267.856 249.414 267.856 249.246C267.856 249.079 269.71 248.935 271.983 248.935C274.267 248.935 276.109 249.079 276.109 249.246Z"
		fill="#263238" />
	<path
		d="M223.664 249.414C223.664 249.246 228.783 249.091 235.098 249.067C241.413 249.043 246.532 249.175 246.532 249.342C246.532 249.51 241.413 249.665 235.098 249.689C228.783 249.713 223.664 249.593 223.664 249.414Z"
		fill="#263238" />
	<path
		d="M453.452 264.28L417.847 251.494L382.589 264.112C378.092 266.241 374.145 267.509 374.145 271.707V292.589C374.145 307.084 377.948 321.448 385.758 334.138C392.336 344.806 402.514 355.797 418.194 362.782C432.605 358.106 443.357 345.619 449.935 334.951C457.745 322.262 461.549 307.898 461.549 293.402V274.625C461.561 268.633 458.391 265.715 453.452 264.28Z"
		fill="#ECEDFE" />
	<g opacity="0.3">
		<path opacity="0.3"
			d="M418.194 350.655C405.791 345.129 397.73 336.243 392.527 327.799C386.344 317.765 383.342 306.403 383.342 294.921V280.282C383.342 276.969 385.339 273.859 389.322 272.006L417.859 261.337L417.847 251.494L382.589 264.112C378.893 265.727 374.145 267.509 374.145 271.707V292.589C374.145 307.084 377.948 321.448 385.758 334.138C392.336 344.806 402.514 355.797 418.194 362.782V350.655Z"
			fill="black" />
	</g>
	<g opacity="0.4">
		<path opacity="0.4"
			d="M418.194 362.771C420.693 361.934 422.989 360.977 425.19 359.769C431.098 356.552 436.145 352.126 439.997 348.12C444.302 343.647 447.508 338.803 450.294 334.282C458.104 321.592 461.907 307.228 461.561 292.338L461.584 275.104C461.561 266.517 457.159 265.883 453.464 264.268L417.859 251.483L417.871 261.326L446.742 272.174C450.713 274.028 452.722 277.137 452.722 280.45V295.089C452.722 306.559 449.72 317.921 443.537 327.967C438.334 336.411 430.62 345.118 418.217 350.643V362.771H418.194Z"
			fill="black" />
	</g>
	<path opacity="0.5"
		d="M427.295 293.989L427.331 291.166C427.331 286.071 423.181 281.921 418.086 281.921C412.991 281.921 408.841 286.071 408.841 291.154L408.805 294.025C406.305 294.395 404.392 296.536 404.392 299.132V315.756C404.392 318.614 406.712 320.935 409.57 320.935H426.829C429.687 320.935 432.007 318.614 432.007 315.756V299.132C431.995 296.441 429.926 294.228 427.295 293.989ZM420.562 311.618H416.053L416.758 308.365C415.981 307.874 415.455 307.013 415.455 306.032C415.455 304.514 416.687 303.282 418.205 303.282C419.724 303.282 420.956 304.514 420.956 306.032C420.956 306.989 420.478 307.826 419.736 308.317C420.047 309.573 420.562 311.618 420.562 311.618ZM425.298 293.965H410.79L410.826 291.166C410.826 287.172 414.079 283.918 418.074 283.918C422.069 283.918 425.322 287.172 425.322 291.154L425.298 293.965Z"
		fill="white" />
	<path
		d="M389.107 293.785C389.023 293.797 388.784 292.697 388.569 290.891C388.353 289.085 388.198 286.574 388.282 283.799C388.317 282.411 388.413 281.096 388.533 279.9C388.652 278.704 388.868 277.592 389.334 276.754C389.789 275.917 390.422 275.415 390.889 275.188C391.367 274.96 391.678 274.972 391.678 275.008C391.738 275.092 390.47 275.331 389.729 276.958C389.358 277.735 389.191 278.776 389.107 279.96C389.011 281.144 388.939 282.447 388.903 283.823C388.82 286.574 388.903 289.061 389.011 290.855C389.107 292.661 389.203 293.773 389.107 293.785Z"
		fill="white" />
	<path
		d="M389.633 302.875C389.466 302.875 389.31 302.026 389.286 300.961C389.262 299.897 389.382 299.036 389.561 299.036C389.729 299.036 389.884 299.885 389.908 300.949C389.932 302.014 389.812 302.875 389.633 302.875Z"
		fill="white" />
	<path d="M352.067 388.963L312.371 487.143H240.791V491.58H454.002L497.62 388.963H352.067Z" fill="#263238" />
	<path
		d="M412.752 446.933C411.316 451.873 407.119 454.994 403.399 453.918C399.667 452.83 397.814 447.95 399.249 443.01C400.684 438.071 404.882 434.949 408.602 436.026C412.333 437.102 414.199 441.994 412.752 446.933Z"
		fill="#FAFAFA" />
</svg>