<svg width="28" height="22" viewBox="0 0 28 22" fill="none" xmlns="http://www.w3.org/2000/svg">
	<path
		d="M27.0699 6.16094L15.9084 0.708481C14.9462 0.227381 13.3104 0.227381 12.3482 0.708481L0.930126 6.16094C0.128293 6.54582 0 7.09107 0 7.37973C0 7.66839 0.128293 8.18156 0.930126 8.59851L1.86025 9.04754V14.1793C1.28293 14.4038 0.865979 14.9811 0.865979 15.6226C0.865979 16.264 1.28293 16.8414 1.82818 17.0659L0.38488 21.6524H4.42612L2.98282 17.0659C3.56014 16.8414 3.94502 16.264 3.94502 15.6226C3.94502 14.949 3.52806 14.4038 2.95074 14.1793V9.59279L4.65063 10.4267V17.0979C4.65063 17.1942 4.6827 17.2904 4.74685 17.3866C4.90722 17.579 7.89003 21.6524 13.984 21.6524C20.0779 21.6524 23.0607 17.547 23.189 17.3866C23.2532 17.2904 23.2852 17.1942 23.2852 17.0979V10.4588L27.0699 8.59851C27.8717 8.21363 28 7.66839 28 7.37973C27.9679 7.09107 27.8717 6.54582 27.0699 6.16094ZM22.2589 16.9376C21.7457 17.579 18.9874 20.6581 13.984 20.6581C8.98053 20.6581 6.22222 17.579 5.70905 16.9376V10.8757L12.3482 14.051C12.8293 14.2755 13.4708 14.4038 14.1123 14.4038C14.7858 14.4038 15.4273 14.2755 15.9084 14.0189L22.2589 10.9078V16.9376ZM26.6208 7.70046L22.7721 9.59279C22.6117 9.59279 22.4834 9.65693 22.4192 9.78523L15.4593 13.1529C14.7858 13.5057 13.4708 13.5057 12.7652 13.1529L4.2016 9.04754L14.0481 7.8929C14.3368 7.86083 14.5292 7.60424 14.4971 7.34766C14.4651 7.059 14.2085 6.86656 13.9519 6.89863L2.53379 8.24571L1.37915 7.70046C1.09049 7.57217 1.02635 7.4118 1.02635 7.4118C1.02635 7.37973 1.09049 7.25144 1.37915 7.12314L12.7973 1.63861C13.1501 1.47824 13.6312 1.38202 14.1123 1.38202C14.6254 1.38202 15.1386 1.47824 15.4593 1.63861L26.6208 7.09107C26.9095 7.21936 26.9737 7.34766 26.9737 7.4118C26.9737 7.4118 26.8774 7.57217 26.6208 7.70046Z"
		fill="white" />
</svg>