<svg width="18" height="22" viewBox="0 0 18 22" fill="none" xmlns="http://www.w3.org/2000/svg">
	<path fill-rule="evenodd" clip-rule="evenodd"
		d="M9.00469 0.166656C5.82617 0.166656 3.24946 2.75435 3.24946 5.94643C3.24946 9.13851 5.82617 11.7262 9.00469 11.7262C12.1832 11.7262 14.7599 9.13851 14.7599 5.94643C14.7599 2.75435 12.1832 0.166656 9.00469 0.166656ZM9.00469 1.73496C11.3207 1.73496 13.1983 3.6205 13.1983 5.94643C13.1983 8.27235 11.3207 10.1579 9.00469 10.1579C6.68864 10.1579 4.81111 8.27235 4.81111 5.94643C4.81111 3.6205 6.68864 1.73496 9.00469 1.73496ZM6.64926 14.0559C5.80673 14.1144 4.9551 14.2347 4.11507 14.4147C2.49373 14.7487 1.19663 15.416 0.64455 16.5249C0.43632 16.9585 0.331629 17.4228 0.333396 17.8929C0.332771 18.3596 0.436615 18.8246 0.637377 19.2499C1.16748 20.346 2.31349 20.9663 3.86097 21.3101L4.13818 21.368C4.9554 21.5524 5.80729 21.6765 6.66488 21.7348C6.73792 21.7562 6.912 21.7761 7.102 21.7858L7.25828 21.7917C7.33863 21.7935 7.42983 21.794 7.56571 21.794C8.79837 21.8618 10.0762 21.8421 11.3482 21.7338C12.026 21.6874 12.7084 21.5988 13.3851 21.4689L13.8914 21.3638C15.5624 21.0341 16.8137 20.4072 17.3618 19.2511C17.7683 18.3928 17.7683 17.3967 17.362 16.5388C16.8152 15.3856 15.5799 14.7639 13.8787 14.4135C13.2112 14.271 12.533 14.1655 11.8499 14.0982L11.3506 14.0559C9.78647 13.918 8.21335 13.918 6.64926 14.0559ZM11.2139 15.6182L11.2276 15.6193C12.0116 15.6745 12.7907 15.7845 13.5594 15.9486C14.8231 16.209 15.6806 16.6405 15.9519 17.2127C16.1562 17.6441 16.1562 18.1454 15.9517 18.5772C15.6982 19.1118 14.928 19.5249 13.8149 19.7773L13.5712 19.8289C12.7874 20.0038 12.0108 20.1165 11.2291 20.1701C10.0161 20.2732 8.8104 20.2919 7.60771 20.2268L7.1813 20.2195C7.06293 20.2135 6.96317 20.2021 6.87072 20.1835C6.13866 20.1282 5.47993 20.0408 4.84033 19.914L4.45844 19.8332C3.19089 19.5847 2.32579 19.1513 2.0453 18.5714C1.94715 18.3634 1.89473 18.1287 1.89504 17.891C1.89416 17.6547 1.9459 17.4253 2.04632 17.216C2.31905 16.6684 3.23584 16.1968 4.43493 15.9498C5.20917 15.7839 5.98796 15.6739 6.77156 15.6194C8.25907 15.4883 9.74074 15.4883 11.2139 15.6182Z"
		fill="#272443" />
</svg>